SplineFontDB: 3.2
FontName: MarsFrakturOT-Normal
FullName: MarsFraktur OT Normal
FamilyName: MarsFraktur OT
Weight: Normal
Copyright: (C) Copyright by Dipl.-Ing. Helzel, 1995-2020
Version: 1.9 19.8.2017
ItalicAngle: 0
UnderlinePosition: -115
UnderlineWidth: 36
Ascent: 800
Descent: 200
InvalidEm: 0
sfntRevision: 0x0001e666
LayerCount: 2
Layer: 0 0 "Hinten" 1
Layer: 1 0 "Vorne" 0
XUID: [1021 440 24186468 29906]
StyleMap: 0x0040
FSType: 0
OS2Version: 4
OS2_WeightWidthSlopeOnly: 0
OS2_UseTypoMetrics: 1
CreationTime: 1186249392
ModificationTime: 1721585190
PfmFamily: 81
TTFWeight: 400
TTFWidth: 5
LineGap: 83
VLineGap: 0
Panose: 0 0 4 0 0 0 0 0 0 0
OS2TypoAscent: 667
OS2TypoAOffset: 0
OS2TypoDescent: -502
OS2TypoDOffset: 0
OS2TypoLinegap: 83
OS2WinAscent: 947
OS2WinAOffset: 0
OS2WinDescent: 313
OS2WinDOffset: 0
HheadAscent: 658
HheadAOffset: 0
HheadDescent: -198
HheadDOffset: 0
OS2SubXSize: 700
OS2SubYSize: 650
OS2SubXOff: 0
OS2SubYOff: 143
OS2SupXSize: 700
OS2SupYSize: 650
OS2SupXOff: 0
OS2SupYOff: 453
OS2StrikeYSize: 50
OS2StrikeYPos: 259
OS2CapHeight: 772
OS2XHeight: 549
OS2Vendor: 'Alts'
OS2CodePages: 00000001.00000000
OS2UnicodeRanges: 00000000.00000000.00000000.00000000
Lookup: 6 0 0 "'calt' Kontextuelle Alternativen in Lateinisch Nachschlagetabelle 0" { "'calt' Kontextuelle Alternativen in Lateinisch Nachschlagetabelle 0 Subtabelle"  } ['calt' ('DFLT' <'dflt' > 'latn' <'dflt' > ) ]
Lookup: 5 0 0 "'calt' Kontextuelle Alternativen in Lateinisch Nachschlagetabelle 1" { "'calt' Kontextuelle Alternativen in Lateinisch Nachschlagetabelle 1 Subtabelle"  } ['calt' ('DFLT' <'dflt' > 'latn' <'dflt' > ) ]
Lookup: 5 0 0 "'calt' Kontextuelle Alternativen in Lateinisch Nachschlagetabelle 2" { "'calt' Kontextuelle Alternativen in Lateinisch Nachschlagetabelle 2 Subtabelle"  } ['calt' ('DFLT' <'dflt' > 'latn' <'dflt' > ) ]
Lookup: 1 0 0 "Einzelne Substitution Nachschlagetabelle 3" { "Einzelne Substitution Nachschlagetabelle 3 Subtabelle"  } []

StartChar: .notdef
Encoding: 65536 -1 0
Width: 500
GlyphClass: 1
Flags: MW
HStem: 0 62<125 375 125 438> 604 63<125 375 125 125>
VStem: 62 63<62 62 62 604> 375 63<62 604 604 604>
LayerCount: 2
Fore
SplineSet
62 0 m 1
 62 667 l 1
 438 667 l 1
 438 0 l 1
 62 0 l 1
125 62 m 1
 375 62 l 1
 375 604 l 1
 125 604 l 1
 125 62 l 1
EndSplineSet
Validated: 1
EndChar

StartChar: exclam
Encoding: 33 33 2
Width: 340
GlyphClass: 2
Flags: MW
HStem: -26 21G<162 164>
VStem: 119 90<643.5 663.5 643 664>
LayerCount: 2
Fore
SplineSet
208 624 m 2
 178 222 l 2
 177 209 172 203 164 203 c 0
 155 203 151 209 150 222 c 2
 120 624 l 2
 119 632 119 640 119 647 c 0
 119 681 134 698 164 698 c 0
 194 698 209 681 209 646 c 0
 209 640 209 632 208 624 c 2
90 58 m 0
 121 66 143 89 156 125 c 0
 159 126 161 127 163 127 c 0
 165 127 167 126 170 125 c 0
 183 89 205 66 236 58 c 0
 238 54 239 52 239 50 c 0
 239 49 238 46 236 43 c 0
 205 35 183 12 170 -24 c 0
 167 -25 165 -26 163 -26 c 0
 161 -26 159 -25 156 -24 c 0
 143 12 121 35 90 43 c 0
 88 46 87 49 87 50 c 0
 87 52 88 54 90 58 c 0
EndSplineSet
Validated: 1
EndChar

StartChar: quotedbl
Encoding: 34 34 3
Width: 393
GlyphClass: 2
Flags: MW
HStem: 721 20G<146 153.5>
VStem: 45 312
LayerCount: 2
Fore
SplineSet
151 741 m 0
 156 741 159 735 159 724 c 0
 159 710 158 695 156 678 c 2
 144 571 l 2
 141 537 138 504 136 470 c 1
 127 423 110 399 83 399 c 0
 71 399 62 403 55 412 c 0
 48 420 44 430 45 442 c 0
 46 458 50 479 60 504 c 0
 67 524 76 552 88 589 c 0
 120 691 141 741 151 741 c 0
349 740 m 0
 354 740 357 735 357 724 c 0
 357 715 355 699 351 675 c 2
 316 459 l 2
 309 420 293 400 267 400 c 0
 241 400 228 413 228 439 c 0
 228 454 234 476 246 506 c 2
 277 587 l 2
 317 689 341 740 349 740 c 0
EndSplineSet
Validated: 33
EndChar

StartChar: percent
Encoding: 37 37 4
Width: 604
GlyphClass: 2
Flags: MW
HStem: -21 20<395.5 436.5 395.5 437> 300 20<395.5 436.5> 384 20<151 192.5 151 193> 704 20<151 192.5>
VStem: 29 82<505 576> 233 82<532.5 576 532.5 603 532.5 636.5> 273 82<127.5 171> 477 82<127.5 171 127.5 199 127.5 232.5>
LayerCount: 2
Fore
SplineSet
514 738 m 1xf9
 544 718 l 1
 74 -24 l 1
 43 -4 l 1
 514 738 l 1xf9
172 724 m 0
 214 724 249 706 277 669 c 0
 302 636 315 598 315 554 c 0xfd
 315 511 302 472 277 438 c 0
 249 402 214 384 172 384 c 0
 130 384 95 402 67 438 c 0
 42 472 29 511 29 554 c 0
 29 598 42 636 67 669 c 0
 95 706 130 724 172 724 c 0
172 704 m 0
 130 704 110 670 111 603 c 2
 112 554 l 1
 111 505 l 2
 110 438 130 404 172 404 c 0
 213 404 233 438 233 505 c 2
 233 603 l 2
 233 670 213 704 172 704 c 0
416 320 m 0
 458 320 493 302 521 265 c 0
 546 232 559 193 559 149 c 0
 559 106 546 67 521 34 c 0
 493 -3 458 -21 416 -21 c 0
 374 -21 339 -3 311 34 c 0
 286 67 273 106 273 149 c 0xfb
 273 193 286 232 311 265 c 0
 339 302 374 320 416 320 c 0
416 300 m 0
 375 300 355 266 355 199 c 2
 355 101 l 2
 355 33 375 -1 416 -1 c 0
 457 -1 477 33 477 101 c 2
 477 199 l 2
 477 266 457 300 416 300 c 0
EndSplineSet
Validated: 33
EndChar

StartChar: ampersand
Encoding: 38 38 5
Width: 750
GlyphClass: 2
Flags: MW
HStem: -27 65<199 298> -22 53<518.5 529> 452 26<459 460> 679 38<326.5 349.5>
VStem: 61 97<129.5 235> 202 69<510 608> 420 22<578.5 607.5> 646 27<167 167>
LayerCount: 2
Fore
SplineSet
243 348 m 1x3f
 186 310 158 263 158 207 c 0
 158 165 168 128 189 95 c 0
 213 57 245 38 285 38 c 0
 311 38 337 51 363 77 c 1
 312 174 271 264 243 348 c 1x3f
311 435 m 1
 347 462 372 485 386 503 c 0
 409 531 420 562 420 595 c 0
 420 620 412 641 397 656 c 0
 382 671 362 679 337 679 c 0
 316 679 299 671 287 653 c 0
 276 638 271 619 271 597 c 0
 271 558 284 504 311 435 c 1
318 407 m 1
 348 332 l 2
 377 260 403 198 428 145 c 1
 503 232 541 316 541 397 c 0
 541 430 522 448 484 450 c 2
 460 452 l 2
 452 452 447 456 447 461 c 2
 447 462 l 1
 448 469 l 2
 448 475 452 478 459 478 c 2
 511 478 l 1
 577 479 l 2
 596 479 620 479 648 480 c 2
 691 482 l 2
 704 482 711 478 711 471 c 0
 711 460 700 453 679 452 c 0
 642 449 620 444 612 438 c 0
 603 432 592 413 580 380 c 0
 550 301 503 216 439 125 c 1
 467 62 500 31 537 31 c 0
 597 31 633 76 646 167 c 0
 649 175 653 179 659 179 c 0
 669 179 674 175 673 167 c 0
 673 166 673 164 672 162 c 0
 664 112 646 71 621 38 c 0
 590 -2 552 -22 506 -22 c 0x7f
 460 -22 416 5 375 59 c 1
 344 29 322 9 307 -1 c 0
 280 -18 252 -27 222 -27 c 0xbf
 176 -27 137 -8 105 29 c 0
 76 65 61 106 61 153 c 0
 61 195 72 230 93 260 c 0
 109 282 137 307 177 336 c 2
 231 378 l 1
 212 440 202 491 202 529 c 0
 202 575 214 616 236 653 c 0
 263 695 298 717 341 717 c 0
 371 717 396 705 415 681 c 0
 433 659 442 633 442 602 c 0
 442 553 424 509 387 469 c 0
 360 440 337 419 318 407 c 1
EndSplineSet
Validated: 1
EndChar

StartChar: quotesingle
Encoding: 39 39 6
Width: 226
GlyphClass: 2
Flags: MW
HStem: 431 309
VStem: 107 56<549.5 648.5>
LayerCount: 2
Fore
SplineSet
42 668 m 0
 57 682 68 700 74 720 c 0
 76 723 78 730 81 740 c 0
 82 741 83 742 84 742 c 0
 85 742 86 741 88 740 c 0
 138 709 163 671 163 626 c 0
 163 596 156 564 141 531 c 0
 126 497 107 471 84 452 c 0
 68 438 57 431 50 431 c 0
 44 431 41 434 41 439 c 0
 55 453 72 474 93 503 c 0
 102 522 107 541 107 558 c 0
 107 600 85 635 41 662 c 0
 40 664 40 665 40 666 c 0
 40 667 41 667 42 668 c 0
EndSplineSet
Validated: 1
EndChar

StartChar: parenleft
Encoding: 40 40 7
Width: 411
GlyphClass: 2
Flags: MW
VStem: 83 91<226.5 299>
LayerCount: 2
Fore
SplineSet
333 738 m 0
 341 737 345 733 345 727 c 0
 345 721 340 715 331 708 c 0
 294 680 266 652 247 625 c 0
 198 554 174 434 174 263 c 0
 174 92 198 -28 247 -99 c 0
 266 -126 294 -153 331 -182 c 0
 340 -190 345 -196 345 -201 c 0
 345 -208 341 -212 333 -212 c 0
 319 -211 296 -194 263 -161 c 0
 211 -107 168 -42 134 35 c 0
 100 114 83 190 83 263 c 0
 83 335 100 411 135 491 c 0
 168 568 211 633 263 687 c 0
 297 722 321 739 333 738 c 0
EndSplineSet
Validated: 33
EndChar

StartChar: parenright
Encoding: 41 41 8
Width: 412
GlyphClass: 2
Flags: MW
VStem: 223 91<226.5 299.5 226.5 348.5>
LayerCount: 2
Fore
SplineSet
63 738 m 0
 75 739 98 722 133 687 c 0
 186 633 229 568 262 491 c 0
 297 412 314 336 314 263 c 0
 314 190 297 114 262 35 c 0
 229 -42 186 -107 133 -161 c 0
 100 -194 77 -211 63 -212 c 0
 56 -212 52 -208 52 -201 c 0
 52 -196 56 -190 66 -182 c 0
 104 -153 132 -125 150 -99 c 0
 198 -29 223 92 223 263 c 0
 223 434 198 554 149 625 c 0
 130 652 102 680 66 708 c 0
 56 715 52 721 52 727 c 0
 52 733 56 737 63 738 c 0
EndSplineSet
Validated: 33
EndChar

StartChar: asterisk
Encoding: 42 42 9
Width: 412
GlyphClass: 2
Flags: MW
HStem: 545 68<60.5 78> 720 20G<259.5 272.5>
VStem: 108 61 236 67<700.5 713> 242 74
LayerCount: 2
Fore
SplineSet
206 566 m 1xe8
 203 566 l 1
 195 527 184 483 169 433 c 0
 165 425 155 421 141 421 c 0
 132 421 125 424 118 431 c 0
 112 438 108 446 108 455 c 0
 108 471 124 494 154 523 c 0
 168 537 183 553 197 570 c 1
 195 572 l 1
 177 570 160 566 145 562 c 0
 107 550 83 545 73 545 c 0
 46 545 32 556 32 578 c 0
 32 601 46 613 75 613 c 0
 87 613 105 609 131 600 c 2
 194 579 l 1
 197 582 l 1
 184 598 173 610 163 619 c 2
 129 651 l 2
 110 669 100 685 100 697 c 0
 100 706 104 714 111 721 c 0
 118 728 126 731 135 731 c 0
 155 731 171 704 183 651 c 0
 188 631 194 610 203 589 c 1
 206 588 l 1
 209 598 214 613 218 634 c 2
 236 713 l 2
 240 731 251 740 268 740 c 0
 277 740 285 737 292 730 c 0
 300 724 303 715 303 706 c 0
 303 695 289 673 262 642 c 0
 247 626 231 606 212 583 c 1
 214 580 l 1
 236 586 l 2xf0
 253 592 268 596 281 601 c 0
 308 610 327 615 336 615 c 0
 361 615 374 603 374 579 c 0
 374 569 370 561 363 554 c 0
 356 547 348 544 338 544 c 0
 330 544 319 546 305 550 c 0
 300 552 285 556 258 562 c 0
 250 565 236 569 215 574 c 1
 213 572 l 1
 235 550 l 1
 271 518 l 2
 301 490 316 470 316 457 c 0
 316 448 313 440 305 433 c 0
 298 425 290 422 281 422 c 0
 262 422 249 435 242 462 c 0
 238 477 233 494 226 511 c 2
 206 566 l 1xe8
EndSplineSet
Validated: 1
EndChar

StartChar: plus
Encoding: 43 43 10
Width: 705
GlyphClass: 2
Flags: MW
HStem: 225 45<62 323 62 323 368 628> 510 20G<323 368 368 368>
VStem: 323 45<-36 225 -36 225 270 530>
LayerCount: 2
Fore
SplineSet
323 530 m 1
 368 530 l 1
 368 270 l 1
 628 270 l 1
 628 225 l 1
 368 225 l 1
 368 -36 l 1
 323 -36 l 1
 323 225 l 1
 62 225 l 1
 62 270 l 1
 323 270 l 1
 323 530 l 1
EndSplineSet
Validated: 1
EndChar

StartChar: comma
Encoding: 44 44 11
Width: 191
GlyphClass: 2
Flags: MW
HStem: -241 21G<28.5 34>
VStem: 64 88<40 73>
LayerCount: 2
Fore
SplineSet
114 99 m 0
 139 99 152 86 152 60 c 0
 152 46 146 23 134 -7 c 2
 103 -90 l 2
 88 -129 75 -160 65 -184 c 2
 49 -219 l 2
 43 -234 37 -241 31 -241 c 0
 26 -241 23 -236 23 -225 c 0
 23 -216 25 -200 29 -176 c 2
 46 -70 l 1
 64 40 l 2
 70 79 87 99 114 99 c 0
EndSplineSet
Validated: 1
EndChar

StartChar: hyphen
Encoding: 45 45 12
AltUni2: 002010.ffffffff.0 002010.ffffffff.0
Width: 338
GlyphClass: 2
Flags: MW
HStem: 83 275<44 292>
VStem: 44 248<83 211>
LayerCount: 2
Fore
SplineSet
292 211 m 1
 293 159 l 1
 44 83 l 1
 43 135 l 1
 292 211 l 1
292 358 m 1
 292 306 l 1
 43 230 l 1
 43 282 l 1
 292 358 l 1
EndSplineSet
Validated: 1
EndChar

StartChar: period
Encoding: 46 46 13
Width: 230
GlyphClass: 2
Flags: MW
HStem: -33 107<101.5 115.5 100.5 116>
VStem: 54 107<14 27>
LayerCount: 2
Fore
SplineSet
108 74 m 0
 123 74 136 69 146 59 c 0
 156 49 161 36 161 21 c 0
 161 7 156 -6 146 -17 c 0
 135 -28 123 -33 109 -33 c 0
 94 -33 81 -28 70 -18 c 0
 60 -8 54 4 54 19 c 0
 54 35 59 48 70 58 c 0
 80 69 93 74 108 74 c 0
EndSplineSet
Validated: 1
EndChar

StartChar: slash
Encoding: 47 47 14
Width: 323
GlyphClass: 2
Flags: MW
HStem: 724 20G<225 225>
VStem: 45 218
LayerCount: 2
Fore
SplineSet
263 737 m 1
 83 -126 l 1
 45 -120 l 1
 225 744 l 1
 263 737 l 1
EndSplineSet
Validated: 1
EndChar

StartChar: zero
Encoding: 48 48 15
Width: 561
GlyphClass: 2
Flags: MW
HStem: -16 23<246 294> 673 23<252 300>
VStem: 40 100<301 370> 406 100<310 373 310 379>
LayerCount: 2
Fore
SplineSet
273 696 m 0
 363 696 430 639 473 525 c 0
 495 468 506 406 506 340 c 0
 506 280 497 223 479 169 c 0
 457 106 426 58 386 25 c 0
 353 -2 315 -16 273 -16 c 0
 195 -16 135 26 92 110 c 0
 57 178 40 255 40 340 c 0
 40 400 49 457 67 511 c 0
 89 575 120 623 160 655 c 0
 194 682 231 696 273 696 c 0
273 673 m 0
 219 673 181 627 160 537 c 0
 147 483 140 417 140 340 c 0
 140 262 146 196 159 143 c 0
 181 52 219 7 273 7 c 0
 327 7 365 52 387 143 c 0
 400 196 406 262 406 340 c 0
 406 418 400 483 387 537 c 0
 365 628 327 673 273 673 c 0
EndSplineSet
Validated: 1
EndChar

StartChar: one
Encoding: 49 49 16
Width: 457
GlyphClass: 2
Flags: MW
HStem: 0 23<90 91 91 142 142 158.5 335 387> 597 27 689 20G<233 289 289 289>
VStem: 192 97<62 70>
LayerCount: 2
Fore
SplineSet
289 709 m 1
 289 71 l 2
 289 53 292 41 299 34 c 0
 306 27 318 23 335 23 c 2
 387 23 l 2
 397 23 402 19 402 11 c 0
 402 4 397 0 387 0 c 2
 91 0 l 2
 80 0 75 4 75 13 c 0
 75 20 80 23 90 23 c 2
 142 23 l 2
 175 23 192 39 192 70 c 2
 193 557 l 2
 193 569 188 578 179 586 c 0
 170 593 159 597 146 597 c 2
 116 597 l 1
 64 598 l 2
 48 598 40 602 40 611 c 0
 40 620 47 624 62 624 c 2
 79 624 l 2
 86 624 100 625 121 626 c 0
 154 628 179 635 195 646 c 0
 210 657 223 678 233 709 c 1
 289 709 l 1
EndSplineSet
Validated: 1
EndChar

StartChar: two
Encoding: 50 50 17
Width: 562
GlyphClass: 2
Flags: MW
HStem: 0 93<66 118> 401 121<104.5 152.5> 689 26<217 251.5>
VStem: 40 38<558.5 571> 385 103<484 531>
LayerCount: 2
Fore
SplineSet
118 93 m 1
 394 92 l 2
 423 92 441 100 448 115 c 0
 457 133 465 160 472 197 c 0
 479 232 485 250 492 250 c 0
 502 250 507 246 507 237 c 2
 497 187 l 1
 478 88 l 2
 473 60 469 38 467 21 c 0
 466 11 462 4 454 0 c 1
 255 3 l 1
 66 0 l 1
 77 111 135 207 241 286 c 0
 291 324 325 355 343 378 c 0
 371 414 385 456 385 505 c 0
 385 557 372 600 345 634 c 0
 316 671 277 689 226 689 c 0
 189 689 156 677 126 654 c 0
 94 629 78 599 78 563 c 0
 78 554 81 545 86 536 c 0
 93 527 100 522 109 522 c 0
 115 522 123 524 133 527 c 0
 143 531 151 532 157 532 c 0
 174 532 187 526 198 513 c 0
 209 500 214 485 214 468 c 0
 214 449 207 433 193 420 c 0
 178 407 162 401 143 401 c 0
 111 401 85 418 65 451 c 0
 48 479 40 511 40 545 c 0
 40 597 62 639 104 671 c 0
 144 700 190 715 244 715 c 0
 319 715 382 693 431 648 c 0
 469 614 488 568 488 510 c 0
 488 458 472 413 439 375 c 0
 414 345 375 316 321 287 c 0
 261 255 220 229 199 210 c 0
 165 181 138 142 118 93 c 1
EndSplineSet
Validated: 1
EndChar

StartChar: three
Encoding: 51 51 18
Width: 544
GlyphClass: 2
Flags: MW
HStem: -15 22<222.5 250 220.5 279> 350 62<126 145.5> 375 27<230.5 254.5> 511 21G<148.5 165.5> 690 21<243.5 270.5>
VStem: 40 89<60.5 143> 89 68<575.5 643> 376 93<523 564> 383 106<166 215.5 160.5 239.5>
LayerCount: 2
Fore
SplineSet
312 391 m 1xbb
 369 374 410 352 436 324 c 0
 471 285 489 240 489 191 c 0
 489 130 464 80 412 41 c 0
 365 3 310 -15 248 -15 c 0
 197 -15 151 -3 111 20 c 0
 64 48 40 86 40 133 c 0
 40 153 47 170 60 184 c 0
 73 198 90 205 110 205 c 0
 127 205 141 200 153 189 c 0
 165 178 171 164 171 147 c 0
 171 127 165 111 152 99 c 2
 133 81 l 2
 130 78 129 74 129 70 c 0
 129 51 142 35 167 22 c 0
 189 12 210 7 231 7 c 0
 269 7 302 18 330 41 c 0
 365 70 383 125 383 207 c 0
 383 272 367 317 335 341 c 0
 306 364 273 375 236 375 c 0xbc80
 218 375 191 369 156 356 c 0
 145 352 137 350 130 350 c 0
 122 350 115 353 108 358 c 0
 101 364 98 371 98 379 c 0
 98 389 103 397 112 403 c 0
 120 409 130 412 140 412 c 0xdc80
 151 412 166 410 188 407 c 0
 209 404 225 402 236 402 c 0
 281 402 315 414 339 440 c 0
 364 465 376 500 376 544 c 0
 376 584 365 618 344 646 c 0
 321 675 290 690 251 690 c 0
 232 690 213 685 193 676 c 0
 169 665 157 651 157 635 c 0
 157 629 167 621 185 611 c 0
 204 600 213 585 213 566 c 0
 213 551 208 538 197 527 c 0
 186 517 173 511 158 511 c 0
 139 511 122 519 109 534 c 0
 96 549 89 566 89 585 c 0
 89 627 109 659 149 682 c 0
 182 701 221 711 266 711 c 0
 320 711 367 697 405 670 c 0
 448 639 469 598 469 545 c 0
 469 501 453 466 422 438 c 0
 394 414 357 398 312 391 c 1xbb
EndSplineSet
Validated: 1
EndChar

StartChar: four
Encoding: 52 52 19
Width: 571
GlyphClass: 2
Flags: MW
HStem: 0 23<171 227 176 227 227 238.5 451 502> 207 46<72 72 72 290 40 72> 691 20G<319 387 387 387>
VStem: 290 97<72 207 207 207>
LayerCount: 2
Fore
SplineSet
289 611 m 1
 72 253 l 1
 290 251 l 1
 289 611 l 1
290 207 m 1
 40 207 l 1
 41 251 l 1
 319 711 l 1
 387 711 l 1
 387 253 l 1
 516 253 l 1
 516 208 l 1
 387 208 l 1
 387 71 l 2
 387 53 393 39 405 30 c 0
 412 25 427 23 451 23 c 2
 503 23 l 2
 513 23 518 19 518 11 c 0
 518 4 513 0 502 0 c 2
 176 0 l 2
 166 0 160 4 160 12 c 0
 160 19 165 23 176 23 c 2
 227 23 l 2
 250 23 266 25 274 30 c 0
 285 37 290 51 290 72 c 2
 290 207 l 1
EndSplineSet
Validated: 1
EndChar

StartChar: five
Encoding: 53 53 20
Width: 525
GlyphClass: 2
Flags: MW
HStem: -14 24<203 241.5 203 251> 455 25<229.5 254.5> 604 66<224.5 244> 692 20G<353.5 359>
VStem: 40 74<63.5 138.5> 62 48<322 322 322 323> 91 26<531.5 554.5> 374 96<226.5 272.5 220.5 284.5>
LayerCount: 2
Fore
SplineSet
113 641 m 1xf5
 116 600 117 569 117 546 c 0xf3
 117 517 115 475 109 419 c 1
 132 442 153 457 170 465 c 0
 190 475 215 480 244 480 c 0
 311 480 365 456 408 409 c 0
 450 363 470 306 470 239 c 0
 470 202 463 166 448 131 c 0
 432 95 410 66 382 44 c 0
 333 5 280 -14 222 -14 c 0
 179 -14 139 -1 102 25 c 0
 61 54 40 89 40 130 c 0
 40 147 45 161 56 174 c 0
 66 187 80 193 96 193 c 0
 132 193 150 176 150 143 c 0
 150 126 144 111 132 97 c 0
 120 83 114 75 114 73 c 0xf9
 114 54 127 39 151 26 c 0
 172 15 193 10 213 10 c 0
 270 10 312 39 341 97 c 0
 363 142 374 195 374 258 c 0
 374 311 363 355 342 391 c 0
 317 434 279 455 230 455 c 0
 201 455 175 447 153 431 c 0
 128 413 115 390 113 362 c 2
 110 322 l 2
 109 303 100 293 85 293 c 0
 70 293 62 302 62 320 c 0xf5
 62 326 64 336 68 349 c 0
 83 401 91 467 91 546 c 0xf3
 91 563 90 597 87 646 c 2
 86 678 l 2
 85 692 85 698 85 696 c 1
 85 707 88 713 95 713 c 0
 98 713 103 711 110 708 c 0
 163 683 207 670 242 670 c 0
 295 670 329 681 344 703 c 0
 348 709 352 712 355 712 c 0
 363 712 366 709 366 703 c 0
 366 691 358 676 341 657 c 0
 309 622 268 604 220 604 c 0
 186 604 150 616 113 641 c 1xf5
EndSplineSet
Validated: 5
EndChar

StartChar: six
Encoding: 54 54 21
Width: 545
GlyphClass: 2
Flags: MW
HStem: -15 25<251.5 293 251.5 304> 394 38<267.5 304.5> 680 22<287.5 311>
VStem: 40 98<382 387.5> 390 87<558 630.5> 393 98<189.5 249 185.5 252.5>
LayerCount: 2
Fore
SplineSet
282 394 m 0xf4
 235 394 200 371 176 326 c 0
 157 290 147 246 147 195 c 0
 147 148 156 107 174 73 c 0
 197 31 230 10 273 10 c 0
 313 10 344 30 367 70 c 0
 384 100 393 152 393 227 c 0
 393 278 387 316 375 341 c 0
 359 376 327 394 282 394 c 0xf4
142 312 m 1
 176 392 230 432 305 432 c 0
 363 432 409 411 443 368 c 0
 475 328 491 279 491 219 c 0xf4
 491 152 471 96 432 53 c 0
 391 7 337 -15 271 -15 c 0
 191 -15 130 24 89 101 c 0
 56 163 40 237 40 324 c 0
 40 451 73 550 140 622 c 0
 189 675 247 702 311 702 c 0
 356 702 394 691 425 669 c 0
 460 645 477 611 477 568 c 0
 477 548 472 531 462 517 c 0
 451 500 435 492 417 492 c 0
 400 492 387 498 376 510 c 0
 366 521 361 536 361 552 c 0
 361 569 366 584 377 597 c 0
 386 608 390 616 390 622 c 0xf8
 390 639 379 654 358 666 c 0
 340 675 321 680 301 680 c 0
 274 680 249 671 225 654 c 0
 202 637 184 616 172 591 c 0
 149 544 138 477 138 390 c 0
 138 374 139 348 142 312 c 1
EndSplineSet
Validated: 1
EndChar

StartChar: seven
Encoding: 55 55 22
Width: 530
GlyphClass: 2
Flags: MW
HStem: -5 21G<258.5 288.5> 603 95<101 140 101 434>
VStem: 202 117<99 195>
LayerCount: 2
Fore
SplineSet
476 701 m 1
 468 618 437 519 383 403 c 0
 340 312 319 230 319 160 c 0
 319 148 320 134 321 117 c 0
 323 96 324 81 324 72 c 0
 324 21 306 -5 271 -5 c 0
 246 -5 228 10 216 39 c 0
 207 60 202 85 202 113 c 0
 202 186 226 255 272 322 c 2
 345 425 l 2
 389 487 418 546 434 603 c 1
 140 603 l 2
 124 603 113 602 107 599 c 0
 99 595 94 586 91 573 c 2
 69 459 l 2
 67 447 61 441 52 441 c 0
 44 441 40 445 40 454 c 0
 40 458 41 464 43 471 c 0
 52 505 62 564 72 648 c 0
 76 682 85 699 101 698 c 2
 271 696 l 1
 476 701 l 1
EndSplineSet
Validated: 33
EndChar

StartChar: eight
Encoding: 56 56 23
Width: 554
GlyphClass: 2
Flags: MW
HStem: -15 22<246.5 291.5 246.5 291.5> 681 25<253.5 292.5>
VStem: 40 65<153.5 192.5> 66 60<526.5 545.5> 421 57<527 552> 430 69<161 180>
LayerCount: 2
Fore
SplineSet
371 377 m 1xd8
 413 353 444 328 463 304 c 0
 487 273 499 237 499 193 c 0
 499 129 474 77 425 38 c 0
 380 3 325 -15 258 -15 c 0
 188 -15 133 6 93 49 c 0
 58 86 40 127 40 171 c 0xe4
 40 214 58 255 94 294 c 0
 108 309 134 329 172 352 c 1
 136 375 109 397 94 419 c 0
 75 446 66 479 66 518 c 0
 66 573 86 618 126 654 c 0
 165 689 213 706 269 706 c 0
 319 706 365 691 407 662 c 0
 454 630 478 589 478 542 c 0
 478 512 471 486 456 463 c 0
 445 445 426 425 399 402 c 2
 371 377 l 1xd8
341 389 m 1
 394 433 421 480 421 531 c 0
 421 573 406 608 377 637 c 0
 348 667 313 681 272 681 c 0
 235 681 201 669 172 646 c 0
 141 621 126 590 126 554 c 0xd8
 126 499 174 453 271 416 c 2
 341 389 l 1
203 340 m 1
 138 301 105 246 105 177 c 0
 105 130 121 90 152 58 c 0
 184 24 223 7 270 7 c 0
 313 7 350 22 382 51 c 0
 414 80 430 117 430 160 c 0xe4
 430 200 411 233 374 261 c 0
 355 274 318 292 264 314 c 2
 203 340 l 1
EndSplineSet
Validated: 1
EndChar

StartChar: nine
Encoding: 57 57 24
Width: 546
GlyphClass: 2
Flags: MW
HStem: -14 22<216.5 239.5 216.5 252> 256 36<226 263.5> 680 23<227.5 281>
VStem: 40 98<439 502.5> 54 87<66 130.5> 392 99<300.5 313.5>
LayerCount: 2
Fore
SplineSet
259 680 m 0xf4
 179 680 138 608 138 463 c 0
 138 411 144 372 155 347 c 0
 172 310 203 292 249 292 c 0
 296 292 331 315 355 362 c 0
 375 398 384 443 384 495 c 0
 384 543 376 583 358 617 c 0
 336 659 303 680 259 680 c 0xf4
389 376 m 1
 355 296 301 256 226 256 c 0
 168 256 122 277 87 320 c 0
 56 360 40 409 40 469 c 0xf4
 40 536 60 592 100 635 c 0
 140 681 194 703 261 703 c 0
 340 703 400 664 441 587 c 0
 475 525 491 450 491 364 c 0
 491 237 458 138 392 66 c 0
 341 13 284 -14 220 -14 c 0
 175 -14 137 -3 106 19 c 0
 71 43 54 77 54 121 c 0
 54 140 59 158 69 172 c 0
 81 188 96 197 115 197 c 0
 131 197 144 191 155 179 c 0
 165 167 170 153 170 136 c 0
 170 119 165 104 154 91 c 0
 146 82 141 73 141 66 c 0xec
 140 49 150 34 171 22 c 0
 188 13 207 8 226 8 c 0
 253 8 278 17 303 34 c 0
 325 51 343 72 355 97 c 0
 380 147 392 216 392 306 c 0
 392 321 391 345 389 376 c 1
EndSplineSet
Validated: 33
EndChar

StartChar: colon
Encoding: 58 58 25
Width: 340
GlyphClass: 2
Flags: MW
HStem: -22 21G<167.5 169>
VStem: 95 149
LayerCount: 2
Fore
SplineSet
95 395 m 0
 126 404 148 426 161 462 c 0
 164 464 166 465 168 465 c 0
 170 465 172 464 175 462 c 0
 188 426 210 404 241 395 c 0
 243 392 244 389 244 388 c 0
 244 386 243 384 241 380 c 0
 210 372 188 350 175 313 c 0
 172 312 170 311 168 311 c 0
 166 311 164 312 161 313 c 0
 148 349 126 372 95 380 c 0
 93 384 92 386 92 388 c 0
 92 389 93 392 95 395 c 0
95 62 m 0
 126 70 148 93 161 129 c 0
 164 130 167 131 168 131 c 0
 170 131 173 130 176 129 c 0
 189 93 211 70 242 62 c 0
 244 58 245 56 245 54 c 0
 244 53 243 50 242 47 c 0
 211 39 189 16 176 -20 c 0
 173 -21 170 -22 168 -22 c 0
 167 -22 164 -21 161 -20 c 0
 148 16 126 39 95 47 c 0
 94 51 93 53 93 54 c 0
 93 56 94 58 95 62 c 0
EndSplineSet
Validated: 1
EndChar

StartChar: semicolon
Encoding: 59 59 26
Width: 222
GlyphClass: 2
Flags: MW
VStem: 110 58<-59.5 28>
LayerCount: 2
Fore
SplineSet
53 68 m 0
 76 85 95 102 108 121 c 0
 109 122 110 122 111 122 c 0
 112 122 113 121 114 120 c 0
 150 78 168 43 168 13 c 0
 168 -15 160 -46 145 -80 c 0
 129 -113 111 -139 89 -157 c 0
 73 -170 62 -177 55 -177 c 0
 48 -177 45 -174 45 -169 c 0
 45 -168 52 -160 67 -144 c 0
 84 -127 94 -115 98 -107 c 0
 106 -88 110 -69 110 -50 c 0
 110 -24 98 4 75 34 c 2
 52 62 l 2
 51 64 51 65 51 65 c 2
 51 66 52 67 53 68 c 0
39 397 m 0
 70 406 92 428 105 465 c 0
 108 466 111 467 112 467 c 0
 114 467 116 466 120 465 c 0
 132 428 154 406 186 397 c 0
 187 394 188 392 188 390 c 0
 188 389 187 386 186 383 c 0
 155 374 133 352 120 315 c 0
 116 314 114 313 112 313 c 0
 111 313 108 314 105 315 c 0
 92 352 70 374 39 383 c 0
 37 386 36 389 36 390 c 0
 36 392 37 394 39 397 c 0
EndSplineSet
Validated: 1
EndChar

StartChar: equal
Encoding: 61 61 27
Width: 681
GlyphClass: 2
Flags: MW
HStem: 228 42<52 618 52 618> 372 42<52 618 52 618>
LayerCount: 2
Fore
SplineSet
52 270 m 1
 618 270 l 1
 618 228 l 1
 52 228 l 1
 52 270 l 1
52 414 m 1
 618 414 l 1
 618 372 l 1
 52 372 l 1
 52 414 l 1
EndSplineSet
Validated: 1
EndChar

StartChar: question
Encoding: 63 63 28
Width: 508
GlyphClass: 2
Flags: MW
HStem: -26 21G<257 258.5> 168 25<267 282> 473 80<136 155> 675 17<222.5 248>
VStem: 87 37<535 597.5> 156 47<264.5 280 257.5 301.5> 343 19 345 62<543.5 548.5 514 578>
LayerCount: 2
Fore
SplineSet
349 326 m 0xfe
 357 326 362 311 362 280 c 0xfe
 362 249 354 223 338 202 c 0
 321 179 297 168 267 168 c 0
 236 168 210 179 188 201 c 0
 167 222 156 249 156 280 c 0
 156 323 177 363 220 399 c 2
 299 467 l 2
 330 493 345 525 345 562 c 0
 345 594 334 620 312 642 c 0
 291 664 264 675 232 675 c 0
 205 675 181 667 159 650 c 0
 136 633 124 611 124 584 c 0
 124 569 130 560 142 557 c 2
 155 553 l 2
 174 548 184 536 184 516 c 0
 184 505 180 495 173 486 c 0
 165 478 156 473 145 473 c 0
 127 473 113 481 102 496 c 0
 92 510 87 526 87 544 c 0
 87 588 102 624 133 652 c 0
 163 679 200 692 245 692 c 0
 307 692 352 669 379 625 c 0
 397 594 407 563 407 534 c 0xfd
 407 494 390 455 356 419 c 0
 334 396 300 369 254 339 c 0
 220 317 203 293 203 267 c 0
 203 248 211 230 225 215 c 0
 240 200 257 193 277 193 c 0
 299 193 317 202 330 222 c 0
 341 239 347 259 347 282 c 1
 347 278 345 291 343 319 c 0
 343 324 345 326 349 326 c 0xfe
185 58 m 0
 215 67 237 89 250 125 c 0
 254 127 256 128 258 128 c 0
 259 128 262 127 265 125 c 0
 278 89 300 67 331 58 c 0
 333 55 334 52 334 51 c 0
 334 49 333 47 331 43 c 0
 300 35 278 13 265 -24 c 0
 262 -25 259 -26 258 -26 c 0
 256 -26 254 -25 250 -24 c 0
 237 13 215 35 185 43 c 0
 183 47 182 49 182 51 c 0
 182 52 183 55 185 58 c 0
EndSplineSet
Validated: 33
EndChar

StartChar: at
Encoding: 64 64 29
Width: 958
GlyphClass: 2
Flags: MW
HStem: -117 48<441.5 543> 97 30<359 397> 549 24<481 495 464.5 501> 741 24<475.5 578 470.5 603.5>
VStem: 35 42<264.5 338> 234 89<170.5 273> 545 71 875 24<404.5 447.5>
LayerCount: 2
Fore
SplineSet
545 218 m 1
 527 192 510 171 495 155 c 0
 460 116 420 97 374 97 c 0
 335 97 301 112 274 142 c 0
 247 171 234 208 234 251 c 0
 234 295 246 343 270 394 c 0
 296 450 328 493 366 525 c 0
 405 557 444 573 485 573 c 0
 505 573 524 568 541 557 c 0
 557 545 573 523 587 489 c 1
 608 573 l 1
 693 570 l 1
 627 265 l 2
 620 231 616 209 616 198 c 0
 616 151 638 128 680 128 c 0
 730 128 775 158 815 219 c 0
 855 280 875 349 875 426 c 0
 875 469 868 509 854 547 c 0
 806 676 693 741 514 741 c 0
 437 741 368 727 307 699 c 0
 240 669 185 618 142 547 c 0
 99 475 77 400 77 321 c 0
 77 208 117 115 198 41 c 0
 278 -32 380 -69 503 -69 c 0
 620 -69 717 -33 793 39 c 0
 822 67 844 93 859 117 c 0
 874 142 890 178 907 226 c 1
 928 210 l 1
 903 140 876 88 849 55 c 0
 826 26 796 -1 761 -27 c 0
 680 -87 591 -117 495 -117 c 0
 360 -117 250 -78 164 -1 c 0
 78 77 35 176 35 298 c 0
 35 378 57 457 101 536 c 0
 145 615 201 673 268 710 c 0
 336 747 420 765 521 765 c 0
 635 765 726 735 795 675 c 0
 864 615 899 536 899 436 c 0
 899 373 888 316 866 265 c 0
 844 213 814 172 775 142 c 0
 735 111 696 95 658 95 c 0
 633 95 610 104 587 121 c 0
 571 133 560 145 555 158 c 0
 549 171 546 191 545 218 c 1
489 549 m 0
 473 549 456 542 437 527 c 0
 418 513 404 496 394 476 c 0
 369 427 347 349 329 243 c 0
 325 223 323 206 323 192 c 0
 323 149 341 127 377 127 c 0
 427 127 472 157 510 218 c 0
 549 279 569 349 569 427 c 0
 569 463 561 492 547 515 c 0
 532 538 513 549 489 549 c 0
EndSplineSet
Validated: 1
EndChar

StartChar: A
Encoding: 65 65 30
Width: 793
GlyphClass: 2
Flags: MW
HStem: -20 72<615 671.5> 737 28<198.5 216> 742 30<724 724>
VStem: 42 49<561 654.5> 198 43<321 395.5> 348 78<459 525.5> 536 82<157 157>
LayerCount: 2
Fore
SplineSet
222 135 m 1xde
 256 119 286 99 312 74 c 2
 350 38 l 1
 536 157 l 1
 537 587 l 2
 537 624 524 661 499 699 c 0
 483 722 475 736 475 740 c 0
 475 746 479 749 485 749 c 0
 509 748 531 709 551 632 c 1
 571 686 597 724 629 744 c 0
 658 763 690 772 724 772 c 0
 738 772 745 768 746 759 c 0
 746 750 739 745 724 742 c 0xbe
 677 735 647 715 633 683 c 0
 623 662 618 624 618 569 c 2
 618 150 l 2
 618 128 621 108 628 89 c 0
 637 64 651 52 669 52 c 0
 674 52 679 53 683 56 c 2
 728 83 l 2
 730 84 733 85 735 85 c 0
 742 85 745 82 744 75 c 0
 744 69 738 63 728 57 c 0
 691 37 659 14 630 -11 c 0
 623 -17 618 -20 615 -20 c 0
 598 -21 581 1 563 46 c 0
 550 79 541 109 537 133 c 1
 356 16 l 2
 337 3 321 -9 309 -21 c 0
 307 -22 306 -23 306 -23 c 2
 305 -23 304 -23 303 -22 c 0
 243 39 182 78 118 95 c 0
 117 97 116 98 116 99 c 0
 117 100 117 102 119 104 c 0
 182 128 231 160 267 202 c 0
 293 232 313 277 329 335 c 0
 342 386 348 435 348 483 c 0
 348 568 333 632 304 676 c 0
 277 716 240 737 192 737 c 0
 165 737 141 728 121 709 c 0
 101 691 91 668 91 641 c 0
 91 616 99 591 117 566 c 0
 126 553 144 532 171 505 c 0
 218 459 241 416 241 375 c 0
 241 332 217 294 169 261 c 0
 155 251 145 246 140 246 c 0
 135 246 132 249 132 253 c 0
 132 257 134 259 139 262 c 2
 147 266 l 2
 181 283 198 306 198 336 c 0
 198 355 189 373 170 390 c 2
 120 437 l 2
 68 484 42 535 42 587 c 0
 42 639 60 681 95 715 c 0
 130 748 173 765 224 765 c 0
 359 765 426 677 426 500 c 0
 426 399 405 319 363 260 c 0
 342 231 295 189 222 135 c 1xde
EndSplineSet
Validated: 33
EndChar

StartChar: B
Encoding: 66 66 31
Width: 804
GlyphClass: 2
Flags: MW
HStem: -20 34<445.5 560.5> 145 69<124.5 189> 477 27<714 714 714 725 707 714> 753 20<187.5 235 187.5 241.5>
VStem: 42 49<572 666.5> 43 20<65.5 67 64 87> 173 52<351.5 407.5> 328 84<470 470 470 602.5> 605 81<534.5 625> 605 97<606 662.5> 679 59<153.5 267>
LayerCount: 2
Fore
SplineSet
607 473 m 1xf320
 640 450 663 429 678 408 c 0
 718 354 738 297 738 237 c 0
 738 205 731 172 717 136 c 0
 702 101 684 72 663 49 c 0
 619 3 554 -20 469 -20 c 0
 422 -20 382 -12 351 3 c 0
 327 15 295 39 253 76 c 0
 201 122 160 145 132 145 c 0
 117 145 103 139 90 126 c 0
 76 113 69 100 66 85 c 2
 63 67 l 2
 63 61 59 58 53 58 c 0
 46 59 43 62 43 69 c 0xf720
 43 105 57 138 86 168 c 0
 115 199 148 214 184 214 c 0
 194 214 209 211 228 205 c 1
 254 222 272 241 283 261 c 0
 313 318 328 406 328 527 c 0
 328 678 285 753 198 753 c 0
 169 753 144 743 123 724 c 0
 101 705 91 681 91 652 c 0
 91 612 114 568 161 518 c 0
 184 494 199 475 207 463 c 0
 219 443 225 420 225 395 c 0
 225 361 211 332 182 309 c 0
 157 289 134 279 113 279 c 0
 106 279 103 281 103 286 c 0
 103 290 111 295 127 299 c 0
 140 302 151 309 160 321 c 0
 168 332 173 345 173 358 c 0
 173 374 166 390 152 407 c 0
 148 412 135 425 113 447 c 0
 66 493 42 544 42 600 c 0
 42 651 58 692 90 724 c 0
 121 757 162 773 213 773 c 0
 257 773 293 763 321 743 c 0
 345 725 368 695 390 652 c 1
 415 734 467 775 545 775 c 0
 585 775 621 763 652 740 c 0
 685 714 702 682 702 643 c 0xfb40
 702 634 701 624 698 611 c 2
 689 575 l 2
 687 565 686 557 686 549 c 0xf380
 686 520 695 505 714 504 c 2
 738 503 l 2
 744 503 747 499 747 491 c 0
 747 482 740 477 725 477 c 2
 707 477 l 1
 682 478 l 1
 607 473 l 1xf320
683 493 m 1
 654 511 635 529 624 546 c 0
 611 565 605 590 605 622 c 0xf340
 605 628 606 636 607 646 c 0
 608 657 609 665 609 671 c 0
 609 694 599 712 581 727 c 0
 563 740 542 747 519 747 c 0
 446 747 411 700 412 606 c 2
 413 526 l 1
 412 470 l 1
 683 493 l 1
250 195 m 1
 281 174 311 150 340 123 c 0
 378 87 408 63 430 49 c 0
 467 26 503 14 539 14 c 0
 582 14 616 31 643 64 c 0
 667 95 679 132 679 175 c 0xf320
 679 245 654 310 605 370 c 0xf380
 578 403 550 425 521 437 c 0
 495 448 460 453 415 453 c 1
 411 387 397 336 373 299 c 0
 350 264 309 229 250 195 c 1
EndSplineSet
Validated: 33
EndChar

StartChar: C
Encoding: 67 67 32
Width: 715
GlyphClass: 2
Flags: MW
HStem: -21 61<395.5 439.5> 152 27<379.5 393 365.5 417.5> 648 50<527.5 599.5> 725 20G<250.5 280.5 650.5 655.5> 745 31<250.5 278.5 235.5 280.5> 746 20G
VStem: 59 90<387 459.5> 271 20<268.5 290.5> 328 62<513.5 623.5> 465 67<282.5 284.5>
LayerCount: 2
Fore
SplineSet
382 671 m 1xf7c0
 363 697 347 714 334 724 c 0
 315 738 293 745 268 745 c 0
 233 745 204 724 182 681 c 0
 160 640 149 553 149 420 c 0
 149 354 151 307 155 277 c 0
 163 222 179 178 204 145 c 0
 228 112 259 86 297 68 c 0
 335 49 375 40 416 40 c 0
 476 40 534 61 589 102 c 0
 620 124 640 144 648 160 c 0
 652 167 657 171 661 171 c 0
 668 171 671 168 671 162 c 0
 671 152 660 132 639 104 c 0
 574 21 491 -21 388 -21 c 0
 271 -21 185 21 129 104 c 0
 83 174 59 271 59 394 c 0
 59 525 79 622 119 683 c 0
 159 745 207 776 264 776 c 0xf3c0
 293 776 319 766 341 748 c 0
 355 735 373 713 394 682 c 1
 422 714 453 742 487 766 c 1
 520 721 553 698 587 698 c 0
 612 698 629 709 638 730 c 0
 643 740 648 745 653 745 c 0
 658 745 661 742 661 737 c 0
 661 728 655 715 642 699 c 0
 615 665 582 648 544 648 c 0
 511 648 476 667 439 705 c 1
 407 676 390 643 390 604 c 0
 390 577 398 551 415 524 c 0
 420 516 437 493 467 455 c 0
 511 400 532 349 532 302 c 0
 532 263 520 229 495 199 c 0
 469 168 437 152 398 152 c 0
 361 152 330 164 306 190 c 0
 283 215 271 246 271 284 c 0
 271 297 273 312 277 329 c 0
 282 351 289 363 298 363 c 0
 303 363 305 361 305 356 c 0
 305 353 304 347 300 338 c 0
 294 320 291 302 291 283 c 0
 291 254 298 229 313 210 c 0
 329 190 351 179 380 179 c 0
 406 179 427 188 442 205 c 0
 457 222 465 244 465 271 c 0
 465 298 451 328 424 359 c 2
 379 413 l 2
 345 452 328 493 328 534 c 0
 328 570 346 616 382 671 c 1xf7c0
EndSplineSet
Validated: 1
EndChar

StartChar: D
Encoding: 68 68 33
Width: 877
GlyphClass: 2
Flags: MW
HStem: -20 77<573.5 599> -3 21G<158.5 165> 80 69<226 326> 167 25<368 387 365 401.5> 402 18<192 217.5> 688 90<408 408>
VStem: 43 32<525 556.5 518.5 587.5> 151 20<7 12 7 31> 273 19<280.5 299 280.5 309.5> 332 54<479.5 586.5> 437 75<269 275> 780 21<280.5 376>
LayerCount: 2
Fore
SplineSet
423 685 m 1xbff0
 398 637 386 600 386 573 c 0
 386 542 398 509 424 473 c 2
 471 405 l 2
 498 366 512 326 512 286 c 0
 512 252 500 223 474 201 c 0
 449 178 419 167 384 167 c 0
 352 167 325 179 304 203 c 0
 283 226 273 254 273 287 c 0
 273 332 280 354 294 354 c 0
 300 354 303 352 303 347 c 0
 303 343 301 336 297 325 c 0
 294 314 292 304 292 294 c 0
 292 267 299 244 314 224 c 0
 331 203 352 192 378 192 c 0
 396 192 411 199 422 213 c 0
 432 227 437 243 437 261 c 0
 437 289 428 315 409 341 c 2
 370 394 l 2
 345 429 332 463 332 496 c 0
 332 549 357 613 408 688 c 1
 367 689 l 1
 310 691 l 2
 248 693 192 678 144 646 c 0
 98 615 75 578 75 535 c 0
 75 502 87 475 110 453 c 0
 133 431 160 420 192 420 c 2
 224 420 l 1
 229 419 l 2
 232 418 233 416 233 413 c 0
 233 406 225 402 210 402 c 0
 162 402 123 414 92 438 c 0
 59 465 43 501 43 549 c 0
 43 626 78 686 147 727 c 0
 205 761 275 778 357 778 c 0
 492 778 599 739 678 662 c 0
 760 583 801 473 801 333 c 0
 801 208 768 111 703 42 c 0
 664 0 622 -20 576 -20 c 0xbff0
 522 -20 456 -1 379 36 c 0
 319 65 276 80 251 80 c 0
 201 80 174 57 171 12 c 0
 171 2 168 -3 162 -3 c 0x7ff0
 155 -3 151 2 151 11 c 0
 151 51 168 84 203 111 c 0
 235 136 271 149 311 149 c 0
 341 149 384 135 441 107 c 0
 509 74 558 57 589 57 c 0
 653 57 703 85 737 142 c 0
 765 188 780 246 780 315 c 0
 780 437 738 530 655 594 c 0
 602 636 524 666 423 685 c 1xbff0
EndSplineSet
Validated: 33
EndChar

StartChar: E
Encoding: 69 69 34
Width: 719
GlyphClass: 2
Flags: MW
HStem: -21 61<397.5 441.5> 152 27<381.5 395 367.5 419> 464 46<581.5 636> 648 50<529.5 601.5> 725 20G<252.5 282.5 652.5 657.5> 745 31<252.5 280.5 237.5 282.5> 746 20G
VStem: 61 90<387 459.5> 273 20<268.5 290.5> 330 62<513.5 623.5> 467 67<282.5 284.5>
LayerCount: 2
Fore
SplineSet
441 705 m 1xfbe0
 409 676 392 643 392 604 c 0
 392 568 405 535 430 504 c 2
 469 456 l 2
 474 450 482 439 493 423 c 1
 520 451 540 470 553 480 c 0
 579 500 604 510 628 510 c 0
 644 510 657 504 667 493 c 0
 678 482 683 468 683 453 c 0
 683 444 680 432 673 417 c 0
 666 400 658 391 651 391 c 0
 649 391 646 396 645 406 c 0
 636 444 618 464 589 464 c 0
 574 464 559 457 542 444 c 0
 538 441 525 429 504 408 c 1
 524 364 534 329 534 302 c 0
 534 263 522 229 497 199 c 0
 471 168 438 152 400 152 c 0
 363 152 332 164 308 190 c 0
 285 215 273 246 273 284 c 0
 273 297 275 312 279 329 c 0
 284 351 291 363 300 363 c 0
 305 363 307 361 307 356 c 0
 307 353 306 347 302 338 c 0
 296 320 293 302 293 283 c 0
 293 254 300 229 315 210 c 0
 331 190 353 179 382 179 c 0
 408 179 429 188 444 205 c 0
 459 222 467 244 467 271 c 0
 467 298 453 328 426 359 c 2
 381 413 l 2
 347 452 330 493 330 534 c 0
 330 570 348 616 384 671 c 1
 365 697 349 714 336 724 c 0
 317 738 295 745 270 745 c 0
 235 745 206 724 184 681 c 0
 162 640 151 553 151 420 c 0
 151 354 153 307 157 277 c 0
 165 222 181 178 206 145 c 0
 230 112 261 86 299 68 c 0
 337 49 377 40 418 40 c 0
 478 40 536 61 591 102 c 0
 622 124 642 144 650 160 c 0
 654 167 659 171 663 171 c 0
 670 171 673 168 673 162 c 0
 673 152 662 132 641 104 c 0
 576 21 493 -21 390 -21 c 0
 273 -21 187 21 131 104 c 0
 84 174 61 271 61 394 c 0
 61 525 81 622 121 683 c 0
 161 745 209 776 266 776 c 0xf9e0
 295 776 321 766 343 748 c 0
 357 735 375 713 396 682 c 1
 424 714 455 742 489 766 c 1
 522 721 555 698 589 698 c 0
 614 698 631 709 640 730 c 0
 645 740 650 745 655 745 c 0
 660 745 663 742 663 737 c 0
 663 728 657 715 644 699 c 0
 617 665 584 648 546 648 c 0
 513 648 478 667 441 705 c 1xfbe0
EndSplineSet
Validated: 1
EndChar

StartChar: F
Encoding: 70 70 35
Width: 743
GlyphClass: 2
Flags: MW
HStem: -198 24<326 376 326 392.5> 259 27<162.5 168.5> 352 52<614.5 623.5> 418 19<189.5 216.5 189.5 226.5> 556 66<532 617.5> 680 73<213 229.5>
VStem: 44 29<554.5 574.5 536.5 605> 98 80<-60 16> 192 76<223.5 228.5 205.5 239> 379 59<361.5 463> 531 78<-40 69> 657 23
LayerCount: 2
Fore
SplineSet
478 570 m 1
 451 525 438 483 438 443 c 0
 438 414 449 383 470 350 c 0
 475 343 483 330 494 312 c 1
 542 373 590 404 639 404 c 0
 658 404 674 397 687 385 c 0
 700 372 706 356 706 337 c 0
 706 310 696 290 677 276 c 1
 671 275 l 1
 668 326 645 352 602 352 c 0
 574 352 547 340 523 317 c 2
 504 299 l 1
 537 243 560 204 571 181 c 0
 596 129 609 86 609 52 c 0
 609 -7 589 -62 548 -111 c 0
 501 -169 435 -198 350 -198 c 0
 270 -198 205 -173 155 -123 c 0
 117 -85 98 -43 98 1 c 0
 98 31 106 62 122 95 c 0
 129 110 145 138 171 179 c 0
 185 201 192 218 192 229 c 0
 192 249 180 259 157 259 c 0
 130 259 111 250 97 234 c 0
 89 224 83 219 80 219 c 0
 72 219 69 222 69 228 c 0
 69 235 78 245 96 258 c 0
 122 277 149 286 176 286 c 0
 201 286 222 281 238 271 c 0
 258 258 268 240 268 217 c 0
 268 194 262 168 250 142 c 0
 247 134 235 111 213 72 c 0
 190 28 178 -8 178 -38 c 0
 178 -82 196 -116 232 -141 c 0
 264 -163 303 -174 349 -174 c 0
 403 -174 445 -161 478 -134 c 0
 513 -106 531 -66 531 -14 c 0
 531 40 514 94 480 148 c 2
 430 230 l 2
 396 285 379 337 379 386 c 0
 379 438 407 502 462 578 c 1
 421 603 361 633 283 670 c 0
 264 677 242 680 217 680 c 0
 177 680 143 670 116 648 c 0
 87 625 73 594 73 555 c 0
 73 518 86 489 114 467 c 0
 139 447 171 437 208 437 c 0
 225 437 240 439 253 444 c 0
 256 445 258 445 260 445 c 0
 264 445 265 443 265 439 c 0
 265 425 246 418 207 418 c 0
 160 418 121 433 90 463 c 0
 59 493 44 531 44 578 c 0
 44 632 64 675 103 708 c 0
 139 738 185 753 241 753 c 0
 279 753 315 746 349 732 c 0
 362 727 395 709 448 680 c 0
 519 641 570 622 602 622 c 0
 633 622 651 640 657 677 c 0
 659 693 663 701 669 701 c 0
 677 702 680 698 680 690 c 0
 680 668 674 647 661 625 c 0
 648 604 633 588 614 577 c 0
 591 563 567 556 541 556 c 0
 523 556 502 561 478 570 c 1
EndSplineSet
Validated: 1
EndChar

StartChar: G
Encoding: 71 71 36
Width: 863
GlyphClass: 2
Flags: MW
HStem: -21 30<409 473.5 409 492.5> 154 28<388 407 380.5 428.5> 763 25<306.5 346.5 283.5 359>
VStem: 59 94<378.5 434 378.5 459.5> 278 22<281 302> 288 37 357 54<553 642.5> 483 77<261 328.5> 603 70<692.5 740> 652 71<558 627> 699 94<290 311.5>
LayerCount: 2
Fore
SplineSet
429 762 m 1xf320
 448 795 l 2
 454 806 460 811 466 811 c 0
 474 811 478 807 477 799 c 0
 477 798 468 782 451 753 c 1
 516 716 548 685 548 660 c 0
 548 654 545 650 539 650 c 0
 533 649 526 655 518 667 c 0
 505 688 479 710 439 733 c 1
 421 691 411 656 411 629 c 0
 411 606 418 583 432 559 c 0
 439 546 454 525 476 498 c 2
 508 456 l 1
 531 470 546 479 553 483 c 2
 598 505 l 2
 634 524 652 545 652 571 c 0xf340
 652 583 645 603 632 629 c 2
 612 667 l 2
 606 679 603 689 603 696 c 0
 603 705 607 715 615 725 c 2
 646 764 l 1
 667 792 l 2
 671 796 675 798 680 798 c 0
 689 798 693 794 692 787 c 0
 692 784 690 780 687 774 c 0
 678 761 674 749 673 740 c 0xf380
 673 732 682 711 703 677 c 0
 716 655 723 635 723 619 c 0xf340
 723 594 711 570 687 547 c 0
 674 536 652 521 618 500 c 1
 672 495 713 479 741 451 c 0
 776 415 793 370 793 315 c 0
 793 265 780 215 754 167 c 0
 730 121 698 82 657 48 c 0
 600 2 532 -21 453 -21 c 0
 331 -21 234 21 162 106 c 0
 93 187 59 289 59 413 c 0
 59 506 80 589 122 660 c 0
 172 745 240 788 327 788 c 0
 366 788 400 779 429 762 c 1xf320
417 745 m 1
 392 757 369 763 349 763 c 0
 264 763 204 696 172 562 c 0
 160 511 153 460 153 408 c 0
 153 349 162 293 178 238 c 0
 197 176 225 126 261 89 c 0
 312 35 373 9 445 9 c 0
 502 9 554 28 601 67 c 0
 667 121 699 195 699 290 c 0
 699 333 692 370 677 403 c 0
 657 445 628 467 590 467 c 0
 572 467 548 457 517 438 c 1
 546 390 560 347 560 310 c 0
 560 266 545 229 516 199 c 0
 486 169 450 154 407 154 c 0
 369 154 337 168 313 196 c 0
 290 223 278 256 278 294 c 0xfb20
 278 310 281 328 288 348 c 0
 295 373 305 386 317 386 c 0
 323 386 325 383 325 377 c 0xf7
 325 376 324 373 322 370 c 0
 307 348 300 324 300 296 c 0xfb
 300 266 308 241 325 219 c 0xf7
 343 194 366 182 395 182 c 0
 419 182 439 191 457 209 c 0
 474 228 483 249 483 273 c 0
 483 303 457 357 406 434 c 0
 373 482 357 530 357 576 c 0
 357 605 363 635 375 664 c 0
 381 676 395 703 417 745 c 1
EndSplineSet
Validated: 1
EndChar

StartChar: H
Encoding: 72 72 37
Width: 743
GlyphClass: 2
Flags: MW
HStem: -195 22<378.5 412> -33 80<327.5 394> 9 19<154.5 173.5 154.5 173.5> 569 20G 660 62<345.5 347.5> 759 20G<460 466>
VStem: 22 69<74 143.5> 73 58<511.5 615> 242 64<120.5 199> 246 28<-99 -77.5 -99.5 -65> 585 84<238.5 273>
LayerCount: 2
Fore
SplineSet
417 -76 m 1xbda0
 393 -48 366 -33 336 -33 c 0
 319 -33 305 -38 293 -46 c 0
 280 -56 274 -69 274 -86 c 0
 274 -113 288 -135 315 -151 c 0
 338 -166 364 -173 393 -173 c 0
 433 -173 471 -159 506 -132 c 2
 523 -118 l 2
 526 -116 528 -115 530 -115 c 0
 537 -115 540 -118 540 -125 c 0
 540 -129 534 -136 523 -145 c 0
 481 -178 436 -195 388 -195 c 0
 353 -195 321 -185 293 -166 c 0
 262 -144 246 -116 246 -82 c 0
 246 -48 260 -18 287 8 c 0
 314 34 345 47 378 47 c 0xdd60
 410 47 444 32 482 2 c 1
 551 61 585 138 585 231 c 0
 585 315 563 384 520 437 c 0
 486 478 450 499 411 499 c 0
 395 499 373 492 346 477 c 2
 224 411 l 1
 252 358 271 321 279 300 c 0
 297 257 306 217 306 181 c 0
 306 138 292 99 262 64 c 0
 231 27 195 9 152 9 c 0xbca0
 119 9 89 22 62 47 c 0
 35 73 22 102 22 135 c 0
 22 152 27 166 37 177 c 0
 48 188 61 194 77 194 c 0
 111 194 128 177 128 143 c 0
 128 127 122 114 109 103 c 0
 97 92 91 84 91 81 c 0xdea0
 91 67 99 54 116 43 c 0
 132 33 147 28 162 28 c 0
 185 28 205 40 221 64 c 0
 235 85 242 108 242 133 c 0
 242 175 217 232 168 305 c 0
 136 351 114 387 103 411 c 0
 83 452 73 492 73 531 c 0
 73 584 90 633 125 679 c 0
 141 700 179 738 239 793 c 1
 279 746 322 722 369 722 c 0
 404 722 428 734 442 757 c 0
 451 771 458 779 462 779 c 0
 470 779 473 775 473 769 c 0
 473 762 466 750 453 734 c 0
 413 685 370 660 325 660 c 0
 299 660 276 667 254 679 c 0
 240 688 221 704 197 727 c 1
 153 681 131 636 131 594 c 0
 131 566 140 535 158 504 c 0
 167 487 186 461 212 426 c 1
 344 499 432 553 478 589 c 1
 537 562 585 518 620 457 c 0
 653 399 669 336 669 268 c 0
 669 209 655 158 628 114 c 0
 604 76 566 39 514 1 c 0
 472 -28 440 -54 417 -76 c 1xbda0
EndSplineSet
Validated: 1
EndChar

StartChar: I
Encoding: 73 73 38
Width: 708
GlyphClass: 2
Flags: MW
HStem: -198 21<400 434.5> 78 48<81 155> 396 20<228.5 254> 424 21<535.5 556 521 556.5> 516 54<538.5 600> 719 66<245.5 255>
VStem: 29 20<8.5 30.5> 57 31<560.5 599.5 554 614.5> 431 80<320.5 389> 564 76<-55 66> 646 16<643 648 648 648>
LayerCount: 2
Fore
SplineSet
650 661 m 0
 658 662 662 656 662 642 c 0
 662 610 653 582 635 557 c 0
 615 530 590 516 559 516 c 0
 518 516 477 542 437 593 c 0
 403 637 374 667 351 684 c 0
 317 708 278 719 232 719 c 0
 189 719 155 706 128 681 c 0
 101 655 88 621 88 578 c 0
 88 530 103 490 134 461 c 0
 165 431 204 416 253 416 c 0
 272 416 289 420 303 428 c 0
 313 433 319 436 321 436 c 0
 326 436 329 433 329 428 c 0
 328 418 316 410 293 403 c 0
 276 398 261 396 247 396 c 0
 196 396 151 415 113 453 c 0
 76 490 57 535 57 586 c 0
 57 643 79 690 124 729 c 0
 167 766 217 785 274 785 c 0
 367 785 445 737 508 642 c 0
 539 594 567 570 591 570 c 0
 609 570 623 578 633 594 c 0
 642 608 646 625 646 643 c 2
 646 648 l 2
 645 650 645 652 645 653 c 0
 645 658 646 660 650 661 c 0
548 424 m 0
 523 424 511 406 511 372 c 0
 511 347 520 320 538 290 c 2
 582 220 l 2
 620 157 640 96 640 36 c 0
 640 -33 617 -89 571 -133 c 0
 526 -176 469 -198 400 -198 c 0
 332 -198 277 -183 236 -152 c 0
 201 -126 175 -76 159 -4 c 0
 147 51 126 78 97 78 c 0
 65 78 49 57 49 16 c 0
 49 1 50 -9 52 -16 c 2
 56 -27 l 2
 57 -30 58 -34 58 -39 c 0
 58 -45 55 -48 49 -48 c 0
 35 -48 29 -27 29 14 c 0
 29 47 38 74 57 95 c 0
 76 116 102 126 135 126 c 0
 175 126 206 110 228 77 c 0
 243 54 256 19 266 -28 c 0
 273 -63 278 -85 282 -94 c 0
 290 -118 303 -136 321 -148 c 0
 348 -167 381 -177 419 -177 c 0
 462 -177 496 -164 523 -137 c 0
 550 -111 564 -76 564 -34 c 0
 564 19 549 74 518 129 c 2
 476 203 l 2
 446 257 431 302 431 339 c 0
 431 371 440 396 460 416 c 0
 479 435 505 445 537 445 c 0
 575 445 611 426 644 387 c 0
 658 371 665 359 665 351 c 0
 665 344 662 341 655 341 c 0
 649 341 644 346 638 356 c 0
 629 373 617 388 601 401 c 0
 582 416 565 424 548 424 c 0
EndSplineSet
Validated: 1
Substitution2: "'ss03' Stilgruppe 3 in Lateinisch Nachschlagetabelle 11 Subtabelle" uni2160
EndChar

StartChar: J
Encoding: 74 74 39
Width: 708
GlyphClass: 2
Flags: MW
HStem: -198 21<400 434.5> 78 48<81 155> 396 20<228.5 254> 424 21<535.5 556 521 556.5> 516 54<538.5 600> 719 66<245.5 255>
VStem: 29 20<8.5 30.5> 57 31<560.5 599.5 554 614.5> 431 80<320.5 389> 564 76<-55 66> 646 16<643 648 648 648>
LayerCount: 2
Fore
SplineSet
650 661 m 0
 658 662 662 656 662 642 c 0
 662 610 653 582 635 557 c 0
 615 530 590 516 559 516 c 0
 518 516 477 542 437 593 c 0
 403 637 374 667 351 684 c 0
 317 708 278 719 232 719 c 0
 189 719 155 706 128 681 c 0
 101 655 88 621 88 578 c 0
 88 530 103 490 134 461 c 0
 165 431 204 416 253 416 c 0
 272 416 289 420 303 428 c 0
 313 433 319 436 321 436 c 0
 326 436 329 433 329 428 c 0
 328 418 316 410 293 403 c 0
 276 398 261 396 247 396 c 0
 196 396 151 415 113 453 c 0
 76 490 57 535 57 586 c 0
 57 643 79 690 124 729 c 0
 167 766 217 785 274 785 c 0
 367 785 445 737 508 642 c 0
 539 594 567 570 591 570 c 0
 609 570 623 578 633 594 c 0
 642 608 646 625 646 643 c 2
 646 648 l 2
 645 650 645 652 645 653 c 0
 645 658 646 660 650 661 c 0
548 424 m 0
 523 424 511 406 511 372 c 0
 511 347 520 320 538 290 c 2
 582 220 l 2
 620 157 640 96 640 36 c 0
 640 -33 617 -89 571 -133 c 0
 526 -176 469 -198 400 -198 c 0
 332 -198 277 -183 236 -152 c 0
 201 -126 175 -76 159 -4 c 0
 147 51 126 78 97 78 c 0
 65 78 49 57 49 16 c 0
 49 1 50 -9 52 -16 c 2
 56 -27 l 2
 57 -30 58 -34 58 -39 c 0
 58 -45 55 -48 49 -48 c 0
 35 -48 29 -27 29 14 c 0
 29 47 38 74 57 95 c 0
 76 116 102 126 135 126 c 0
 175 126 206 110 228 77 c 0
 243 54 256 19 266 -28 c 0
 273 -63 278 -85 282 -94 c 0
 290 -118 303 -136 321 -148 c 0
 348 -167 381 -177 419 -177 c 0
 462 -177 496 -164 523 -137 c 0
 550 -111 564 -76 564 -34 c 0
 564 19 549 74 518 129 c 2
 476 203 l 2
 446 257 431 302 431 339 c 0
 431 371 440 396 460 416 c 0
 479 435 505 445 537 445 c 0
 575 445 611 426 644 387 c 0
 658 371 665 359 665 351 c 0
 665 344 662 341 655 341 c 0
 649 341 644 346 638 356 c 0
 629 373 617 388 601 401 c 0
 582 416 565 424 548 424 c 0
EndSplineSet
Validated: 1
EndChar

StartChar: K
Encoding: 75 75 40
Width: 708
GlyphClass: 2
Flags: MW
HStem: -21 66<477.5 541.5> -18 17<145 163.5 145 171.5> 627 41<327.5 356> 776 18<339 395.5 334.5 401.5>
VStem: 28 73<38.5 101> 82 55<549.5 562> 189 20<480.5 498 464 510> 240 55<89 199> 390 83<286 383> 646 21
LayerCount: 2
Fore
SplineSet
474 392 m 1x77c0
 473 286 l 2
 472 188 477 126 488 101 c 0
 492 91 500 80 510 67 c 0
 523 52 533 45 541 45 c 0
 542 45 548 47 556 52 c 2
 596 76 l 2
 600 78 602 80 604 80 c 0
 610 81 613 77 613 70 c 0
 613 65 606 59 592 50 c 2
 501 -8 l 2
 490 -17 484 -21 482 -21 c 0xb7c0
 473 -21 456 -5 431 28 c 0
 414 51 402 77 396 107 c 0
 393 125 391 154 391 193 c 2
 390 297 l 1
 390 383 l 1
 231 369 l 1
 274 285 295 221 295 177 c 0
 295 128 283 85 259 47 c 0
 232 4 195 -18 148 -18 c 0
 118 -18 90 -7 66 14 c 0
 41 37 28 63 28 93 c 0
 28 109 33 123 43 136 c 0
 53 149 66 156 81 156 c 0
 95 156 108 151 118 140 c 0
 128 130 133 117 133 103 c 0
 133 89 129 79 123 72 c 2
 105 55 l 2
 103 52 101 49 101 44 c 0x7bc0
 101 33 106 22 117 13 c 0
 128 4 139 -1 151 -1 c 0
 176 -1 198 10 215 32 c 0
 232 53 240 76 240 102 c 0
 240 132 230 168 209 208 c 0
 205 215 186 247 152 303 c 0
 105 379 82 450 82 514 c 0
 82 610 119 684 192 737 c 0
 244 775 302 794 367 794 c 0
 424 794 475 781 520 754 c 0
 566 726 601 687 624 637 c 0
 636 612 646 574 655 524 c 0
 663 479 667 439 667 407 c 0
 667 395 664 389 657 389 c 0
 650 389 647 394 646 404 c 0
 642 473 634 529 623 573 c 0
 606 635 576 684 532 720 c 0
 487 757 433 776 370 776 c 0
 308 776 254 756 208 716 c 0
 160 675 137 624 137 562 c 0
 137 537 143 512 154 488 c 0
 159 479 172 457 195 421 c 1
 191 449 189 472 189 489 c 0
 189 531 202 570 228 606 c 0
 258 647 300 668 355 668 c 0
 407 668 445 654 468 626 c 0
 489 602 501 562 504 508 c 0
 506 481 510 462 517 452 c 0
 526 437 542 429 567 426 c 0
 590 423 602 418 602 410 c 0
 602 401 596 397 583 397 c 0
 579 397 572 397 564 398 c 0
 556 399 549 399 545 399 c 0
 528 399 504 396 474 392 c 1x77c0
514 413 m 1
 481 430 459 446 448 461 c 0
 436 477 427 503 422 538 c 0
 413 597 382 627 330 627 c 0
 289 627 258 611 237 581 c 0
 218 554 209 519 209 477 c 0
 209 451 214 421 223 386 c 1
 514 413 l 1
EndSplineSet
Validated: 33
EndChar

StartChar: L
Encoding: 76 76 41
Width: 666
GlyphClass: 2
Flags: MW
HStem: -21 68<447.5 450.5> 114 67<110 174.5> 305 20<580 580> 772 22<323 374>
VStem: 46 19<40 41 36 64.5> 103 71<606.5 612.5> 248 57<261 356> 448 66<366 442> 515 71<557 646.5>
LayerCount: 2
Fore
SplineSet
227 171 m 1
 286 127 323 101 338 91 c 0
 387 62 429 47 466 47 c 0
 523 47 564 70 589 117 c 0
 592 123 596 126 599 126 c 0
 605 126 608 123 608 117 c 0
 607 101 594 78 568 48 c 0
 529 2 480 -21 421 -21 c 0
 363 -21 296 9 219 69 c 0
 181 99 151 114 129 114 c 0
 91 114 70 89 65 41 c 0
 65 31 62 26 57 26 c 0
 49 26 46 33 46 47 c 0
 46 82 58 112 82 140 c 0
 107 167 136 181 169 181 c 0
 180 181 193 180 208 178 c 1
 235 216 248 248 248 274 c 0
 248 303 230 340 194 384 c 0
 133 459 103 524 103 579 c 0
 103 646 128 700 178 739 c 0
 224 776 282 794 351 794 c 0
 420 794 476 775 519 738 c 0
 564 698 586 644 586 576 c 0
 586 538 576 503 555 471 c 2
 528 430 l 2
 518 415 514 400 514 385 c 0
 514 347 536 327 580 325 c 0
 591 324 596 321 597 315 c 0
 597 308 592 305 580 305 c 0
 547 305 517 318 489 344 c 0
 462 369 448 398 448 431 c 0
 448 453 462 490 490 542 c 0
 507 572 515 599 515 625 c 0
 515 668 503 702 479 726 c 0
 448 757 403 772 345 772 c 0
 301 772 262 759 229 734 c 0
 192 706 174 670 174 627 c 0
 174 586 194 537 235 481 c 0
 260 447 275 426 280 417 c 0
 296 390 305 366 305 346 c 0
 305 299 279 241 227 171 c 1
EndSplineSet
Validated: 1
EndChar

StartChar: M
Encoding: 77 77 42
Width: 1069
GlyphClass: 2
Flags: MW
HStem: -24 21G<364.5 368.5 894 895.5> 465 25 723 25<805 824>
VStem: 42 33<546.5 634.5> 167 48<334.5 408.5> 319 84<368 405> 598 94<397 397 397 477> 794 82<183 208> 881 61<543 593.5> 887 75<647.5 659.5 636 661.5>
LayerCount: 2
Fore
SplineSet
672 628 m 1xff40
 689 669 708 698 729 716 c 0
 753 737 785 748 825 748 c 0
 861 748 891 740 917 723 c 0
 947 703 962 676 962 643 c 0xff40
 962 629 958 609 949 584 c 0
 944 569 942 558 942 551 c 0xff80
 942 535 949 520 962 508 c 0xff40
 975 496 990 490 1006 490 c 2
 1015 490 l 2
 1020 490 1023 486 1023 479 c 0
 1023 472 1016 467 1001 465 c 0
 990 463 976 457 960 447 c 0
 944 437 933 427 925 417 c 0
 892 379 876 324 876 254 c 0
 876 112 900 41 949 41 c 0
 953 41 957 42 960 44 c 2
 1000 65 l 2
 1004 68 1008 69 1012 69 c 0
 1019 69 1022 65 1022 58 c 0
 1022 52 1017 47 1007 42 c 0
 989 34 962 18 925 -6 c 2
 898 -23 l 2
 897 -24 896 -24 895 -24 c 0
 893 -24 892 -23 891 -22 c 0
 851 7 825 38 812 70 c 0
 800 98 794 139 794 192 c 0
 794 224 798 258 805 294 c 0
 814 336 826 368 841 389 c 0
 861 415 908 445 981 478 c 1
 914 501 881 539 881 590 c 0xff80
 881 597 882 607 884 620 c 0
 886 634 887 644 887 651 c 0
 887 672 880 690 866 703 c 0
 853 716 835 723 813 723 c 0
 778 723 749 711 728 686 c 0
 712 667 698 638 686 598 c 1
 687 551 l 1
 692 397 l 1
 684 301 l 2
 680 257 666 210 642 160 c 0
 624 122 594 78 553 29 c 2
 513 -21 l 1
 419 34 l 1
 373 -23 l 2
 371 -24 369 -24 368 -24 c 0
 361 -24 356 -19 352 -9 c 1
 444 102 l 1
 542 47 l 1
 561 74 575 109 582 153 c 0
 593 224 598 319 598 439 c 0
 598 515 594 572 586 609 c 0
 570 686 537 724 487 724 c 0
 444 724 411 690 389 623 c 1
 398 563 403 509 403 458 c 0
 403 278 362 145 280 58 c 2
 237 12 l 2
 232 7 223 -4 210 -21 c 1
 129 36 l 1
 77 -21 l 2
 73 -22 71 -23 69 -23 c 0
 62 -23 58 -19 58 -11 c 2
 58 -7 l 1
 157 102 l 1
 241 43 l 1
 275 84 297 130 308 182 c 0
 315 217 319 268 319 337 c 0
 319 473 307 570 285 627 c 0
 275 653 260 674 242 692 c 0
 221 713 198 723 174 723 c 0
 149 723 126 713 106 691 c 0
 85 670 75 647 75 622 c 0
 75 600 85 577 106 551 c 0
 114 542 132 523 162 494 c 0
 197 460 215 426 215 391 c 0
 215 362 203 333 180 302 c 0
 156 270 130 254 102 254 c 0
 95 254 91 257 92 263 c 0
 92 268 97 271 107 273 c 0
 122 276 136 284 148 298 c 0
 161 312 167 327 167 342 c 0
 167 360 159 378 144 397 c 2
 101 440 l 2
 62 479 42 522 42 571 c 0
 42 620 56 661 83 694 c 0
 113 729 151 747 199 747 c 0
 236 747 270 737 300 718 c 0
 324 702 349 677 376 642 c 1
 389 677 403 702 419 718 c 0
 439 738 465 748 498 748 c 0
 541 748 577 738 604 717 c 0
 627 700 650 670 672 628 c 1xff40
EndSplineSet
Validated: 1
EndChar

StartChar: N
Encoding: 78 78 43
Width: 808
GlyphClass: 2
Flags: MW
HStem: -21 21G<238 238> 257 17<103 103> 724 27<167.5 242>
VStem: 42 40<552.5 643.5> 167 58<331.5 401> 333 89<342.5 446> 538 83<164 193> 625 76<532 561>
LayerCount: 2
Fore
SplineSet
141 55 m 1
 85 -9 l 2
 83 -11 80 -12 78 -12 c 0
 70 -13 66 -9 66 -1 c 0
 66 1 66 2 67 4 c 2
 168 124 l 1
 267 51 l 1
 292 84 307 116 313 146 c 0
 326 209 333 287 333 378 c 0
 333 514 321 604 296 650 c 0
 285 671 269 689 248 703 c 0
 226 717 204 724 181 724 c 0
 154 724 131 715 111 697 c 0
 92 679 82 657 82 630 c 0
 82 607 91 583 108 560 c 0
 115 549 133 531 160 503 c 0
 203 459 225 419 225 383 c 0
 225 354 212 326 185 299 c 0
 158 271 131 257 103 257 c 0
 95 257 91 260 91 265 c 0
 91 270 95 273 104 274 c 0
 122 276 136 283 149 295 c 0
 161 308 167 323 167 340 c 0
 167 366 149 396 114 430 c 0
 66 476 42 526 42 579 c 0
 42 629 59 670 93 703 c 0
 127 735 169 751 220 751 c 0
 264 751 300 740 329 718 c 0
 352 701 376 671 402 628 c 1
 422 668 443 697 463 714 c 0
 490 737 522 748 562 748 c 0
 604 748 639 735 666 710 c 0
 693 684 706 650 706 608 c 1
 706 608 705 596 702 572 c 0
 701 566 701 557 701 545 c 0
 701 519 704 499 710 486 c 0
 718 468 734 456 756 451 c 0
 760 451 761 448 761 444 c 0
 761 436 758 432 751 430 c 0
 664 411 621 341 621 221 c 0
 621 107 637 51 669 51 c 0
 672 51 676 52 681 55 c 2
 726 83 l 2
 727 84 728 84 730 84 c 0
 738 84 742 81 741 74 c 0
 741 69 734 63 722 56 c 0
 686 34 649 8 613 -21 c 1
 580 7 559 35 549 63 c 0
 542 84 538 120 538 170 c 0
 538 216 540 252 544 276 c 0
 552 315 566 347 587 371 c 0
 617 403 668 427 741 441 c 1
 686 463 653 482 643 498 c 0
 630 518 624 539 625 561 c 2
 627 614 l 2
 628 621 628 625 628 626 c 0
 628 655 619 677 602 693 c 0
 585 710 562 718 534 718 c 0
 477 718 438 679 415 600 c 1
 420 534 422 474 422 419 c 0
 422 266 393 156 334 91 c 2
 276 27 l 2
 270 21 257 4 238 -21 c 1
 141 55 l 1
EndSplineSet
Validated: 33
EndChar

StartChar: O
Encoding: 79 79 44
Width: 826
GlyphClass: 2
Flags: MW
HStem: -20 77<481.5 487.5> -8 21G<65.5 70> 79 66<136 212.5> 183 23<127.5 150 127.5 172.5> 672 73<215.5 295> 680 92<421.5 471 386.5 472.5> 765 20G<169.5 172.5>
VStem: 42 20<294 314.5 294 333> 90 51<525 615.5> 207 76<275 345> 730 19<329.5 389>
LayerCount: 2
Fore
SplineSet
198 710 m 1x39e0
 160 671 141 634 141 597 c 0
 141 569 161 534 201 490 c 0
 256 429 283 372 283 318 c 0
 283 281 271 249 246 223 c 0
 221 196 191 183 154 183 c 0
 79 183 42 225 42 310 c 0
 42 356 49 379 64 379 c 0
 69 379 71 376 71 370 c 0
 71 369 70 367 70 364 c 2
 67 353 l 2
 64 337 62 322 62 307 c 0
 62 281 68 258 81 239 c 0
 95 217 115 206 140 206 c 0
 160 206 177 214 189 231 c 0
 201 246 207 264 207 286 c 0
 207 305 201 324 190 344 c 0
 186 352 174 369 155 394 c 0
 112 453 90 504 90 546 c 0
 90 599 123 656 189 718 c 1
 174 740 166 760 166 778 c 0
 166 783 168 785 171 785 c 0
 174 785 177 782 180 777 c 2
 186 767 l 2
 193 752 206 745 225 745 c 0x3be0
 231 745 242 747 256 750 c 2
 306 760 l 2
 346 768 376 772 397 772 c 0
 545 772 649 711 707 589 c 0
 735 529 749 458 749 375 c 0
 749 274 723 181 671 97 c 0
 646 56 617 26 584 7 c 0
 552 -11 512 -20 463 -20 c 0xb5e0
 419 -20 378 -14 340 0 c 0
 317 8 279 25 227 53 c 0
 193 70 168 79 151 79 c 0
 121 79 98 59 84 20 c 2
 78 1 l 2
 75 -5 72 -8 68 -8 c 0x71e0
 63 -8 61 -4 61 3 c 0
 61 17 68 35 81 58 c 0
 115 116 155 145 201 145 c 0
 224 145 257 135 303 114 c 0
 384 76 453 57 510 57 c 0
 580 57 636 93 678 164 c 0
 713 224 730 292 730 367 c 0
 730 411 722 454 708 497 c 0
 691 544 668 581 638 606 c 0
 581 656 512 680 433 680 c 0xb5e0
 410 680 388 679 364 677 c 0
 331 674 305 672 285 672 c 0
 255 672 226 685 198 710 c 1x39e0
EndSplineSet
Validated: 1
EndChar

StartChar: P
Encoding: 80 80 45
Width: 794
GlyphClass: 2
Flags: MW
HStem: -21 63<508.5 595.5> 81 65<185.5 243> 487 23 755 19<192.5 217.5>
VStem: 45 47<592 672> 129 17<22 37> 163 48<354.5 435> 313 91<502 502 502 521 502 566> 317 74 604 83<630.5 674> 704 24<163.5 172>
LayerCount: 2
Fore
SplineSet
401 7 m 1xff60
 396 -42 392 -78 391 -100 c 0
 385 -174 375 -211 361 -211 c 0
 345 -211 333 -173 325 -96 c 0
 322 -51 319 -6 317 39 c 1xfee0
 259 67 219 81 197 81 c 0
 174 81 159 69 152 44 c 2
 146 22 l 2
 144 17 141 14 138 14 c 0
 132 14 129 19 129 30 c 0
 129 44 134 62 146 83 c 0
 167 125 197 146 234 146 c 0
 252 146 278 140 313 128 c 1
 313 521 l 2
 313 611 305 670 289 699 c 0
 269 736 238 755 197 755 c 0
 171 755 147 745 125 726 c 0
 103 707 92 685 92 659 c 0
 92 632 101 606 120 583 c 2
 170 522 l 2
 197 488 211 453 211 417 c 0
 211 366 189 328 146 304 c 0
 128 294 116 289 108 289 c 0
 102 289 99 291 99 296 c 0
 99 301 109 308 130 316 c 0
 152 325 163 342 163 367 c 0
 163 385 156 405 142 425 c 0
 139 429 126 445 102 474 c 0
 64 520 45 567 45 617 c 0
 45 665 62 703 96 732 c 0
 128 760 168 774 217 774 c 0
 263 774 299 764 327 744 c 0
 353 725 375 694 394 650 c 1
 414 735 466 777 549 777 c 0
 590 777 624 764 649 739 c 0
 674 714 687 681 687 640 c 0
 687 621 685 602 680 583 c 0
 676 568 674 558 674 553 c 0
 674 543 678 533 686 524 c 0
 694 514 703 510 713 510 c 2
 732 510 l 2
 741 510 745 506 745 500 c 0
 745 492 738 488 725 487 c 0
 635 481 590 455 587 410 c 0
 586 392 599 373 626 354 c 0
 664 328 689 305 702 287 c 0
 719 263 728 231 728 192 c 0
 728 135 708 85 669 43 c 0
 629 0 580 -21 523 -21 c 0
 494 -21 453 -12 401 7 c 1xff60
699 499 m 1
 667 512 644 528 631 547 c 0
 617 566 609 593 607 627 c 2
 604 674 l 2
 602 725 576 750 528 750 c 0
 483 750 448 728 425 685 c 0
 415 665 409 627 407 570 c 2
 404 502 l 1xff60
 402 97 l 1
 483 60 541 42 575 42 c 0
 616 42 649 57 673 86 c 0
 694 111 704 136 704 159 c 0
 704 185 692 208 668 229 c 0
 661 235 638 250 598 274 c 0
 547 306 522 340 522 377 c 0
 522 439 581 480 699 499 c 1
EndSplineSet
Validated: 33
EndChar

StartChar: Q
Encoding: 81 81 46
Width: 889
GlyphClass: 2
Flags: MW
HStem: -20 77<478.5 487> -8 21G<64 71.5> -1 93<757 778 757 779.5> 77 68<136 211> 187 20<123.5 146 123.5 167.5> 672 73<210 290.5> 680 92<417 464.5> 765 20G<165 168.5>
VStem: 42 16<295 315 295 338.5> 85 51<525 615.5> 203 76<276 345> 687 31 725 19<356.5 390> 823 22<204 204>
LayerCount: 2
Fore
SplineSet
193 710 m 1x0cfc
 155 671 136 634 136 597 c 0
 136 570 156 534 196 490 c 0
 251 429 279 372 279 318 c 0
 279 281 266 250 241 225 c 0
 217 200 186 187 149 187 c 0
 78 187 42 231 42 318 c 0
 42 359 48 380 60 379 c 0
 64 379 66 376 66 371 c 0
 66 369 66 367 65 364 c 0
 60 341 58 322 58 308 c 0
 58 282 64 259 77 240 c 0
 91 218 111 207 136 207 c 0
 156 207 173 215 186 232 c 0
 197 247 203 265 203 287 c 0
 203 312 186 348 151 395 c 0
 107 454 85 504 85 546 c 0
 85 579 95 611 116 642 c 0
 130 663 153 688 186 718 c 1
 169 739 161 759 161 778 c 0
 161 783 163 785 167 785 c 0
 170 785 173 782 175 777 c 2
 180 767 l 2
 187 752 200 745 220 745 c 0x0dfc
 231 745 258 750 301 760 c 0
 337 768 368 772 392 772 c 0
 541 772 644 711 702 589 c 0
 730 529 744 458 744 375 c 0
 744 338 742 306 736 278 c 2
 723 205 l 2
 719 188 718 174 718 164 c 0
 718 149 722 134 729 119 c 0
 739 101 750 92 764 92 c 0
 792 92 809 111 814 150 c 2
 823 204 l 2
 824 215 828 220 834 220 c 0
 842 220 845 215 845 203 c 0
 845 180 841 145 833 98 c 0
 822 32 798 -1 761 -1 c 0x2afc
 737 -1 718 11 704 35 c 0
 693 55 687 77 687 104 c 0
 687 111 687 119 688 129 c 1
 655 76 625 39 596 18 c 0
 561 -7 515 -20 459 -20 c 0x88fc
 414 -20 374 -14 336 0 c 0
 312 8 274 26 223 53 c 0
 192 69 168 77 150 77 c 0
 122 77 102 59 89 23 c 0
 82 2 75 -8 68 -8 c 0x58fc
 60 -8 56 -3 56 7 c 0
 56 24 68 49 92 81 c 0
 124 124 160 145 201 145 c 0
 221 145 253 135 298 114 c 0
 380 76 450 57 507 57 c 0
 577 57 632 93 673 165 c 0
 708 225 725 293 725 367 c 0
 725 413 717 458 702 501 c 0
 683 550 658 587 626 612 c 0
 567 657 501 680 428 680 c 0x9afc
 406 680 383 679 360 677 c 0
 326 674 300 672 281 672 c 0
 251 672 222 685 193 710 c 1x0cfc
EndSplineSet
Validated: 33
EndChar

StartChar: R
Encoding: 82 82 47
Width: 823
GlyphClass: 2
Flags: MW
HStem: -19 19<197.5 231 197.5 284.5> 480 22<766 772> 751 28<195.5 227.5>
VStem: 51 40<593.5 668> 53 60<65 140> 176 63<356.5 433> 340 1 340 90<443 443 443 466.5> 571 92<156 199> 627 74<551 621.5> 636 88<651 706.5>
LayerCount: 2
Fore
SplineSet
613 456 m 1xe440
 634 422 648 392 654 364 c 0
 660 341 663 307 663 264 c 2
 663 199 l 2
 663 131 673 87 692 67 c 0
 705 54 714 48 721 47 c 0
 723 47 728 48 733 52 c 2
 766 74 l 2
 768 75 770 75 771 75 c 0
 778 75 781 72 781 67 c 0
 781 63 778 59 772 55 c 2
 704 6 l 1
 668 -21 l 1
 628 7 602 32 589 55 c 0
 576 78 570 112 571 156 c 2
 573 274 l 2
 573 296 570 320 563 346 c 0
 556 377 546 399 533 411 c 0
 521 424 504 431 481 432 c 1
 432 424 l 1
 432 129 358 -19 211 -19 c 0
 169 -19 132 -5 100 24 c 0
 69 53 53 88 53 130 c 0
 53 150 59 165 70 178 c 0
 82 191 97 197 117 197 c 0
 131 197 144 191 155 180 c 0
 166 169 171 156 171 142 c 0
 171 122 163 107 147 98 c 2
 124 84 l 2
 117 80 113 74 113 65 c 0
 112 49 124 33 147 19 c 0
 169 6 188 0 207 0 c 0
 255 0 290 29 312 87 c 0
 329 130 339 190 341 267 c 1xee80
 340 239 340 289 340 417 c 0xe5
 340 516 335 585 326 624 c 0
 305 709 261 751 194 751 c 0
 166 751 142 742 122 723 c 0
 101 705 91 682 91 654 c 0
 91 635 97 617 111 599 c 0
 116 591 130 576 152 554 c 0
 210 496 239 450 239 416 c 0
 239 377 216 344 169 316 c 0
 143 300 124 292 112 291 c 0
 108 291 106 291 104 293 c 0
 102 295 101 297 102 300 c 0
 102 305 107 309 117 312 c 0
 156 323 176 342 176 371 c 0
 176 393 162 419 134 449 c 0
 104 480 84 504 74 521 c 0
 59 548 51 577 51 610 c 0
 51 659 67 699 99 731 c 0
 131 763 171 779 220 779 c 0
 263 779 304 764 341 736 c 0
 375 710 398 670 409 616 c 1
 432 725 487 779 575 779 c 0
 611 779 644 768 674 746 c 0
 707 722 724 693 724 658 c 0xf620
 724 644 719 622 708 594 c 0
 703 579 701 567 701 557 c 0
 701 545 707 533 721 520 c 0
 734 507 747 501 759 501 c 2
 770 501 l 2
 771 502 771 502 772 502 c 0
 778 503 781 499 781 492 c 0
 781 485 776 481 766 480 c 2
 733 478 l 1
 613 456 l 1xe440
732 495 m 1
 662 529 627 570 627 618 c 0xe540
 627 625 628 636 631 650 c 0
 634 665 636 675 636 683 c 0
 636 730 609 754 556 754 c 0
 514 754 482 735 458 696 c 0
 436 659 426 606 428 537 c 2
 430 443 l 1xe520
 732 495 l 1
EndSplineSet
Validated: 33
EndChar

StartChar: S
Encoding: 83 83 48
Width: 834
GlyphClass: 2
Flags: MW
HStem: -20 81<426.5 489 426.5 496.5> 268 77<326 336 311 365> 391 68<586 663> 529 16<325.5 346.5 321.5 347.5> 620 75<610 665.5> 690 71<268 387.5>
VStem: 57 22<351 438 351 456.5> 208 22<413.5 431.5> 747 20<237.5 286.5>
LayerCount: 2
Fore
SplineSet
736 766 m 0xfb80
 746 766 751 762 751 754 c 0
 751 751 749 743 744 732 c 2
 728 696 l 2
 718 675 703 657 685 643 c 0
 664 628 643 620 621 620 c 0xfb80
 599 620 576 624 551 632 c 2
 457 661 l 2
 395 680 344 690 305 690 c 0
 231 690 174 659 133 596 c 0
 97 542 79 477 79 399 c 0
 79 303 107 225 162 167 c 0
 195 133 240 107 297 87 c 0
 348 70 400 61 453 61 c 0
 525 61 589 78 646 111 c 0
 713 151 747 204 747 271 c 0
 747 302 738 329 721 353 c 0
 702 378 678 391 648 391 c 0
 625 391 605 387 590 378 c 2
 461 302 l 2
 423 279 384 268 346 268 c 0
 306 268 273 282 247 310 c 0
 221 337 208 371 208 412 c 0
 208 451 220 483 245 508 c 0
 270 532 302 545 341 545 c 0
 352 545 366 543 383 540 c 0
 405 535 417 530 417 523 c 0
 417 521 417 519 415 518 c 0
 414 516 412 516 409 516 c 0
 406 516 401 517 395 519 c 0
 372 526 354 529 341 529 c 0
 310 529 284 520 263 501 c 0
 241 482 230 457 230 426 c 0
 230 401 240 381 259 366 c 0
 276 352 298 345 324 345 c 0
 348 345 376 355 407 374 c 2
 477 416 l 2
 525 444 568 459 604 459 c 0
 657 459 698 441 727 404 c 0
 754 371 767 327 767 273 c 0
 767 194 743 129 695 79 c 0
 632 13 548 -20 445 -20 c 0
 389 -20 335 -8 283 17 c 0
 231 41 187 75 150 119 c 0
 88 192 57 281 57 384 c 0
 57 529 110 639 215 711 c 0
 263 745 314 761 369 761 c 0xf780
 406 761 454 752 512 732 c 0
 589 707 636 695 652 695 c 0
 679 695 698 705 708 726 c 2
 724 757 l 2
 727 763 731 766 736 766 c 0xfb80
EndSplineSet
Validated: 1
EndChar

StartChar: T
Encoding: 84 84 49
Width: 803
GlyphClass: 2
Flags: MW
HStem: -21 56<503 600.5> 103 65<157 244.5> 160 22<354 378 354 385> 447 22<193 199.5 193 200.5> 583 70<641 646.5> 720 67<182 295>
VStem: 52 21<569.5 604.5 569.5 612> 89 19 253 19<280.5 304.5> 260 31 356 49<471.5 577.5> 432 72<248 323> 737 18
LayerCount: 2
Fore
SplineSet
443 644 m 1xbfb8
 417 614 405 588 405 567 c 0
 405 542 418 507 444 462 c 0
 484 395 504 342 504 304 c 0
 504 268 490 235 462 205 c 0
 435 175 403 160 367 160 c 0
 333 160 305 175 283 205 c 0
 263 231 253 263 253 298 c 0xbfb8
 253 311 255 328 260 348 c 0
 266 374 273 387 282 387 c 0
 288 387 291 384 291 378 c 0xbf78
 291 375 290 372 289 369 c 2
 283 356 l 2
 276 340 272 320 272 296 c 0
 272 265 280 239 297 218 c 0
 315 194 339 182 369 182 c 0
 387 182 402 190 415 207 c 0
 426 222 432 239 432 257 c 0
 432 285 427 307 417 325 c 2
 382 392 l 2
 365 424 356 456 356 487 c 0
 356 534 380 590 427 655 c 1
 331 698 255 720 200 720 c 0
 164 720 133 707 109 681 c 0
 85 655 73 623 73 586 c 0
 73 553 85 526 108 503 c 0
 131 483 159 471 193 469 c 0
 206 469 213 465 213 458 c 0
 213 450 207 447 194 447 c 0
 155 447 122 460 94 487 c 0
 66 514 52 547 52 585 c 0
 52 639 73 686 114 726 c 0
 156 767 204 787 258 787 c 0
 332 787 424 756 537 693 c 0
 585 666 625 653 657 653 c 0
 698 653 725 673 737 714 c 0
 739 722 742 726 747 726 c 0
 752 726 755 724 755 719 c 0
 755 713 750 697 739 672 c 0
 713 613 673 583 620 583 c 0
 578 583 519 603 443 644 c 1xbfb8
230 168 m 0xdf38
 259 168 291 160 326 143 c 0
 330 141 359 125 413 94 c 0
 482 55 541 35 588 35 c 0
 613 35 638 43 663 59 c 0
 688 75 704 95 713 118 c 0
 716 126 719 130 724 130 c 0
 730 130 734 127 734 121 c 0
 734 103 716 78 682 45 c 0
 635 1 583 -21 525 -21 c 0
 481 -21 439 -13 399 3 c 0
 377 12 339 33 284 64 c 0
 239 90 203 103 175 103 c 0
 139 103 116 84 108 47 c 0
 105 34 101 28 97 28 c 0
 91 28 89 31 89 38 c 0
 89 55 97 76 114 102 c 0
 142 146 181 168 230 168 c 0xdf38
EndSplineSet
Validated: 1
EndChar

StartChar: U
Encoding: 85 85 50
Width: 691
GlyphClass: 2
Flags: MW
HStem: -23 21G<250 251.5> 658 23<582 582> 686 69<75 122>
VStem: 117 88<106 624> 452 83<105 160>
LayerCount: 2
Fore
SplineSet
452 138 m 1
 313 32 l 2
 302 24 283 7 256 -21 c 0
 254 -22 252 -23 251 -23 c 0
 249 -23 247 -22 245 -21 c 0
 191 26 143 55 99 67 c 0
 79 72 69 77 69 82 c 0
 69 86 75 90 88 95 c 0
 108 101 117 117 117 143 c 2
 117 624 l 2
 117 635 113 648 105 662 c 0
 97 677 87 685 76 686 c 0
 74 686 72 685 69 684 c 2
 46 668 l 2
 44 667 41 666 38 666 c 0
 31 666 28 670 28 677 c 0
 28 681 33 686 42 692 c 2
 73 713 l 2
 78 717 87 724 99 735 c 0
 113 748 121 755 122 755 c 0
 127 756 138 748 154 732 c 0
 188 698 206 660 206 616 c 2
 205 106 l 1
 236 88 267 68 298 46 c 1
 451 162 l 1
 450 626 l 2
 450 635 446 643 438 649 c 0
 420 663 409 670 403 670 c 0
 401 670 398 669 395 667 c 2
 336 630 l 2
 333 628 330 627 328 627 c 0
 323 627 320 630 320 637 c 0
 320 642 328 650 344 660 c 0
 399 694 437 722 457 744 c 0
 464 751 468 755 471 755 c 0
 473 755 476 753 480 747 c 0
 501 713 535 691 582 681 c 0
 595 678 602 674 602 669 c 0
 603 664 596 660 582 658 c 0
 550 655 535 640 535 613 c 2
 535 160 l 2
 535 137 539 115 548 93 c 0
 559 63 574 49 594 49 c 0
 598 49 602 50 607 54 c 2
 635 74 l 2
 637 75 639 76 641 76 c 0
 646 76 649 74 649 69 c 0
 649 64 634 51 605 31 c 0
 582 14 561 -3 541 -21 c 1
 481 19 452 72 452 138 c 1
EndSplineSet
Validated: 33
EndChar

StartChar: V
Encoding: 86 86 51
Width: 786
GlyphClass: 2
Flags: MW
HStem: -20 42<424.5 547> 172 61<118.5 178.5> 333 15<124.5 126 123 140.5> 490 12 741 23<550.5 572.5> 753 23<194.5 213>
VStem: 51 35<589.5 664.5> 54 19 183 41<399 451.5> 339 88<492.5 551 492.5 556> 538 65<419 427.5> 618 71<554 673.5> 669 54<137 225.5>
LayerCount: 2
Fore
SplineSet
225 221 m 1xf9e8
 261 245 285 269 298 291 c 0
 325 338 339 411 339 511 c 0
 339 601 324 665 293 703 c 0
 267 736 233 753 193 753 c 0
 166 753 142 743 119 722 c 0
 97 701 86 678 86 651 c 0
 86 628 102 602 133 573 c 0
 165 543 185 524 192 515 c 0
 213 489 224 464 224 439 c 0
 224 415 214 391 195 369 c 0
 175 345 153 333 128 333 c 0
 121 333 117 335 117 340 c 0
 117 345 120 348 126 348 c 2
 135 349 l 2
 147 349 158 356 168 368 c 0
 178 381 183 393 183 405 c 0
 183 425 175 441 159 453 c 2
 116 485 l 2
 73 519 51 562 51 617 c 0
 51 661 67 699 101 730 c 0
 133 761 172 776 217 776 c 0xf6e0
 299 776 365 731 413 640 c 1
 432 681 451 710 472 729 c 0
 499 752 531 764 570 764 c 0
 605 764 634 753 658 731 c 0
 683 709 695 681 695 647 c 0
 695 639 694 627 692 611 c 0
 690 595 689 583 689 575 c 0xfaf0
 689 533 707 510 743 508 c 0
 750 507 754 504 754 499 c 0
 754 493 750 490 741 490 c 2
 728 490 l 2
 715 490 704 490 693 489 c 0
 673 488 654 482 636 472 c 0
 614 460 603 445 603 427 c 0
 603 411 609 396 622 381 c 2
 675 317 l 2
 707 279 723 243 723 208 c 0
 723 158 699 109 653 62 c 0
 599 7 535 -20 459 -20 c 0
 390 -20 320 18 248 95 c 0
 224 121 207 138 195 146 c 0
 173 163 151 172 129 172 c 0
 108 172 94 165 85 152 c 0
 80 143 76 127 73 103 c 0
 72 95 69 91 63 91 c 0
 57 91 54 96 54 106 c 0
 54 138 65 167 89 194 c 0
 112 220 140 233 171 233 c 0
 186 233 204 229 225 221 c 1xf9e8
709 502 m 1
 671 514 646 530 634 550 c 0
 623 568 618 598 618 640 c 0xf8f0
 618 707 595 741 550 741 c 0
 496 741 453 700 423 616 c 1
 426 587 427 562 427 540 c 0
 427 445 412 374 384 328 c 0
 353 279 307 240 246 211 c 1
 278 194 315 166 355 128 c 0
 395 91 421 68 433 59 c 0
 467 34 499 22 530 22 c 0
 564 22 595 36 625 63 c 0
 654 90 669 120 669 154 c 0xf8e8
 669 181 656 208 631 234 c 2
 589 279 l 2
 555 316 538 353 538 390 c 0
 538 465 595 502 709 502 c 1
EndSplineSet
Validated: 1
Substitution2: "'ss03' Stilgruppe 3 in Lateinisch Nachschlagetabelle 11 Subtabelle" uni2164
EndChar

StartChar: W
Encoding: 87 87 52
Width: 1025
GlyphClass: 2
Flags: MW
HStem: -21 55<729 825.5> -21 62<366 455> 121 74<123 185.5> 308 18<111 118 118 127.5 111 129> 491 22<978 978> 738 36<500 527.5> 749 25<199 243.5 199 247.5>
VStem: 44 43<585.5 667> 58 20 187 46<375 443.5> 345 94<457.5 525.5 457.5 577> 542 68<460.5 568> 621 77<227.5 351> 788 58<356.5 419.5> 833 85<564 615.5> 839 88<644.5 696> 926 49<181.5 182.5>
LayerCount: 2
Fore
SplineSet
632 672 m 1x3d78
 660 704 683 727 699 739 c 0
 727 759 756 769 787 769 c 0
 823 769 854 758 882 736 c 0
 912 713 927 683 927 649 c 0x3d79
 927 640 925 627 922 611 c 0
 919 594 918 581 918 573 c 0x3c7a
 918 555 924 541 936 530 c 0
 947 519 962 513 979 513 c 0
 989 513 994 510 994 502 c 0
 994 496 989 492 978 491 c 0
 952 488 925 480 897 467 c 0
 863 450 846 430 846 409 c 0
 846 393 860 375 888 355 c 0
 946 314 975 267 975 212 c 0
 975 151 954 97 911 51 c 0
 868 3 815 -21 755 -21 c 0xbc7c80
 703 -21 651 5 597 58 c 0
 586 68 574 76 562 83 c 1
 495 14 438 -21 391 -21 c 0
 341 -21 286 10 224 73 c 0
 193 105 166 121 143 121 c 0
 103 121 81 96 78 45 c 0
 77 37 75 32 70 32 c 0
 62 32 58 39 58 52 c 0x78fc80
 58 90 68 123 88 150 c 0
 110 180 139 195 176 195 c 0
 195 195 215 190 237 179 c 1
 285 233 315 281 328 321 c 0
 339 356 345 413 345 491 c 0
 345 663 296 749 199 749 c 0
 169 749 144 741 122 724 c 0
 99 705 87 681 87 653 c 0
 87 638 92 621 102 602 c 0
 112 582 123 568 135 558 c 2
 198 504 l 2
 221 485 233 459 233 428 c 0
 233 396 221 368 197 344 c 0
 173 320 145 308 113 308 c 0
 102 308 96 312 96 319 c 0
 96 325 98 327 103 327 c 0
 105 327 108 327 111 326 c 2
 118 326 l 2
 137 326 153 331 166 341 c 0
 180 352 187 366 187 384 c 0
 187 407 170 431 136 457 c 0
 75 503 44 556 44 615 c 0
 44 662 62 701 99 731 c 0
 134 760 175 774 223 774 c 0x7b78
 264 774 298 766 326 750 c 0
 353 734 378 709 401 674 c 1
 415 707 428 731 441 745 c 0
 460 764 485 774 515 774 c 0
 571 774 610 740 632 672 c 1x3d78
622 659 m 1
 590 711 551 738 504 738 c 0
 461 738 431 711 413 658 c 1
 430 605 439 552 439 499 c 0
 439 416 421 347 385 293 c 0
 361 257 317 216 250 171 c 1
 268 158 290 137 316 108 c 0
 358 63 397 41 434 41 c 0x7c78
 476 41 518 62 559 104 c 0
 600 147 621 198 621 257 c 0
 621 283 614 308 600 331 c 2
 564 389 l 2
 549 412 542 442 542 479 c 0
 542 510 550 542 567 575 c 0
 576 593 594 621 622 659 c 1
957 502 m 1
 874 522 833 559 833 612 c 0xb87a
 833 619 834 630 836 644 c 0
 838 658 839 669 839 676 c 0xb879
 839 716 817 736 774 736 c 0
 731 736 692 715 658 672 c 0
 626 632 610 590 610 546 c 0
 610 518 623 485 649 449 c 0
 682 405 698 367 698 335 c 0
 698 285 670 224 614 150 c 1
 630 140 l 2
 647 130 667 114 689 93 c 0
 731 54 771 34 808 34 c 0
 843 34 872 47 894 73 c 0
 915 98 926 128 926 164 c 0
 926 201 912 229 884 250 c 2
 845 278 l 2
 807 306 788 338 788 375 c 0xb87c80
 788 404 802 430 831 453 c 0
 852 470 893 486 957 502 c 1
EndSplineSet
Validated: 1
EndChar

StartChar: X
Encoding: 88 88 53
Width: 636
GlyphClass: 2
Flags: MW
HStem: -21 23<134.5 146> -21 75<469 494.5> 346 68<191.5 270 270 270 270 271> 679 82<163.5 204.5> 733 28<465.5 485>
VStem: 25 58<41 89> 111 19<270 270 270 302.5> 271 86<342 342 342 346 342 346> 494 24 528 67
LayerCount: 2
Fore
SplineSet
341 609 m 1xb7c0
 376 711 430 761 501 761 c 0
 530 761 552 753 569 737 c 0
 586 721 595 699 595 670 c 0
 595 627 578 606 545 606 c 0
 532 606 521 611 512 620 c 0
 504 630 500 641 500 655 c 0
 500 669 504 680 513 688 c 2
 521 695 l 2
 526 699 528 702 528 705 c 0
 528 713 522 719 509 725 c 0
 499 730 489 733 481 733 c 0
 444 733 413 709 388 661 c 0
 366 620 355 579 355 539 c 2
 354 415 l 1
 434 414 l 2
 457 413 473 419 481 430 c 0
 488 439 492 456 494 481 c 0
 495 493 500 499 508 499 c 0
 515 499 518 495 518 486 c 0
 518 437 509 400 490 378 c 0
 472 355 441 344 399 343 c 2
 357 342 l 1
 359 237 l 2
 360 184 370 144 388 117 c 0
 396 105 412 92 435 77 c 0
 458 62 476 54 490 54 c 0
 499 54 511 63 525 80 c 2
 567 130 l 2
 573 139 579 142 583 142 c 0
 591 142 595 138 595 129 c 0
 595 125 582 107 558 76 c 2
 503 9 l 2
 487 -11 476 -21 471 -21 c 0x6fc0
 467 -21 462 -19 456 -17 c 2
 410 3 l 2
 375 19 349 38 331 61 c 0
 315 82 302 112 294 150 c 1
 279 93 257 51 228 23 c 0
 196 -6 163 -21 129 -21 c 0
 100 -21 76 -11 55 8 c 0
 35 27 25 51 25 80 c 0
 25 98 29 113 37 126 c 0
 47 142 60 150 77 150 c 0
 106 150 120 135 120 104 c 0
 120 87 113 74 100 67 c 0
 89 61 83 54 83 47 c 0
 83 35 90 24 104 15 c 0
 116 6 128 2 141 2 c 0
 183 2 216 27 241 78 c 0
 261 119 271 163 271 210 c 2
 271 346 l 1
 218 346 l 2
 165 346 136 327 132 288 c 2
 130 270 l 2
 129 263 126 259 120 260 c 0
 114 260 111 264 111 273 c 0
 111 332 130 373 168 396 c 0
 185 407 204 412 226 413 c 2
 270 414 l 1
 271 522 l 2
 271 555 263 587 246 621 c 0
 225 660 201 679 171 679 c 0
 156 679 140 669 122 649 c 2
 78 601 l 2
 76 598 74 597 70 597 c 0
 62 597 57 601 57 609 c 0
 57 614 61 620 67 627 c 2
 174 743 l 2
 186 755 194 761 199 761 c 0
 210 761 227 754 248 740 c 0
 267 727 281 715 291 705 c 0
 311 682 328 650 341 609 c 1xb7c0
EndSplineSet
Validated: 33
Substitution2: "'ss03' Stilgruppe 3 in Lateinisch Nachschlagetabelle 11 Subtabelle" uni2169
EndChar

StartChar: Y
Encoding: 89 89 54
Width: 764
GlyphClass: 2
Flags: MW
HStem: -242 24<283 318.5 281.5 330> -21 21G<283 284.5> 233 19 713 30<198 209.5>
VStem: 44 40<597 603> 123 79<-166.5 -91.5> 194 47<307 378.5> 322 87<438 487 438 516> 602 87<323.5 431>
LayerCount: 2
Fore
SplineSet
382 640 m 1xfb80
 412 709 454 744 506 744 c 0
 549 744 589 719 624 670 c 0
 667 608 689 505 689 362 c 0
 689 165 657 20 593 -72 c 0
 560 -120 518 -160 467 -191 c 0
 412 -225 357 -242 303 -242 c 0
 263 -242 223 -229 185 -202 c 0
 144 -173 123 -139 123 -99 c 0
 123 -84 128 -72 137 -63 c 0
 147 -53 159 -49 174 -49 c 0
 207 -49 224 -65 224 -98 c 0
 224 -106 222 -115 217 -123 c 2
 207 -140 l 2
 204 -146 202 -151 202 -157 c 0xfd80
 202 -176 213 -192 234 -204 c 0
 251 -213 271 -218 292 -218 c 0
 345 -218 393 -203 437 -174 c 0
 479 -146 512 -107 537 -59 c 0
 564 -3 583 67 593 151 c 0
 599 205 602 278 602 369 c 0
 602 493 597 576 586 619 c 0
 569 686 539 719 494 719 c 0
 470 719 449 708 431 686 c 0
 422 674 410 652 395 621 c 1
 404 561 409 509 409 465 c 0
 409 411 402 361 386 318 c 0
 374 281 358 252 340 230 c 0
 327 215 302 193 266 164 c 0
 260 160 248 150 229 133 c 1
 259 112 288 87 315 60 c 2
 336 39 l 1
 429 97 l 2
 433 99 437 101 440 101 c 0
 449 102 453 98 453 89 c 0
 453 81 443 71 423 61 c 0
 403 51 370 31 324 2 c 2
 289 -19 l 2
 287 -20 285 -21 284 -21 c 0
 282 -21 281 -20 279 -19 c 2
 268 -8 l 1
 242 19 l 2
 214 49 181 72 143 89 c 0
 134 93 129 97 129 99 c 0
 129 102 133 105 142 109 c 2
 180 125 l 2
 196 133 214 145 235 163 c 0
 255 181 270 198 280 213 c 0
 308 257 322 342 322 468 c 0
 322 564 309 630 283 664 c 0
 259 697 228 713 191 713 c 0
 163 713 138 703 117 685 c 0
 95 665 84 641 84 613 c 0
 84 581 96 555 119 534 c 2
 185 474 l 2
 222 440 241 401 241 356 c 0
 241 317 221 284 182 257 c 0
 158 241 139 233 126 233 c 0
 119 233 116 236 116 241 c 0
 116 247 120 251 128 252 c 0
 145 255 160 262 172 272 c 0
 187 285 194 299 194 315 c 0
 194 335 187 353 173 370 c 0
 167 378 152 392 130 413 c 0
 73 464 44 519 44 579 c 0
 44 627 62 667 98 698 c 0
 132 728 173 743 223 743 c 0
 292 743 345 709 382 640 c 1xfb80
EndSplineSet
Validated: 1
EndChar

StartChar: Z
Encoding: 90 90 55
Width: 729
GlyphClass: 2
Flags: MW
HStem: -225 24<355.5 412.5> -5 59<89.5 149> 301 26<338.5 389.5> 737 33<316.5 391>
VStem: 40 21<-97.5 -68.5> 121 26 171 21<134 136> 175 63<393.5 459> 513 102<515.5 578 515.5 596.5> 547 109<36 98.5>
LayerCount: 2
Fore
SplineSet
300 311 m 1xfe40
 217 344 175 391 175 450 c 0
 175 468 180 484 191 497 c 0
 202 510 216 516 234 516 c 0
 250 516 263 510 273 499 c 0
 284 487 289 473 289 457 c 0
 289 440 282 428 268 421 c 2
 253 414 l 2
 244 409 239 403 238 397 c 0
 238 390 242 380 251 367 c 0
 270 340 302 327 349 327 c 0
 458 327 513 394 513 526 c 0
 513 667 452 737 330 737 c 0
 275 737 232 719 199 683 c 0
 172 653 154 621 147 589 c 0
 143 565 137 552 130 552 c 0
 124 551 121 555 121 564 c 0
 121 588 131 618 152 654 c 0
 196 731 268 770 365 770 c 0
 436 770 495 750 542 711 c 0
 591 669 615 613 615 543 c 0xfd80
 615 488 600 440 569 399 c 0
 541 363 497 337 437 322 c 1
 583 280 656 191 656 57 c 0
 656 -20 628 -86 573 -142 c 0
 517 -197 451 -225 374 -225 c 0
 323 -225 277 -211 237 -184 c 0
 200 -158 168 -111 142 -42 c 0
 132 -17 119 -5 104 -5 c 0
 75 -5 61 -34 61 -92 c 0
 61 -103 61 -110 62 -115 c 0
 63 -125 64 -132 64 -135 c 0
 64 -141 62 -144 57 -144 c 0
 46 -144 40 -125 40 -85 c 0
 40 -52 48 -21 63 6 c 0
 81 38 106 54 138 54 c 0
 160 54 183 41 206 15 c 0
 220 -1 236 -36 255 -89 c 0
 282 -164 326 -201 385 -201 c 0
 442 -201 484 -168 514 -103 c 0
 536 -53 547 4 547 68 c 0
 547 129 531 181 500 226 c 0
 465 276 419 301 360 301 c 0
 317 301 280 284 248 251 c 0
 219 220 200 183 192 139 c 0
 190 130 187 125 181 125 c 0
 178 125 175 125 173 127 c 0
 171 129 171 132 171 136 c 0
 172 157 182 184 201 217 c 0
 222 254 255 286 300 311 c 1xfe40
EndSplineSet
Validated: 1
EndChar

StartChar: bracketleft
Encoding: 91 91 56
Width: 316
GlyphClass: 2
Flags: MW
HStem: -208 29<171 261 261 262> 706 28<164 171 171 261>
VStem: 67 74<-155 -148 -148 675>
LayerCount: 2
Fore
SplineSet
67 734 m 1
 262 734 l 2
 273 734 279 729 279 720 c 0
 279 711 273 706 261 706 c 2
 171 706 l 2
 157 706 149 704 146 701 c 0
 143 698 141 689 141 675 c 2
 141 -148 l 2
 141 -162 143 -171 146 -174 c 0
 149 -177 157 -179 171 -179 c 2
 261 -179 l 2
 273 -179 279 -184 279 -193 c 0
 279 -203 273 -208 262 -208 c 2
 67 -208 l 1
 67 734 l 1
EndSplineSet
Validated: 1
EndChar

StartChar: bracketright
Encoding: 93 93 57
Width: 329
GlyphClass: 2
Flags: MW
HStem: -208 29<55.5 152 62 152 152 159 62 256> 706 28<61 62 62 152>
VStem: 182 74<-148 675 675 681.5>
LayerCount: 2
Fore
SplineSet
256 734 m 1
 256 -208 l 1
 61 -208 l 2
 50 -208 44 -203 44 -193 c 0
 44 -184 50 -179 62 -179 c 2
 152 -179 l 2
 166 -179 174 -177 177 -174 c 0
 181 -170 182 -162 182 -148 c 2
 182 675 l 2
 182 688 181 697 177 701 c 0
 174 704 166 706 152 706 c 2
 62 706 l 2
 50 706 44 711 44 720 c 0
 44 729 50 734 61 734 c 2
 256 734 l 1
EndSplineSet
Validated: 1
EndChar

StartChar: asciicircum
Encoding: 94 94 58
Width: 27
GlyphClass: 2
Flags: MW
HStem: 576 168<184 302 302 410>
VStem: 184 226<576 576>
LayerCount: 2
Fore
SplineSet
184 576 m 1
 302 744 l 1
 410 576 l 1
 354 575 l 1
 287 681 l 1
 212 575 l 1
 184 576 l 1
EndSplineSet
Validated: 1
EndChar

StartChar: underscore
Encoding: 95 95 59
Width: 1047
GlyphClass: 2
Flags: MW
HStem: -298 36<-4 1037 -5 1038 -4 -4>
LayerCount: 2
Fore
SplineSet
-5 -262 m 1
 1037 -262 l 1
 1038 -298 l 1
 -4 -298 l 1
 -5 -262 l 1
EndSplineSet
Validated: 1
Substitution2: "'ss01' Stilgruppe 1 in Lateinisch Nachschlagetabelle 8 Subtabelle" emdash
EndChar

StartChar: grave
Encoding: 96 96 60
Width: 38
GlyphClass: 2
Flags: MW
HStem: 528 226<264.5 376>
VStem: 233 149
LayerCount: 2
Fore
SplineSet
373 569 m 1
 323 722 l 2
 316 743 302 754 280 754 c 0
 249 754 233 743 233 722 c 0
 233 712 237 702 244 692 c 2
 343 561 l 2
 359 539 369 528 373 528 c 0
 379 528 382 531 382 538 c 0
 382 540 381 542 380 545 c 2
 373 569 l 1
EndSplineSet
Validated: 9
EndChar

StartChar: a
Encoding: 97 97 61
Width: 500
GlyphClass: 2
Flags: MW
HStem: -21 21G
VStem: 58 72<173.001 210.334> 312 76<52.3335 90.001 92.001 351.001>
AnchorPoint: "top" 250 650 basechar 0
LayerCount: 2
Fore
SplineSet
312 75 m 1
 242 39 188.666992188 7.0009765625 152 -20.9990234375 c 1
 116.666992188 5.0009765625 91.6669921875 34.333984375 77 67.0009765625 c 0
 64.3330078125 97.0009765625 58 135.66796875 58 183.000976562 c 0
 58 237.66796875 64 285.333984375 76 326.000976562 c 0
 84.6669921875 354.66796875 101.333007812 380.000976562 126 402.000976562 c 0
 126.666992188 402.000976562 152.333007812 420.66796875 203 458.000976562 c 0
 217.666992188 468.66796875 235 483.333984375 255 502.000976562 c 1
 278 489.000976562 l 2
 338 453.66796875 386.666992188 432.333984375 424 425.000976562 c 0
 439.333007812 422.333984375 447 417.333984375 447 410.000976562 c 0
 447 404.000976562 441.666992188 399.66796875 431 397.000976562 c 0
 412.333007812 392.333984375 401 388.000976562 397 384.000976562 c 0
 391 378.000976562 388 367.000976562 388 351.000976562 c 2
 388 90.0009765625 l 2
 388 79.333984375 391 69.0009765625 397 59.0009765625 c 0
 404.333007812 47.66796875 413.333007812 42.0009765625 424 42.0009765625 c 0
 426.666992188 42.0009765625 429.333007812 43.0009765625 432 45.0009765625 c 2
 453 57.0009765625 l 2
 457.666992188 60.333984375 461.333007812 62.0009765625 464 62.0009765625 c 0
 469.333007812 62.0009765625 472 59.66796875 472 55.0009765625 c 0
 472 49.66796875 466.333007812 44.0009765625 455 38.0009765625 c 0
 447.666992188 34.0009765625 435.333007812 26.0009765625 418 14.0009765625 c 0
 401 2.0009765625 401 2.0009765625 366 -21.9990234375 c 1
 330 -2.666015625 312 29.6669921875 312 75 c 1
312 382.000976562 m 1
 278.666992188 397.333984375 244.333007812 417.000976562 209 441.000976562 c 1
 173 408.333984375 150 372.333984375 140 333.000976562 c 0
 133.333007812 308.333984375 130 264.66796875 130 202.000976562 c 0
 130 144.000976562 137.666992188 105.66796875 153 87.0009765625 c 0
 174.333007812 62.333984375 194.666992188 50.0009765625 214 50.0009765625 c 0
 222.666992188 50.0009765625 238.666992188 55.66796875 262 67.0009765625 c 2
 312 92.0009765625 l 1
 312 382.000976562 l 1
EndSplineSet
Validated: 524289
EndChar

StartChar: b
Encoding: 98 98 62
Width: 502
GlyphClass: 2
Flags: MW
HStem: -21 21G 687 20G<59 75> 724 21
VStem: 99 78<124 135> 365 80<253.999 294.666>
LayerCount: 2
Fore
SplineSet
117 593 m 1
 125.666992188 639.666992188 145.5 676.666015625 176.5 703.999023438 c 0
 207.5 731.33203125 246.666992188 744.999023438 294 744.999023438 c 0
 306 744.999023438 312 741.33203125 312 733.999023438 c 0
 312 728.666015625 305.666992188 725.33203125 293 723.999023438 c 0
 260.333007812 720.666015625 233.333007812 708.666015625 212 687.999023438 c 0
 189.333007812 666.666015625 178 639.666015625 178 606.999023438 c 2
 178 420.999023438 l 1
 282 469.999023438 l 2
 304.666992188 480.666015625 325 491.33203125 343 501.999023438 c 1
 411 473.999023438 445 403.33203125 445 289.999023438 c 0
 445 217.999023438 433 160.666015625 409 117.999023438 c 0
 396.333007812 96.666015625 372.333007812 73.3330078125 337 48 c 0
 307.666992188 27.3330078125 280.666992188 4.3330078125 256 -21 c 1
 179.333007812 25 116.333007812 51.6669921875 67 59 c 0
 50.3330078125 61 42 65.6669921875 42 73 c 0
 42 79 45.6669921875 83 53 85 c 2
 77 94 l 2
 91.6669921875 99.3330078125 99 113 99 135 c 2
 100 532 l 2
 100 593.333007812 90.3330078125 638.666992188 71 668 c 2
 59 687 l 2
 57 690.333007812 56 694 56 698 c 0
 56 704 59 707 65 707 c 0
 85 707 102.333007812 669 117 593 c 1
177 101.999023438 m 1
 212 86.9990234375 l 2
 244.666992188 73.666015625 274 58.666015625 300 41.9990234375 c 1
 326.666992188 69.9990234375 343 93.9990234375 349 113.999023438 c 0
 359.666992188 149.999023438 365 203.666015625 365 274.999023438 c 0
 365 314.33203125 360 348.666015625 350 377.999023438 c 0
 335.333007812 419.999023438 312 440.999023438 280 440.999023438 c 0
 273.333007812 440.999023438 265.333007812 438.999023438 256 434.999023438 c 2
 177 397.999023438 l 1
 177 101.999023438 l 1
EndSplineSet
Validated: 524289
EndChar

StartChar: c
Encoding: 99 99 63
Width: 388
GlyphClass: 2
Flags: MW
HStem: -21 21G
VStem: 58 76<208 299.333 202 301.333>
LayerCount: 2
Fore
SplineSet
334 380 m 1
 265 350 l 1
 204 462 l 1
 173.333007812 440 153.333007812 412.666992188 144 380 c 0
 137.333007812 358.666992188 134 323.666992188 134 275 c 0
 134 129 163.333007812 56 222 56 c 0
 230 56 240.333007812 59 253 65 c 2
 324 99 l 2
 327.333007812 100.333007812 330.333007812 101 333 101 c 0
 342.333007812 101 347 96.3330078125 347 87 c 0
 347 81.6669921875 339.333007812 75 324 67 c 2
 250 30 l 2
 224 16.6669921875 195.333007812 -0.3330078125 164 -21 c 1
 126 3.6669921875 100.666992188 29.6669921875 88 57 c 0
 68 99 58 164 58 252 c 0
 58 350.666992188 88.3330078125 417.333007812 149 452 c 0
 169 463.333007812 207.666992188 480.333007812 265 503 c 1
 334 380 l 1
EndSplineSet
Validated: 524289
EndChar

StartChar: d
Encoding: 100 100 64
Width: 506
GlyphClass: 2
Flags: MW
HStem: -21 21G 718 16
VStem: 73 45<654.001 657.001> 88 79<135 417.002 104.002 422 104.002 422> 367 82<251.001 272.668>
LayerCount: 2
Fore
SplineSet
88 422 m 1xd8
 145.333007812 430 192.666992188 449.66796875 230 481.000976562 c 1
 180.666992188 506.333984375 146.333007812 527.000976562 127 543.000976562 c 0
 91 573.000976562 73 606.66796875 73 644.000976562 c 0
 73 670.000976562 83.3330078125 691.66796875 104 709.000976562 c 0
 124 725.66796875 147.333007812 734.000976562 174 734.000976562 c 0
 185.333007812 734.000976562 191 731.000976562 191 725.000976562 c 0
 191 721.000976562 187.666992188 718.66796875 181 718.000976562 c 2
 170 717.000976562 l 2
 156.666992188 715.66796875 144.666992188 710.000976562 134 700.000976562 c 0
 123.333007812 690.000976562 118 678.333984375 118 665.000976562 c 0xe8
 118 643.000976562 129.666992188 622.66796875 153 604.000976562 c 0
 166.333007812 593.333984375 205.666992188 573.66796875 271 545.000976562 c 0
 337.666992188 515.66796875 383.666992188 482.66796875 409 446.000976562 c 0
 435.666992188 407.333984375 449 352.333984375 449 281.000976562 c 0
 449 221.000976562 443 176.333984375 431 147.000976562 c 0
 417 113.66796875 387.666992188 80.66796875 343 48.0009765625 c 2
 314 26.0009765625 l 2
 298 14.66796875 280 -0.9990234375 260 -20.9990234375 c 1
 244 -13.9990234375 l 1
 173 18.0009765625 l 2
 144.333007812 31.333984375 106 41.0009765625 58 47.0009765625 c 0
 46 49.0009765625 40 53.0009765625 40 59.0009765625 c 0
 40 64.333984375 41.6669921875 67.6669921875 45 69 c 2
 67 76 l 2
 81 80.6669921875 88 100.333007812 88 135 c 2
 88 422 l 1xd8
309 45.0009765625 m 1
 347.666992188 84.333984375 367 149.668945312 367 241.001953125 c 0
 367 304.334960938 361.333007812 350.668945312 350 380.001953125 c 0
 333.333007812 421.334960938 300.666992188 452.334960938 252 473.001953125 c 1
 227.333007812 450.334960938 199 431.668945312 167 417.001953125 c 1
 167 104.001953125 l 1xd8
 222.333007812 87.3349609375 269.666992188 67.66796875 309 45.0009765625 c 1
EndSplineSet
Validated: 524289
EndChar

StartChar: e
Encoding: 101 101 65
Width: 417
GlyphClass: 2
Flags: MW
HStem: -21 21G
VStem: 58 77<248 287 248 294.667>
LayerCount: 2
Fore
SplineSet
305 504 m 5
 370 304 l 5
 136 227 l 5
 142 173.666992188 149 136.333007812 157 115 c 4
 173 70.3330078125 199 48 235 48 c 4
 251 48 266.666992188 51.3330078125 282 58 c 6
 350 87 l 6
 354 89 358 90 362 90 c 4
 370.666992188 90 375 86 375 78 c 4
 375 73.3330078125 368.333007812 68 355 62 c 6
 276 26 l 5
 208 -6 l 6
 198 -10.6669921875 186.333007812 -15.6669921875 173 -21 c 5
 135.666992188 1.6669921875 110 26.6669921875 96 54 c 4
 70.6669921875 102.666992188 58 169.333007812 58 254 c 4
 58 335.333007812 75 394.333007812 109 431 c 4
 129.666992188 452.333007812 160.333007812 469.333007812 201 482 c 4
 221 488 255.666992188 495.333007812 305 504 c 5
287 297 m 5
 236 473 l 5
 198 462.333007812 173.333007812 449 162 433 c 4
 142.666992188 406.333007812 133.666992188 357.666992188 135 287 c 6
 135 248 l 5
 287 297 l 5
EndSplineSet
Validated: 524321
EndChar

StartChar: f
Encoding: 102 102 66
Width: 308
GlyphClass: 2
Flags: MW
HStem: 424 48<230.5 262 230.5 262 192 262> 643 67<218 227 218 228> 674 71<124 128.5>
VStem: 82 15 94 98<382.5 420> 238 22<716.5 720>
LayerCount: 2
Fore
SplineSet
262 472 m 1xb4
 262 424 l 1
 192 424 l 1
 192 333 181 119 158 -216 c 0
 156 -227 151 -232 142 -231 c 0
 135 -231 130 -226 128 -216 c 2
 116 -10 l 2
 101 202 94 345 94 420 c 1xac
 27 421 l 1
 27 428 l 1
 49 444 63 459 71 474 c 0
 79 491 83 513 82 539 c 2
 78 654 l 2
 77 667 79 681 84 698 c 0
 93 729 110 745 135 745 c 0xb4
 147 745 158 742 168 736 c 2
 201 716 l 2
 207 712 214 710 222 710 c 0
 232 710 238 713 238 720 c 2
 239 732 l 2
 240 738 243 741 248 741 c 0
 256 741 260 731 260 712 c 0
 260 666 244 643 212 643 c 0xd4
 199 643 180 650 155 664 c 0
 144 670 133 674 124 674 c 0
 106 675 97 662 97 636 c 0
 97 580 106 541 125 520 c 0
 153 488 199 472 262 472 c 1xb4
EndSplineSet
Validated: 33
EndChar

StartChar: g
Encoding: 103 103 67
Width: 494
GlyphClass: 2
Flags: MW
HStem: -253 19<215.667 243.333 215.667 252> -21 21G
VStem: 62 69<-192 -133.333> 323 74<98.3335 402> 370 68<-107 -91.6665>
LayerCount: 2
Fore
SplineSet
322 86 m 1xe8
 207 27 l 2
 191 19 168 3 138 -21 c 1
 103.333007812 10.3330078125 80.6669921875 41 70 71 c 0
 62 95 58 133.333007812 58 186 c 0
 58 268.666992188 63 322.666992188 73 348 c 0
 81 368.666992188 99.6669921875 390.333007812 129 413 c 0
 166 438 166 438 202 463 c 0
 225 479 225 479 257 502 c 1
 337.666992188 455.333007812 395.333007812 430.333007812 430 427 c 0
 442 425.666992188 448 422.333007812 448 417 c 0
 448 413.666992188 446.666992188 411.333007812 444 410 c 2
 421 399 l 2
 405.666992188 392.333007812 398 375.333007812 398 348 c 2
 397 102 l 2xf0
 397 94.6669921875 397.333007812 89 398 85 c 2
 401 44 l 2
 403.666992188 33.3330078125 408.333007812 20 415 4 c 0
 430.333007812 -30.6669921875 438 -58.6669921875 438 -80 c 0
 438 -134 415 -177.333007812 369 -210 c 0
 328.333007812 -238.666992188 280 -253 224 -253 c 0
 182 -253 146.333007812 -245 117 -229 c 0
 80.3330078125 -209 62 -180 62 -142 c 0
 62 -124.666992188 67 -110.333007812 77 -99 c 0
 87 -87.6669921875 100.333007812 -82 117 -82 c 0
 131 -82 143.166992188 -86.8330078125 153.5 -96.5 c 0
 163.833007812 -106.166992188 169 -118 169 -132 c 0
 169 -150.666992188 162.333007812 -162.666992188 149 -168 c 2
 138 -174 l 2
 133.333007812 -176 131 -179.666992188 131 -185 c 0
 131 -199 143.333007812 -211 168 -221 c 0
 188.666992188 -229.666992188 207.333007812 -234 224 -234 c 0
 262.666992188 -234 296.333007812 -222 325 -198 c 0
 355 -172.666992188 370 -140.666992188 370 -102 c 0
 370 -81.3330078125 367 -65.3330078125 361 -54 c 2
 339 -7 l 2
 327.666992188 15.6669921875 322 46.6669921875 322 86 c 1xe8
323 402 m 1
 287 416 253.333007812 433 222 453 c 1
 191.333007812 431.666992188 171 412.666992188 161 396 c 0
 142.333007812 362.666992188 133 303.666992188 133 219 c 0
 133 107.666992188 155 52 199 52 c 0
 205.666992188 52 214.333007812 54.6669921875 225 60 c 2
 323 108 l 1
 323 402 l 1
EndSplineSet
Validated: 524289
EndChar

StartChar: h
Encoding: 104 104 68
Width: 488
GlyphClass: 2
Flags: MW
HStem: -233 21G -22 21G 714 28
VStem: 90 79<119 389.001 93.001 410 410 519 519 541> 354 76<200.334 254.001>
LayerCount: 2
Fore
SplineSet
344 503 m 1
 401.333007812 451.666992188 430 365.66796875 430 245.000976562 c 0
 430 155.66796875 415.666992188 73.66796875 387 -0.9990234375 c 0
 355 -85.666015625 307.333007812 -152.33203125 244 -200.999023438 c 0
 216 -222.33203125 197.666992188 -232.999023438 189 -232.999023438 c 0
 181.666992188 -232.999023438 178 -228.999023438 178 -220.999023438 c 0
 178 -216.999023438 182 -212.666015625 190 -207.999023438 c 0
 258.666992188 -170.666015625 306 -96.666015625 332 14.0009765625 c 0
 346.666992188 75.333984375 354 140.66796875 354 210.000976562 c 0
 354 298.000976562 342.666992188 361.000976562 320 399.000976562 c 0
 304.666992188 425.66796875 289 439.000976562 273 439.000976562 c 0
 267.666992188 439.000976562 255 433.66796875 235 423.000976562 c 2
 169 389.000976562 l 1
 169 93.0009765625 l 1
 218 60.0009765625 l 1
 258 98.0009765625 l 2
 262 102.000976562 265.666992188 104.000976562 269 104.000976562 c 0
 275 104.000976562 278 101.000976562 278 95.0009765625 c 0
 278 90.333984375 266 76.0009765625 242 52.0009765625 c 0
 227.333007812 37.333984375 206.666992188 12.6669921875 180 -22 c 1
 136.666992188 14.6669921875 97 36.333984375 61 43.0009765625 c 0
 49.6669921875 45.0009765625 44 48.333984375 44 53.0009765625 c 0
 44 57.0009765625 46.3330078125 60.0009765625 51 62.0009765625 c 2
 75 73.0009765625 l 2
 85 78.333984375 90 93.6669921875 90 119 c 2
 90 519 l 2
 90 563 81 601.666992188 63 635 c 2
 46 667 l 2
 43.3330078125 672.333007812 42 677 42 681 c 0
 42 688.333007812 45.6669921875 692 53 692 c 0
 66.3330078125 692 83.3330078125 655.666992188 104 583 c 1
 120 632.333007812 145.666992188 670.666992188 181 698 c 0
 219.666992188 727.333007812 255.666992188 742 289 742 c 0
 304.333007812 742 312 737.333007812 312 728 c 0
 312 719.333007812 305 714.666992188 291 714 c 0
 250.333007812 711.333007812 219 692.333007812 197 657 c 0
 178.333007812 626.333007812 169 589.666992188 169 547 c 2
 169 410 l 1
 255 457 l 1
 310 484 l 2
 317 488 317 488 344 503 c 1
EndSplineSet
Validated: 524289
EndChar

StartChar: i
Encoding: 105 105 69
Width: 303
GlyphClass: 2
Flags: MW
HStem: -21 21G 589 21G
VStem: 108 77<110.667 121 110.667 368> 111 90<670.665 699.665>
LayerCount: 2
Fore
SplineSet
172 -21 m 1xe0
 148 -4.3330078125 131.333007812 12.33203125 122 28.9990234375 c 0
 112.666992188 45.666015625 108 68.3330078125 108 97 c 2
 108 368 l 2
 108 401.333007812 98 418 78 418 c 0
 74 418 68 415.666992188 60 411 c 0
 46 403 37.6669921875 399 35 399 c 0
 29 399 26 402.333007812 26 409 c 0
 26 414.333007812 29.6669921875 419 37 423 c 0
 83 448.333007812 118.333007812 475 143 503 c 1
 167.666992188 463 195 438.666992188 225 430 c 0
 233.666992188 427.333007812 238 424 238 420 c 0
 238 414.666992188 234.333007812 411.666992188 227 411 c 2
 203 409 l 2
 190.333007812 407.666992188 184 396.333007812 184 375 c 2
 185 121 l 2
 185 100.333007812 187 86 191 78 c 0
 199.666992188 61.3330078125 209.333007812 53 220 53 c 0
 223.333007812 53 228 55.3330078125 234 60 c 2
 260 78 l 2
 263.333007812 80 266 81 268 81 c 0
 273.333007812 81 276 78 276 72 c 0
 276 68.6669921875 269 61.333984375 255 50.0009765625 c 0
 225 27.333984375 197.333007812 3.6669921875 172 -21 c 1xe0
150 588.998046875 m 1
 124 624.331054688 111 656.331054688 111 684.998046875 c 0
 111 714.331054688 126.666992188 728.998046875 158 728.998046875 c 0
 186.666992188 728.998046875 201 715.331054688 201 687.998046875 c 0xd0
 201 651.998046875 184 618.998046875 150 588.998046875 c 1
EndSplineSet
Validated: 524289
EndChar

StartChar: j
Encoding: 106 106 70
Width: 291
GlyphClass: 2
Flags: MW
HStem: -243 21G<35.6665 54.3335> 725 20G<152.333 182.333>
VStem: 118 75<-32 -9 -9 362 362 363> 121 90<686.667 715.667>
LayerCount: 2
Fore
SplineSet
160 605 m 1xd0
 134 640.333007812 121 672.333007812 121 701 c 0
 121 730.333007812 136.666992188 745 168 745 c 0
 196.666992188 745 211 731.666992188 211 705 c 0
 211 668.333007812 194 635 160 605 c 1xd0
118 -32 m 2xe0
 118 362 l 2
 118 395.333007812 107.333007812 412 86 412 c 0
 80.6669921875 412 74.333984375 409.666992188 67.0009765625 405 c 0
 54.333984375 397.666992188 46.6669921875 394 44 394 c 0
 36.6669921875 394 33 397.666992188 33 405 c 0
 33 411 47 421.666992188 75 437 c 0
 106.333007812 453 128.666992188 470.333007812 142 489 c 0
 145.333007812 493.666992188 147.666992188 496 149 496 c 0
 151 496 153.333007812 493.333007812 156 488 c 0
 172.666992188 456.666992188 197.666992188 435.666992188 231 425 c 0
 240.333007812 422.333007812 245 419 245 415 c 0
 245 409.666992188 241 406.333007812 233 405 c 2
 212 401 l 2
 202.666992188 399.666992188 196.666992188 395.333007812 194 388 c 0
 193.333007812 385.333007812 193 377 193 363 c 2
 193 -9 l 2
 193 -72.3330078125 210.333007812 -129.666992188 245 -181 c 0
 248.333007812 -187 250 -192 250 -196 c 0
 250 -202.666992188 247.333007812 -206 242 -206 c 0
 231.333007812 -206 220 -192.333007812 208 -165 c 2
 196 -134 l 2
 189.333007812 -117.333007812 184.666992188 -101 182 -85 c 2
 179 -62 l 1
 177 -82 l 2
 173 -120 156.333007812 -156.333007812 127 -191 c 0
 97.6669921875 -225.666992188 68.6669921875 -243 40 -243 c 0
 31.3330078125 -243 27 -239.333007812 27 -232 c 0
 27 -227.333007812 29.6669921875 -224.333007812 35 -223 c 2
 43 -220 l 2
 65 -212 82.3330078125 -195.333007812 95 -170 c 0
 110.333007812 -140 118 -94 118 -32 c 2xe0
EndSplineSet
Validated: 524289
EndChar

StartChar: k
Encoding: 107 107 71
Width: 359
GlyphClass: 2
Flags: MW
HStem: -21 21G 426 47 561 21G 714 26
VStem: 111 77<110 425.999 83.999 427 83.999 427>
LayerCount: 2
Fore
SplineSet
188 473 m 1
 194 473.999023438 l 1
 202 568.666015625 227 623.999023438 269 639.999023438 c 0
 276.333007812 642.666015625 288.333007812 644.666015625 305 645.999023438 c 1
 305 560.999023438 l 1
 301 561.999023438 l 1
 287.666992188 572.666015625 276.333007812 577.999023438 267 577.999023438 c 0
 237 577.999023438 217.333007812 542.999023438 208 472.999023438 c 1
 309 471.999023438 l 1
 309 425.999023438 l 1
 188 425.999023438 l 1
 188 83.9990234375 l 1
 207.333007812 73.9990234375 226 62.33203125 244 48.9990234375 c 1
 271 81.9990234375 l 2
 272.333007812 82.666015625 274 82.9990234375 276 82.9990234375 c 0
 282.666992188 82.9990234375 286 79.9990234375 286 73.9990234375 c 0
 286 71.33203125 285 68.33203125 283 64.9990234375 c 2
 252 28.9990234375 l 2
 242 16.9990234375 242 16.9990234375 212 -21.0009765625 c 1
 214 -21.0009765625 201.333007812 -13.0009765625 174 2.9990234375 c 0
 149.333007812 17.666015625 132.333007812 27.3330078125 123 32 c 0
 105.666992188 40 90.6669921875 45 78 47 c 0
 68 49 63 53 63 59 c 0
 63 64.3330078125 70.6669921875 68.3330078125 86 71 c 0
 102.666992188 74.3330078125 111 87.3330078125 111 110 c 2
 111 427 l 1
 42 426 l 1
 43 437 l 1
 69.6669921875 443.666992188 88 458 98 480 c 0
 104 495.333007812 107 519.666992188 107 553 c 0
 107 605 94.3330078125 646.666992188 69 678 c 0
 61 688 57 696 57 702 c 0
 57 709.333007812 60.6669921875 713 68 713 c 0
 85.3330078125 713 103.333007812 679.666992188 122 613 c 1
 134 649.666992188 153.666992188 679.666992188 181 703 c 0
 211 727.666992188 244.333007812 740 281 740 c 0
 301.666992188 740 312 735.666992188 312 727 c 0
 312 721.666992188 302.666992188 717.333007812 284 714 c 0
 236.666992188 707.333007812 206.666992188 675.666992188 194 619 c 0
 190 597 188 548.333007812 188 473 c 1
EndSplineSet
Validated: 524325
EndChar

StartChar: l
Encoding: 108 108 72
Width: 330
GlyphClass: 2
Flags: MW
HStem: -23 21G 721 27
VStem: 106 79<83 563>
LayerCount: 2
Fore
SplineSet
115 618 m 1
 132.333007812 670.666992188 158.666992188 706.666992188 194 726 c 0
 222 740.666992188 248.333007812 748 273 748 c 0
 285 748 291 744.333007812 291 737 c 0
 291 731 279 725.666992188 255 721 c 0
 207.666992188 711.666992188 184 663.666992188 184 577 c 2
 185 83 l 1
 199 71.6669921875 213.666992188 61.6669921875 229 53 c 1
 275 95 l 2
 278.333007812 98.3330078125 282 100 286 100 c 0
 292 100 295 96.6669921875 295 90 c 0
 295 86 292.666992188 82 288 78 c 2
 224 16 l 1
 202 -8 l 2
 198.666992188 -11.3330078125 194 -16.3330078125 188 -23 c 1
 183.333007812 -19.6669921875 177.333007812 -15 170 -9 c 0
 135.333007812 17.6669921875 105.333007812 34 80 40 c 0
 66 42.6669921875 59 46.6669921875 59 52 c 0
 59 56.6669921875 61 59.6669921875 65 61 c 2
 81 66 l 2
 97.6669921875 72 106 91.6669921875 106 125 c 2
 106 563 l 2
 106 577.666992188 101.333007812 596.666992188 92 620 c 0
 82.6669921875 642 73 659.333007812 63 672 c 0
 49.6669921875 689.333007812 43 700.666992188 43 706 c 0
 43 714 46.6669921875 718 54 718 c 0
 72.6669921875 718 93 684.666992188 115 618 c 1
EndSplineSet
Validated: 524289
EndChar

StartChar: m
Encoding: 109 109 73
Width: 818
GlyphClass: 2
Flags: MW
HStem: -26 21G
VStem: 119 78 367 78<99.6665 112.998 97.3315 116> 621 76<154.998 346.998>
LayerCount: 2
Fore
SplineSet
197 367 m 1
 197.000976562 99.9970703125 l 2
 197.000976562 77.330078125 203.66796875 63.9970703125 217.000976562 59.9970703125 c 2
 238.000976562 53.9970703125 l 2
 242.000976562 52.6640625 244.000976562 49.9970703125 244.000976562 45.9970703125 c 0
 244.000976562 40.6640625 237.000976562 36.3310546875 223.000976562 32.998046875 c 0
 199.000976562 27.6650390625 183.66796875 16.998046875 177.000976562 0.998046875 c 2
 168.000976562 -17.001953125 l 2
 166.000976562 -23.001953125 162.333984375 -26.001953125 157.000976562 -26.001953125 c 0
 152.333984375 -26.001953125 148.333984375 -22.3349609375 145.000976562 -15.001953125 c 2
 136.000976562 0.998046875 l 2
 128.66796875 16.998046875 113.333984375 27.6650390625 90.0009765625 32.998046875 c 0
 76.0009765625 36.3310546875 69.0009765625 40.6640625 69.0009765625 45.9970703125 c 0
 69.0009765625 49.9970703125 71.0009765625 52.6640625 75.0009765625 53.9970703125 c 2
 96.0009765625 59.9970703125 l 2
 111.333984375 64.6640625 119.000976562 79.3310546875 119.000976562 103.998046875 c 2
 119.000976562 380.998046875 l 2
 119.000976562 390.331054688 114.66796875 401.831054688 106.000976562 415.498046875 c 0
 97.333984375 429.165039062 89.0009765625 435.998046875 81.0009765625 435.998046875 c 0
 79.0009765625 435.998046875 77.333984375 435.331054688 76.0009765625 433.998046875 c 2
 51.0009765625 419.998046875 l 2
 44.333984375 415.998046875 39.6669921875 413.998046875 37 413.998046875 c 0
 31 413.998046875 28 416.998046875 28 422.998046875 c 0
 28 428.998046875 34.3330078125 434.998046875 47 440.998046875 c 0
 68.3330078125 452.331054688 98 472.998046875 136 502.998046875 c 1
 176.666992188 480.331054688 197 441.331054688 197 385.998046875 c 1
 288 439.998046875 l 2
 312 454.665039062 341.333007812 475.331054688 376 501.998046875 c 1
 419.333007812 481.998046875 442.333007812 441.998046875 445 381.998046875 c 1
 535 428.998046875 l 2
 571 448.331054688 604.666992188 472.665039062 636 501.998046875 c 1
 670.666992188 456.665039062 698.333007812 430.998046875 719 424.998046875 c 0
 738.333007812 419.665039062 748 413.998046875 748 407.998046875 c 0
 748 403.331054688 742 398.665039062 730 393.998046875 c 0
 716 388.665039062 707.333007812 383.331054688 704 377.998046875 c 0
 699.333007812 371.331054688 697 360.998046875 697 346.998046875 c 2
 697 136.998046875 l 2
 697 68.998046875 711.333007812 34.998046875 740 34.998046875 c 0
 742.666992188 34.998046875 745.666992188 35.6650390625 749 36.998046875 c 2
 773 49.998046875 l 2
 777 51.998046875 780.333007812 52.998046875 783 52.998046875 c 0
 787.666992188 52.998046875 790 49.998046875 790 43.998046875 c 0
 790 39.3310546875 784.666992188 34.3310546875 774 28.998046875 c 0
 752.666992188 18.998046875 723.666992188 2.6650390625 687 -20.001953125 c 1
 653.666992188 1.3310546875 633.333007812 25.998046875 626 53.998046875 c 0
 622.666992188 67.998046875 621 101.665039062 621 154.998046875 c 2
 621 370.998046875 l 2
 621 381.665039062 614 392.331054688 600 402.998046875 c 0
 586 413.665039062 573.333007812 418.998046875 562 418.998046875 c 0
 557.333007812 418.998046875 553.666992188 418.331054688 551 416.998046875 c 2
 446 363.998046875 l 1
 445 112.998046875 l 2
 445 81.6650390625 451.666992188 63.998046875 465 59.998046875 c 2
 485 52.998046875 l 2
 489.666992188 51.6650390625 492 48.998046875 492 44.998046875 c 0
 492 39.6650390625 484.666992188 35.33203125 470 31.9990234375 c 0
 446.666992188 26.666015625 431.333007812 16.3330078125 424 1 c 2
 416 -18 l 2
 413.333007812 -24 409.666992188 -27 405 -27 c 0
 400.333007812 -27 396 -23.3330078125 392 -16 c 2
 384 1 l 2
 376 17 360.666992188 27.3330078125 338 32 c 0
 324 35.3330078125 317 39.666015625 317 44.9990234375 c 0
 317 48.9990234375 319 51.666015625 323 52.9990234375 c 2
 343 59.9990234375 l 2
 359 64.666015625 367 83.3330078125 367 116 c 2
 368 377 l 2
 368 389 361.666992188 400.5 349 411.5 c 0
 336.333007812 422.5 324 428 312 428 c 0
 307.333007812 428 302.333007812 426.333007812 297 423 c 2
 197 367 l 1
EndSplineSet
Validated: 524289
EndChar

StartChar: n
Encoding: 110 110 74
Width: 569
GlyphClass: 2
Flags: MW
HStem: -25 21G
VStem: 119 78<101.333 116 116 118> 369 80<133.667 139 139 159>
LayerCount: 2
Fore
SplineSet
196 384 m 1
 286 431 l 2
 328.666992188 453 362.666992188 477 388 503 c 1
 408 477 419.666992188 462.333007812 423 459 c 0
 438.333007812 443 454 432.666992188 470 428 c 0
 489.333007812 423.333007812 499 417.333007812 499 410 c 0
 499 404.666992188 493 400 481 396 c 0
 459.666992188 389.333007812 449 373.333007812 449 348 c 2
 449 139 l 2
 449 118.333007812 451.666992188 98.3330078125 457 79 c 0
 465 51 476.333007812 37 491 37 c 0
 493.666992188 37 496.666992188 37.6669921875 500 39 c 2
 524 52 l 2
 528 54 531 55 533 55 c 0
 539 55 542 52 542 46 c 0
 542 42 536.666992188 37 526 31 c 2
 468 -1 l 2
 465.333007812 -2.3330078125 455.333007812 -9.3330078125 438 -22 c 1
 406 2.6669921875 385.666992188 29 377 57 c 0
 371.666992188 74.3330078125 369 108.333007812 369 159 c 2
 370 372 l 2
 370 382 363.166992188 392.666992188 349.5 404 c 0
 335.833007812 415.333007812 324 421 314 421 c 0
 310 421 306 420 302 418 c 2
 197 365 l 1
 197 116 l 2
 197 83.3330078125 203.333007812 65 216 61 c 2
 236 55 l 2
 240.666992188 53.6669921875 243 51 243 47 c 0
 243 41.6669921875 236 37.333984375 222 34.0009765625 c 0
 198 28.66796875 182.333007812 18.0009765625 175 2.0009765625 c 2
 167 -15.9990234375 l 2
 164.333007812 -21.9990234375 160.666992188 -24.9990234375 156 -24.9990234375 c 0
 150.666992188 -24.9990234375 146.333007812 -21.33203125 143 -13.9990234375 c 2
 135 2.0009765625 l 2
 127 18.0009765625 111.666992188 28.66796875 89 34.0009765625 c 0
 75 37.333984375 68 41.6669921875 68 47 c 0
 68 51 70 53.6669921875 74 55 c 2
 95 61 l 2
 111 65.6669921875 119 84.6669921875 119 118 c 2
 118 378 l 2
 118 389.333007812 114.333007812 401.333007812 107 414 c 0
 99.6669921875 428 90.6669921875 435 80 435 c 0
 78 435 76.3330078125 434.333007812 75 433 c 2
 51 419 l 2
 44.3330078125 415.666992188 39.3330078125 414 36 414 c 0
 30.6669921875 414 28 417 28 423 c 0
 28 429 34.3330078125 435 47 441 c 0
 55 444.333007812 66.6669921875 451.666992188 82 463 c 2
 124 493 l 2
 125.333007812 494.333007812 129.333007812 497.333007812 136 502 c 1
 176 479.333007812 196 440 196 384 c 1
EndSplineSet
Validated: 524289
EndChar

StartChar: o
Encoding: 111 111 75
Width: 495
GlyphClass: 2
Flags: MW
HStem: -22 21G<256 256> 485 20G
VStem: 92 79<105 443> 359 79<250.333 256.333>
AnchorPoint: "top" 245 650 basechar 0
LayerCount: 2
Fore
SplineSet
256 -22 m 1
 208 2 l 2
 148.666992188 31.3330078125 100.666992188 48.3330078125 64 53 c 0
 47.3330078125 55.6669921875 39 60.6669921875 39 68 c 0
 39 72 40.6669921875 74.6669921875 44 76 c 2
 68 87 l 2
 84 95 92 110.333007812 92 133 c 2
 92 443 l 1
 193.333007812 451.666992188 270.333007812 472.333007812 323 505 c 1
 399.666992188 455.666992188 438 380 438 278 c 0
 438 222.666992188 428.333007812 177.333007812 409 142 c 0
 392.333007812 110.666992188 361 75.3330078125 315 36 c 0
 294.333007812 18 274.666992188 -1.3330078125 256 -22 c 1
171 105 m 1
 199.666992188 93 216.666992188 85.666015625 222 82.9990234375 c 2
 283 52.9990234375 l 2
 285 51.666015625 289.333007812 49.3330078125 296 46 c 1
 338 93.3330078125 359 155.333007812 359 232 c 0
 359 280.666992188 351.666992188 324.666992188 337 364 c 0
 317 418.666992188 286.666992188 446 246 446 c 0
 234 446 216 442.666992188 192 436 c 0
 188.666992188 435.333007812 181.333007812 433.333007812 170 430 c 1
 171 105 l 1
EndSplineSet
Validated: 524289
EndChar

StartChar: p
Encoding: 112 112 76
Width: 532
GlyphClass: 2
Flags: MW
HStem: -236 21G<171.667 182.333> -3 21G 43 69<81.6665 134> 486 20G
VStem: 32 17 88 51<470 544> 134 77<112 112> 158 38<4.29497e+09 4.29497e+09> 396 79<287.333 303.667>
LayerCount: 2
Fore
SplineSet
210 18 m 1xfa80
 210 -32 205.333007812 -107.333007812 196 -208 c 0
 194 -226.666992188 187.666992188 -236 177 -236 c 0
 166.333007812 -236 160 -226.666992188 158 -208 c 0xf980
 152 -152.666992188 145.333007812 -72.3330078125 138 33 c 1
 118.666992188 39.6669921875 104 43 94 43 c 0
 69.3330078125 43 54.3330078125 32 49 10 c 0
 46.3330078125 1.3330078125 43.3330078125 -3 40 -3 c 0
 34.6669921875 -3 32 0.6669921875 32 8 c 0
 32 36 40 60 56 80 c 0
 72.6669921875 101.333007812 94.6669921875 112 122 112 c 2
 134 112 l 1xfa80
 132 380 l 2
 132 397.333007812 129 409.333007812 123 416 c 2
 99 444 l 2
 91.6669921875 453.333007812 88 464 88 476 c 0
 88 490 93.6669921875 513 105 545 c 0
 118.333007812 581 129.666992188 599 139 599 c 0
 146.333007812 599 150 595 150 587 c 0
 150 583 148.666992188 577.333007812 146 570 c 0
 141.333007812 558 139 548 139 540 c 0xfc80
 139 526 152.333007812 507.333007812 179 484 c 0
 198.333007812 467.333007812 209 444.666992188 211 416 c 1
 290 453 l 2
 318.666992188 465.666992188 347 483.333007812 375 506 c 1
 413.666992188 480 440 453.666992188 454 427 c 0
 468 400.333007812 475 363.666992188 475 317 c 0
 475 257.666992188 472.666992188 214 468 186 c 0
 459.333007812 131.333007812 440.666992188 93.3330078125 412 72 c 2
 369 39 l 2
 343.666992188 19.6669921875 324 -2.3330078125 310 -27 c 1
 210 18 l 1xfa80
211 99 m 1xfa80
 259.666992188 81.6669921875 302.666992188 62.6669921875 340 42 c 1
 366.666992188 68.6669921875 383.666992188 107.333007812 391 158 c 0
 394.333007812 179.333007812 396 222.333007812 396 287 c 0
 396 320.333007812 391 351 381 379 c 0
 367 419 346 439 318 439 c 0
 312 439 303.333007812 436.333007812 292 431 c 2
 211 396 l 1
 211 99 l 1xfa80
EndSplineSet
Validated: 524289
EndChar

StartChar: q
Encoding: 113 113 77
Width: 489
GlyphClass: 2
Flags: MW
HStem: -22 21G
VStem: 58 72<168 233.333> 311 77<-6.6665 76 -6.6665 383>
LayerCount: 2
Fore
SplineSet
365 -234 m 0
 360.333007812 -244.666992188 354.666992188 -250 348 -250 c 0
 338.666992188 -250 332.666992188 -243.666992188 330 -231 c 0
 322.666992188 -165.666992188 317.333007812 -88.3330078125 314 1 c 2
 311 76 l 1
 255.666992188 46 219.333007812 25.6669921875 202 15 c 2
 164 -10 l 2
 159 -13 159 -13 143 -22 c 1
 118.333007812 -3.3330078125 101.333007812 14.6669921875 92 32 c 0
 69.3330078125 73.3330078125 58 131 58 205 c 0
 58 261.666992188 64.6669921875 307.333007812 78 342 c 0
 93.3330078125 380.666992188 130.666992188 419 190 457 c 0
 213.333007812 471.666992188 234 486.666992188 252 502 c 1
 330.666992188 458.666992188 385 433.333007812 415 426 c 0
 437.666992188 420.666992188 449 414.333007812 449 407 c 0
 449 399 438.666992188 394.333007812 418 393 c 0
 403.333007812 391.666992188 394.333007812 386.666992188 391 378 c 0
 388.333007812 373.333007812 387 362 387 344 c 2
 388 26 l 2
 388 -39.3330078125 380.333007812 -126 365 -234 c 0
311 383 m 1
 293.666992188 391 270.333007812 403.666992188 241 421 c 0
 230 427 230 427 202 443 c 1
 154 414.333007812 130 340.333007812 130 221 c 0
 130 104.333007812 154.666992188 46 204 46 c 0
 217.333007812 46 253 61.6669921875 311 93 c 1
 311 383 l 1
EndSplineSet
Validated: 524289
EndChar

StartChar: r
Encoding: 114 114 78
Width: 449
GlyphClass: 2
Flags: MW
HStem: -20 21G 486 20G
VStem: 127 79
LayerCount: 2
Fore
SplineSet
406 413 m 1
 346.999023438 368.998046875 l 1
 326.33203125 396.998046875 305.33203125 423.665039062 283.999023438 448.998046875 c 1
 231.999023438 410.998046875 205.999023438 358.665039062 205.999023438 291.998046875 c 2
 205.999023438 87.998046875 l 1
 283.999023438 47.998046875 l 1
 337.999023438 96.998046875 l 2
 340.666015625 99.6650390625 343.666015625 100.998046875 346.999023438 100.998046875 c 0
 354.999023438 100.998046875 358.999023438 97.3310546875 358.999023438 89.998046875 c 0
 358.999023438 84.6650390625 349.999023438 75.33203125 331.999023438 61.9990234375 c 0
 330.666015625 59.9990234375 315.666015625 45.9990234375 286.999023438 19.9990234375 c 2
 243.999023438 -20.0009765625 l 1
 174.666015625 20.666015625 122.666015625 44.666015625 87.9990234375 51.9990234375 c 0
 79.9990234375 53.9990234375 75.9990234375 57.33203125 75.9990234375 61.9990234375 c 0
 75.9990234375 68.666015625 82.9990234375 73.3330078125 96.9990234375 76 c 0
 116.999023438 80.6669921875 126.999023438 90.6669921875 126.999023438 106 c 2
 126.999023438 361 l 2
 126.999023438 378.333007812 123.999023438 394.666992188 117.999023438 410 c 0
 109.999023438 429.333007812 98.33203125 439 82.9990234375 439 c 0
 79.666015625 439 76.3330078125 438 73 436 c 2
 47 418 l 2
 43.6669921875 416 40.333984375 415 37.0009765625 415 c 0
 31.0009765625 415 28.0009765625 417.666992188 28.0009765625 423 c 0
 28.0009765625 429.666992188 40.0009765625 441 64.0009765625 457 c 0
 73.333984375 462.333007812 84.6669921875 470 98 480 c 0
 108 487 108 487 134 506 c 1
 159.333007812 487.333007812 176.666992188 469.333007812 186 452 c 0
 194 436 199.333007812 411.333007812 202 378 c 1
 226.666992188 430.666992188 271.333007812 472.333007812 336 503 c 1
 358.666992188 472.333007812 382 442.333007812 406 413 c 1
EndSplineSet
Validated: 524289
EndChar

StartChar: s
Encoding: 115 115 79
Width: 453
GlyphClass: 2
Flags: MW
HStem: -19 21G<49.6665 54.3335> 37 52<119.334 202.667> 405 64<265 265.667> 485 20G<184 184> 569 21G<98 103> 627 19<204.667 242.667>
VStem: 32 53 350 28<527.667 544 507.333 551> 362 57
LayerCount: 2
Fore
SplineSet
140 447 m 1xff
 103.333007812 402.333007812 85.0009765625 366.333007812 85.0009765625 339 c 0
 85.0009765625 317 92.66796875 295 108.000976562 273 c 0
 125.333984375 249.666992188 144.66796875 238 166.000976562 238 c 0
 178.000976562 238 191.000976562 244.333007812 205.000976562 257 c 0
 219.000976562 273 219.000976562 273 234.000976562 290 c 2
 268.000976562 327 l 2
 275.333984375 335 285.66796875 347 299.000976562 363 c 1
 337.66796875 344.333007812 366.000976562 325.333007812 384.000976562 306 c 0
 407.333984375 280.666992188 419.000976562 249.666992188 419.000976562 213 c 0
 419.000976562 179.666992188 411.000976562 150.666992188 395.000976562 126 c 0
 385.000976562 112 363.66796875 89.6669921875 331.000976562 59 c 0
 307.66796875 37 284.000976562 9.6669921875 260.000976562 -23 c 1
 214.66796875 17 173.333984375 37 136.000976562 37 c 0
 102.66796875 37 79.333984375 23.6669921875 66.0009765625 -3 c 0
 61.333984375 -13.6669921875 56.6669921875 -19 52 -19 c 0
 47.3330078125 -19 45 -16.3330078125 45 -11 c 0
 45 -1 54.3330078125 15.3330078125 73 38 c 0
 101.666992188 72 140 89 188 89 c 0
 217.333007812 89 254.333007812 76 299 50 c 1
 341 89.3330078125 362 128.666992188 362 168 c 0xfe80
 362 194.666992188 353 219 335 241 c 0
 316.333007812 264.333007812 294 276 268 276 c 0
 256 276 243.666992188 270.666992188 231 260 c 0
 228.333007812 257.333007812 218.666992188 247 202 229 c 2
 161 183 l 2
 153.666992188 175 145.333007812 165.333007812 136 154 c 1
 66.6669921875 189.333007812 32 234 32 288 c 0
 32 319.333007812 41.6669921875 349.333007812 61 378 c 0
 73.6669921875 398 95 422.333007812 125 451 c 2
 184 505 l 1
 224.666992188 481 255 469 275 469 c 0
 293.666992188 469 310.833007812 475.666992188 326.5 489 c 0
 342.166992188 502.333007812 350 518.333007812 350 537 c 0
 350 565 336.333007812 587.666992188 309 605 c 0
 284.333007812 619.666992188 257.333007812 627 228 627 c 0
 181.333007812 627 145.666992188 612.666992188 121 584 c 0
 111.666992188 574 105 569 101 569 c 0
 95 569 92 572 92 578 c 0
 92 581.333007812 94.3330078125 585.666992188 99 591 c 0
 127 627.666992188 171 646 231 646 c 0
 270.333007812 646 304 635.666992188 332 615 c 0
 362.666992188 593 378 563 378 525 c 0
 378 489.666992188 365 460.666992188 339 438 c 0
 313.666992188 416 283.333007812 405 248 405 c 0
 212 405 176 419 140 447 c 1xff
EndSplineSet
Validated: 524289
Substitution2: "Einzelne Substitution Nachschlagetabelle 3 Subtabelle" longs
EndChar

StartChar: t
Encoding: 116 116 80
Width: 377
GlyphClass: 2
Flags: MW
HStem: -21 21G 417 52
VStem: 124 78<78.999 111> 181 24
LayerCount: 2
Fore
SplineSet
201 469 m 1xd0
 311 468.999023438 l 1
 311 417.999023438 l 1
 201 416.999023438 l 1
 202 78.9990234375 l 1
 259 49.9990234375 l 1
 291 76.9990234375 l 2
 301.666992188 86.33203125 308.666992188 90.9990234375 312 90.9990234375 c 0
 318 90.9990234375 321 88.33203125 321 82.9990234375 c 0
 321 77.666015625 316.333007812 70.9990234375 307 62.9990234375 c 0
 282.333007812 42.33203125 252.666992188 14.33203125 218 -21.0009765625 c 1
 162.666992188 18.33203125 119.666992188 39.33203125 89 41.9990234375 c 0
 77 41.9990234375 71 45.33203125 71 51.9990234375 c 0
 71 57.33203125 77 61.33203125 89 63.9990234375 c 0
 112.333007812 70.666015625 124 86.3330078125 124 111 c 2xe0
 123 421 l 1
 37 421 l 1
 37 427 l 1
 94.3330078125 462.333007812 132 501.333007812 150 544 c 0
 168 585.333007812 178.333007812 624 181 660 c 0
 182.333007812 675.333007812 186.666992188 683 194 683 c 0
 201.333007812 683 205 678.666992188 205 670 c 2
 205 641 l 1
 201 469 l 1xd0
EndSplineSet
Validated: 524289
EndChar

StartChar: u
Encoding: 117 117 81
Width: 549
GlyphClass: 2
Flags: MW
HStem: -22 21G 490 20G
VStem: 108 78<95 123 123 123> 351 78<385.001 386.001 386.001 395.667>
AnchorPoint: "top" 250 650 basechar 0
LayerCount: 2
Fore
SplineSet
351 116 m 1
 351 386.000976562 l 2
 351 405.333984375 345.333007812 416.333984375 334 419.000976562 c 2
 308 426.000976562 l 2
 301.333007812 428.000976562 298 431.333984375 298 436.000976562 c 0
 298 442.000976562 305.333007812 446.000976562 320 448.000976562 c 0
 346.666992188 452.000976562 364.666992188 465.66796875 374 489.000976562 c 0
 379.333007812 503.000976562 384 510.000976562 388 510.000976562 c 0
 393.333007812 510.000976562 397.666992188 504.000976562 401 492.000976562 c 0
 407 469.333984375 417.333007812 456.333984375 432 453.000976562 c 2
 461 445.000976562 l 2
 469.666992188 442.333984375 474 439.000976562 474 435.000976562 c 0
 474 429.66796875 468.333007812 426.000976562 457 424.000976562 c 0
 439 422.000976562 429.666992188 416.000976562 429 406.000976562 c 2
 429 385.000976562 l 1
 428 122.000976562 l 2
 428 68.66796875 440 42.0009765625 464 42.0009765625 c 0
 468 42.0009765625 472.333007812 42.66796875 477 44.0009765625 c 2
 509 60.0009765625 l 2
 511 60.66796875 513 61.0009765625 515 61.0009765625 c 0
 520.333007812 61.0009765625 523 58.0009765625 523 52.0009765625 c 0
 523 48.0009765625 521 45.0009765625 517 43.0009765625 c 2
 499 35.0009765625 l 2
 483.666992188 27.0009765625 454.666992188 8.333984375 412 -20.9990234375 c 1
 390 -7.666015625 374.666992188 8.6669921875 366 28 c 0
 360 40.6669921875 355.333007812 63 352 95 c 1
 232 21 l 2
 218 12.3330078125 197.333007812 -2 170 -22 c 1
 135.333007812 15.3330078125 107.666992188 35.3330078125 87 38 c 0
 69.6669921875 40 61 44.3330078125 61 51 c 0
 61 56.3330078125 63 60 67 62 c 2
 89 69 l 2
 100.333007812 73 106.666992188 81.6669921875 108 95 c 2
 108 123 l 1
 106 389 l 2
 106 421 98.6669921875 437 84 437 c 0
 80.6669921875 437 76 435.333007812 70 432 c 2
 44 416 l 2
 42.6669921875 415.333007812 41 415 39 415 c 0
 33 415 30 418.333007812 30 425 c 0
 30 429.666992188 33.3330078125 434 40 438 c 0
 75.3330078125 459.333007812 106 480.666992188 132 502 c 1
 154 490.666992188 168.666992188 476.666992188 176 460 c 0
 182.666992188 446.666992188 186 426.333007812 186 399 c 2
 186 81 l 1
 207 63 207 63 229 43 c 1
 253 57 l 1
 351 116 l 1
EndSplineSet
Validated: 524289
EndChar

StartChar: v
Encoding: 118 118 82
Width: 515
GlyphClass: 2
Flags: MW
HStem: -22 21G 485 21G
VStem: 40 57<452.667 528.333> 99 78<114 356 356 364.667> 372 81<217 291.665 215.332 301.667>
LayerCount: 2
Fore
SplineSet
177 95 m 1
 182.333007812 93 205.333007812 83.6669921875 246 67 c 0
 284 51.6669921875 304.666992188 44 308 44 c 0
 332.666992188 44 350.666992188 71.6669921875 362 127 c 0
 368.666992188 160.333007812 372 197 372 237 c 0
 372 366.333007812 340.666992188 431 278 431 c 0
 266 431 255.666992188 428.666992188 247 424 c 2
 177 391 l 1
 177 95 l 1
173 410 m 1
 263 456.998046875 l 2
 284.333007812 468.331054688 311 484.331054688 343 504.998046875 c 1
 366.333007812 488.998046875 382.333007812 477.331054688 391 469.998046875 c 0
 407 456.665039062 419 441.331054688 427 423.998046875 c 0
 444.333007812 388.665039062 453 331.331054688 453 251.998046875 c 0
 453 178.665039062 436.666992188 124.331054688 404 88.998046875 c 0
 391.333007812 75.6650390625 365 54.998046875 325 26.998046875 c 0
 307 13.6650390625 287 -2.66796875 265 -22.0009765625 c 1
 192.333007812 9.33203125 130 29.6650390625 78 38.998046875 c 0
 64 40.998046875 57 45.6650390625 57 52.998046875 c 0
 57 57.6650390625 63.3330078125 62.33203125 76 66.9990234375 c 0
 91.3330078125 73.666015625 99 89.3330078125 99 114 c 2
 99 356 l 2
 99 373.333007812 87.3330078125 393 64 415 c 0
 48 430.333007812 40 445.333007812 40 460 c 0
 40 473.333007812 44.6669921875 491.333007812 54 514 c 2
 73 562 l 2
 81 583.333007812 89.6669921875 594 99 594 c 0
 104.333007812 594 107 590.333007812 107 583 c 0
 107 578.333007812 106.333007812 572.666992188 105 566 c 2
 99 542 l 2
 97.6669921875 537.333007812 97 531.666992188 97 525 c 0
 97 509.666992188 104 495.333007812 118 482 c 2
 149 453 l 2
 160.333007812 443 168.333007812 428.666992188 173 410 c 1
EndSplineSet
Validated: 524289
EndChar

StartChar: w
Encoding: 119 119 83
Width: 741
GlyphClass: 2
Flags: MW
HStem: -30 21G<129 132> -21 57 492 21G
VStem: 40 54<443.5 526> 91 78<97.5 361> 334 81<83 120 83 120> 604 79<212.5 276.5 201.5 277.5>
LayerCount: 2
Fore
SplineSet
162 406 m 1xb6
 250 455 l 2
 267 464 290 479 321 499 c 2
 341 512 l 1
 363 496 378 483 386 472 c 0
 395 460 403 442 410 417 c 1
 453 439 496 462 537 487 c 2
 577 511 l 1
 600 502 623 483 646 453 c 0
 666 427 678 394 682 353 c 0
 683 344 683 308 683 245 c 0
 683 158 646 91 571 42 c 2
 528 15 l 2
 519 8 508 0 496 -11 c 0
 490 -17 484 -21 480 -21 c 0
 478 -21 474 -20 469 -18 c 2
 408 9 l 2
 367 27 336 36 316 36 c 0
 303 36 297 40 297 46 c 0
 297 51 298 54 301 56 c 2
 317 64 l 2
 327 69 333 77 334 86 c 2
 334 120 l 1
 336 380 l 2
 336 392 331 406 320 421 c 0
 310 437 299 445 288 446 c 0
 282 446 274 443 261 435 c 0
 257 432 247 427 233 419 c 2
 170 386 l 1
 169 114 l 2x6e
 169 81 177 62 194 57 c 2
 214 50 l 2
 218 49 220 47 220 43 c 0
 220 37 213 33 199 30 c 0
 177 25 161 14 153 -1 c 2
 143 -20 l 2
 140 -26 136 -29 132 -30 c 0
 126 -30 121 -27 117 -18 c 2
 110 -2 l 2
 103 14 86 25 61 30 c 0
 47 33 40 37 40 43 c 0xb6
 40 47 42 49 46 50 c 2
 66 57 l 2
 83 62 91 81 91 114 c 2
 91 361 l 2xae
 91 369 85 380 72 393 c 0
 51 415 40 434 40 453 c 0
 40 469 47 495 61 532 c 0
 75 573 88 593 98 593 c 0
 106 593 110 589 110 582 c 0
 110 579 109 576 108 573 c 0
 99 550 94 532 94 520 c 0
 94 503 103 488 119 473 c 2
 143 451 l 2
 153 442 159 427 162 406 c 1xb6
415 83 m 1
 427 77 440 72 453 66 c 0
 467 61 478 56 487 51 c 0
 505 41 518 36 524 36 c 0
 535 36 548 45 562 63 c 0
 574 78 582 92 587 105 c 0
 598 135 604 181 604 244 c 0
 604 311 598 359 585 387 c 0
 569 422 546 440 517 440 c 0
 506 440 494 437 481 431 c 2
 413 396 l 1
 415 83 l 1
EndSplineSet
Validated: 1
EndChar

StartChar: x
Encoding: 120 120 84
Width: 446
GlyphClass: 2
Flags: MW
HStem: -221 17 -24 21G 485 20G<128 128>
VStem: 42 30<-95.6655 -73.3325 -104.333 -52.3325> 127 78<91.001 105> 305 70<-130.999 -130.999>
LayerCount: 2
Fore
SplineSet
201 378 m 1
 225.666992188 430.666992188 271 472.66796875 337 504.000976562 c 1
 358.333007812 472.66796875 381 442.333984375 405 413.000976562 c 1
 346 369.000976562 l 1
 325.333007812 397.66796875 304.333007812 424.66796875 283 450.000976562 c 1
 232.333007812 410.000976562 206.666992188 356.333984375 206 289.000976562 c 2
 205 91.0009765625 l 1
 280 48.0009765625 l 1
 337 96.0009765625 l 2
 340.333007812 98.66796875 343.666992188 100.000976562 347 100.000976562 c 0
 353.666992188 100.000976562 357 96.66796875 357 90.0009765625 c 0
 357 86.0009765625 353 80.66796875 345 74.0009765625 c 0
 323 55.333984375 290 22.6669921875 246 -24 c 1
 205.333007812 0.6669921875 177 13 161 13 c 0
 136.333007812 13 115.333007812 2.8330078125 98 -17.5 c 0
 80.6669921875 -37.8330078125 72 -60.666015625 72 -85.9990234375 c 0
 72 -122.666015625 88.6669921875 -151.999023438 122 -173.999023438 c 0
 151.333007812 -193.999023438 185 -203.999023438 223 -203.999023438 c 0
 241.666992188 -203.999023438 258 -199.666015625 272 -190.999023438 c 0
 288.666992188 -181.666015625 298.666992188 -168.33203125 302 -150.999023438 c 2
 305 -130.999023438 l 2
 309 -110.33203125 319.666992188 -99.9990234375 337 -99.9990234375 c 0
 346.333007812 -99.9990234375 355 -102.83203125 363 -108.499023438 c 0
 371 -114.166015625 375 -121.33203125 375 -129.999023438 c 0
 375 -160.666015625 356.333007812 -184.33203125 319 -200.999023438 c 0
 291 -214.33203125 259.666992188 -220.999023438 225 -220.999023438 c 0
 175.666992188 -220.999023438 134 -208.666015625 100 -183.999023438 c 0
 61.3330078125 -156.666015625 42 -119.33203125 42 -71.9990234375 c 0
 42 -32.666015625 60 7.0009765625 96 47.0009765625 c 0
 116.666992188 70.333984375 127 89.6669921875 127 105 c 2
 126 361 l 2
 126 378.333007812 123 394.666992188 117 410 c 0
 109 430 97.6669921875 440 83 440 c 0
 79.6669921875 440 76 438.666992188 72 436 c 2
 47 418 l 2
 43.6669921875 416 40 415 36 415 c 0
 30 415 27 417.666992188 27 423 c 0
 27 429.666992188 39 440.666992188 63 456 c 0
 68.3330078125 459.333007812 82.3330078125 469.666992188 105 487 c 2
 128 505 l 1
 156 488.333007812 175.166992188 471 185.5 453 c 0
 195.833007812 435 201 410 201 378 c 1
EndSplineSet
Validated: 524289
EndChar

StartChar: y
Encoding: 121 121 85
Width: 478
GlyphClass: 2
Flags: MW
HStem: -22 21G 32 23<48 79.3345> 566 20G<98 105>
VStem: 42 57<451 523> 87 78 351 69<179.333 230.333>
LayerCount: 2
Fore
SplineSet
165 376 m 1xec
 165.000976562 84.9990234375 l 1
 227.000976562 54.9990234375 l 1
 259.000976562 97.9990234375 l 2
 260.333984375 99.33203125 262.66796875 99.9990234375 266.000976562 99.9990234375 c 0
 273.333984375 99.9990234375 276.66796875 96.666015625 276.000976562 89.9990234375 c 0
 276.000976562 86.666015625 269.333984375 76.666015625 256.000976562 59.9990234375 c 0
 234.000976562 30.666015625 215.333984375 4.666015625 200.000976562 -18.0009765625 c 0
 198.000976562 -20.0009765625 196.333984375 -21.333984375 195.000976562 -22.0009765625 c 0
 193.66796875 -21.333984375 192.000976562 -20.6669921875 190.000976562 -20 c 0
 135.333984375 14.6669921875 93.66796875 32 65.0009765625 32 c 0
 49.0009765625 32 41.0009765625 36 41.0009765625 44 c 0
 40.333984375 50 42.6669921875 53.6669921875 48 55 c 2
 67 60 l 2
 80.3330078125 64 87 74 87 90 c 2xec
 86 368 l 2
 86 377.333007812 82 387 74 397 c 2
 49 428 l 2
 44.3330078125 434 42 444 42 458 c 0
 42 474.666992188 45.3330078125 490 52 504 c 2
 73 549 l 2
 84.3330078125 573.666992188 94 586 102 586 c 0
 108 586 111 583 111 577 c 0
 111 571.666992188 110 566 108 560 c 0
 102 542 99 528 99 518 c 0xf4
 99 506 108.333007812 492.333007812 127 477 c 0
 149 460.333007812 161.666992188 434 165 398 c 1
 234 437 l 2
 258.666992188 451 291.666992188 472 333 500 c 1
 361.666992188 482 381.666992188 460 393 434 c 0
 411 392 420 319 420 215 c 0
 420 143.666992188 410.333007812 74.3330078125 391 7 c 0
 367.666992188 -75 334 -135 290 -173 c 2
 258 -201 l 2
 238 -219 224.666992188 -228.333007812 218 -229 c 0
 210 -229.666992188 206 -226 206 -218 c 0
 206 -212.666992188 210 -207.333007812 218 -202 c 0
 252.666992188 -180.666992188 279 -150.666992188 297 -112 c 0
 333 -36 351 70.3330078125 351 207 c 0
 351 253.666992188 347 296.333007812 339 335 c 0
 327 399.666992188 306.333007812 432 277 432 c 0
 269 432 254.333007812 426.333007812 233 415 c 2
 165 376 l 1xec
EndSplineSet
Validated: 524289
EndChar

StartChar: z
Encoding: 122 122 86
Width: 424
GlyphClass: 2
Flags: MW
HStem: -253 14<196.333 226.333 196.333 236.667>
VStem: 66 51<-92.6665 -55.3335 -92.6665 -49.6665> 206 84<339.333 416> 294 73<-75.6665 -28.6665 -75.6665 -24>
LayerCount: 2
Fore
SplineSet
162 233 m 1
 189.333007812 223.666992188 219 208.333007812 251 187 c 1
 310.333007812 226.333007812 345.333007812 246 356 246 c 0
 363.333007812 246 367 243 367 237 c 0
 367 231.666992188 358 224.666992188 340 216 c 0
 332.666992188 212.666992188 319.666992188 205.333007812 301 194 c 0
 297 192 286.333007812 185.666992188 269 175 c 1
 307 143.666992188 332.666992188 110.333007812 346 75 c 0
 360 35.6669921875 367 -6.3330078125 367 -51 c 0
 367 -100.333007812 354 -145 328 -185 c 0
 298.666992188 -230.333007812 260.333007812 -253 213 -253 c 0
 168.333007812 -253 132 -234.333007812 104 -197 c 0
 78.6669921875 -163 66 -122.666992188 66 -76 c 0
 66 -23.3330078125 80 22.6669921875 108 62 c 0
 129.333007812 92.6669921875 165 126 215 162 c 1
 194.333007812 182 169.666992188 198.666992188 141 212 c 1
 129.666992188 205.333007812 120.666992188 199.666992188 114 195 c 0
 98 183.666992188 86 178 78 178 c 0
 65.3330078125 178 59 182.666992188 59 192 c 0
 59 204 77.6669921875 216 115 228 c 0
 143 236.666992188 165.166992188 252.5 181.5 275.5 c 0
 197.833007812 298.5 206 324.666992188 206 354 c 0
 206 372.666992188 201 389 191 403 c 0
 179.666992188 419 164.666992188 427 146 427 c 0
 140 427 134.333007812 425.333007812 129 422 c 2
 95 399 l 2
 81.6669921875 389.666992188 74 385 72 385 c 0
 65.3330078125 385 62 389 62 397 c 0
 62 403 78.3330078125 416.666992188 111 438 c 0
 133.666992188 452 165 474 205 504 c 1
 261.666992188 473.333007812 290 437 290 395 c 0
 290 342.333007812 247.333007812 288.333007812 162 233 c 1
228 147 m 1
 194.666992188 119.666992188 168 86.3330078125 148 47 c 0
 127.333007812 6.3330078125 117 -34.6669921875 117 -76 c 0
 117 -109.333007812 124.333007812 -142.666992188 139 -176 c 0
 157.666992188 -218 181.666992188 -239 211 -239 c 0
 241.666992188 -239 264.333007812 -216 279 -170 c 0
 289 -138 294 -102.666992188 294 -64 c 0
 294 16 272 86.3330078125 228 147 c 1
EndSplineSet
Validated: 524289
EndChar

StartChar: currency
Encoding: 164 164 87
Width: 500
GlyphClass: 2
Flags: MW
HStem: 146 55<219.5 253 216.5 256.5> 464 56<216.5 249 214.5 253> 515 20G<58 58 411 411>
VStem: 47 57<314 343.5> 366 56<314 344 308.5 350>
LayerCount: 2
Fore
SplineSet
366 332 m 0xd8
 366 368 353 400 328 425 c 0
 302 451 271 464 235 464 c 0
 198 464 167 451 142 425 c 0
 117 400 104 368 104 332 c 0
 104 296 117 265 142 239 c 0
 167 214 198 201 235 201 c 0
 271 201 302 214 328 239 c 0
 353 265 366 296 366 332 c 0xd8
47 330 m 0
 47 357 52 382 62 404 c 0
 68 417 77 433 90 451 c 1
 32 509 l 1
 58 535 l 1xb8
 117 479 l 1
 153 506 193 520 236 520 c 0xd8
 262 520 286 515 307 505 c 0
 320 500 335 490 353 477 c 1
 411 535 l 1xb8
 438 509 l 1
 379 451 l 1
 392 435 401 421 407 408 c 0
 417 385 422 359 422 329 c 0
 422 288 408 250 379 214 c 1
 438 156 l 1
 411 128 l 1
 353 186 l 1
 318 159 278 146 235 146 c 0
 204 146 177 151 155 161 c 0
 143 167 130 175 117 187 c 1
 58 128 l 1
 32 156 l 1
 90 214 l 1
 62 250 47 289 47 330 c 0
EndSplineSet
Validated: 1
EndChar

StartChar: section
Encoding: 167 167 88
Width: 515
GlyphClass: 2
Flags: MW
HStem: -205 18<237 260 237 262> 584 21G<336 357.5> 716 15<233 260>
VStem: 54 54<256.5 349> 89 58<593 606.5> 97 65<-143.5 -91> 323 65 349 50<-64.5 -55> 388 57<215 300>
LayerCount: 2
Fore
SplineSet
333 109 m 1xea80
 377 54 399 4 399 -42 c 0
 399 -87 384 -126 353 -157 c 0
 323 -189 285 -205 239 -205 c 0
 204 -205 173 -196 146 -179 c 0
 113 -159 97 -132 97 -99 c 0
 97 -83 102 -71 112 -60 c 0
 121 -50 134 -45 149 -45 c 0
 179 -45 193 -60 193 -90 c 0
 193 -107 188 -118 176 -124 c 2
 168 -128 l 2
 164 -130 162 -133 162 -137 c 0xe5
 162 -150 173 -163 194 -173 c 0
 213 -182 229 -187 245 -187 c 0
 275 -187 300 -175 320 -152 c 0
 340 -129 349 -103 349 -72 c 0
 349 -38 329 -3 288 34 c 0
 269 51 234 76 185 109 c 0
 98 167 54 226 54 287 c 0xf1
 54 322 62 353 79 380 c 0
 90 396 111 421 144 454 c 1
 108 503 89 547 89 585 c 0
 89 628 106 663 140 691 c 0
 171 718 209 731 252 731 c 0
 286 731 316 723 342 708 c 0
 373 689 388 664 388 632 c 0
 388 600 373 584 342 584 c 0
 330 584 320 588 312 597 c 0
 303 605 299 615 299 627 c 0
 299 641 304 652 314 661 c 0
 320 666 323 670 323 673 c 0
 324 677 319 683 310 692 c 0
 293 708 272 716 248 716 c 0
 218 716 194 706 175 686 c 0
 156 667 147 642 147 612 c 0
 147 574 172 534 223 493 c 0
 238 481 279 454 347 412 c 0
 412 371 445 325 445 275 c 0
 445 239 434 207 411 179 c 0
 396 161 370 138 333 109 c 1xea80
318 119 m 1
 342 138 359 153 367 165 c 0
 381 182 388 203 388 227 c 0
 388 273 347 320 266 367 c 0
 222 393 184 419 153 444 c 1
 123 401 108 364 108 334 c 0xf080
 108 284 139 239 201 198 c 2
 277 149 l 2
 283 145 297 135 318 119 c 1
EndSplineSet
Validated: 8388609
EndChar

StartChar: dieresis
Encoding: 168 168 89
Width: 59
GlyphClass: 2
Flags: MW
HStem: 590 107<136 150.5 135 151 308.5 323.5>
VStem: 89 107<637.5 650> 262 107<637.5 650>
LayerCount: 2
Fore
SplineSet
316 697 m 0
 331 697 343 692 354 682 c 0
 364 672 369 660 369 645 c 0
 369 630 364 618 353 606 c 0
 343 595 331 590 316 590 c 0
 301 590 289 595 278 605 c 0
 267 615 262 627 262 642 c 0
 262 658 267 671 277 681 c 0
 287 692 300 697 316 697 c 0
143 697 m 0
 158 697 170 692 180 682 c 0
 191 672 196 659 196 645 c 0
 196 630 191 618 180 606 c 0
 170 595 158 590 144 590 c 0
 128 590 115 595 105 604 c 0
 94 614 89 627 89 642 c 0
 89 658 94 671 104 681 c 0
 115 692 127 697 143 697 c 0
EndSplineSet
Validated: 1
EndChar

StartChar: guillemotleft
Encoding: 171 171 90
Width: 454
GlyphClass: 2
Flags: MW
VStem: 64 326<111 297>
LayerCount: 2
Fore
SplineSet
99 297 m 1
 257 111 l 1
 221 111 l 1
 64 297 l 1
 221 483 l 1
 257 483 l 1
 99 297 l 1
232 297 m 1
 390 111 l 1
 354 111 l 1
 197 297 l 1
 354 483 l 1
 390 483 l 1
 232 297 l 1
EndSplineSet
Validated: 1
EndChar

StartChar: logicalnot
Encoding: 172 172 91
Width: 442
GlyphClass: 2
Flags: MW
HStem: 244 18<19 335 19 411>
VStem: 336 75<2 262>
LayerCount: 2
Fore
SplineSet
336 2 m 1
 335 244 l 1
 19 244 l 1
 19 262 l 1
 411 262 l 1
 411 2 l 1
 336 2 l 1
EndSplineSet
Validated: 1
EndChar

StartChar: degree
Encoding: 176 176 92
Width: 372
GlyphClass: 2
Flags: MW
HStem: 384 20<157 198.5 157 199.5> 704 20<157 198.5>
VStem: 35 82<505 576> 239 82<532.5 576 532.5 603 532.5 636.5>
LayerCount: 2
Fore
SplineSet
178 724 m 0
 221 724 256 706 283 669 c 0
 309 636 321 598 321 554 c 0
 321 511 309 472 283 438 c 0
 256 402 221 384 178 384 c 0
 136 384 101 402 73 438 c 0
 48 472 35 511 35 554 c 0
 35 598 48 636 73 669 c 0
 101 706 136 724 178 724 c 0
178 704 m 0
 136 704 116 670 117 603 c 2
 118 554 l 1
 117 505 l 2
 116 438 136 404 178 404 c 0
 219 404 239 438 239 505 c 2
 239 603 l 2
 239 670 219 704 178 704 c 0
EndSplineSet
Validated: 33
EndChar

StartChar: acute
Encoding: 180 180 93
Width: 25
GlyphClass: 2
Flags: MW
HStem: 528 226<169 280.5>
VStem: 163 149
LayerCount: 2
Fore
SplineSet
172 569 m 1
 222 722 l 2
 229 743 243 754 265 754 c 0
 296 754 312 743 312 722 c 0
 312 712 308 702 301 692 c 2
 202 561 l 2
 186 539 176 528 172 528 c 0
 166 528 163 531 163 538 c 0
 163 540 164 542 165 545 c 2
 172 569 l 1
EndSplineSet
Validated: 1
EndChar

StartChar: paragraph
Encoding: 182 182 94
Width: 689
GlyphClass: 2
Flags: MW
HStem: 624 30<391 450 391 391>
VStem: 36 355<405.5 470.5> 363 28<-49 249 249 249> 491 29<-56 577 -58 586 -58 591.5>
LayerCount: 2
Fore
SplineSet
657 628 m 1xd0
 552 627 l 2
 530 625 520 608 520 577 c 2
 520 -58 l 1
 491 -56 l 1
 491 586 l 2
 491 597 487 606 479 613 c 0
 471 620 461 624 450 624 c 2
 391 624 l 1
 391 -49 l 1
 363 -49 l 1
 363 249 l 1xb0
 330 228 296 217 262 217 c 0
 199 217 146 238 103 280 c 0
 58 322 36 374 36 437 c 0
 36 504 62 560 114 604 c 0
 153 637 215 654 300 654 c 2
 657 654 l 1
 657 628 l 1xd0
EndSplineSet
Validated: 1
EndChar

StartChar: periodcentered
Encoding: 183 183 95
AltUni2: 002219.ffffffff.0 002219.ffffffff.0
Width: 340
GlyphClass: 2
Flags: MW
HStem: 311 154<167 169>
VStem: 92 152<387 388.5>
LayerCount: 2
Fore
SplineSet
95 395 m 0
 126 404 148 426 161 462 c 0
 164 464 166 465 168 465 c 0
 170 465 172 464 175 462 c 0
 188 426 210 404 241 395 c 0
 243 392 244 389 244 388 c 0
 244 386 243 384 241 380 c 0
 210 372 188 350 175 313 c 0
 172 312 170 311 168 311 c 0
 166 311 164 312 161 313 c 0
 148 349 126 372 95 380 c 0
 93 384 92 386 92 388 c 0
 92 389 93 392 95 395 c 0
EndSplineSet
Validated: 1
EndChar

StartChar: cedilla
Encoding: 184 184 96
Width: 7
GlyphClass: 2
Flags: MW
HStem: -285 253 -49 20G
VStem: 227 47<-201 -123>
LayerCount: 2
Fore
SplineSet
153 -104 m 0xa0
 168 -89 179 -72 186 -52 c 0
 187 -48 189 -42 192 -32 c 0xa0
 194 -30 195 -30 195 -29 c 1x60
 196 -30 198 -30 199 -32 c 0
 249 -62 274 -100 274 -146 c 0
 274 -175 271 -197 263 -211 c 0
 257 -224 241 -241 217 -262 c 0
 199 -278 186 -285 176 -285 c 0
 170 -285 167 -282 167 -277 c 1
 172 -274 180 -267 192 -256 c 2
 217 -228 l 2
 223 -220 227 -208 227 -194 c 0
 227 -175 221 -159 208 -146 c 0
 201 -138 184 -126 157 -109 c 2
 151 -106 l 2
 151 -105 152 -104 153 -104 c 0xa0
EndSplineSet
Validated: 1
EndChar

StartChar: guillemotright
Encoding: 187 187 97
Width: 454
GlyphClass: 2
Flags: MW
VStem: 64 326<111 297 297 483>
LayerCount: 2
Fore
SplineSet
355 297 m 1
 197 483 l 1
 233 483 l 1
 390 297 l 1
 233 111 l 1
 197 111 l 1
 355 297 l 1
223 297 m 1
 64 483 l 1
 100 483 l 1
 257 297 l 1
 100 111 l 1
 64 111 l 1
 223 297 l 1
EndSplineSet
Validated: 1
EndChar

StartChar: onequarter
Encoding: 188 188 98
Width: 762
GlyphClass: 2
Flags: MW
HStem: -21 22<510 573 573 580 510 702 510 573> 81 31<480 594 480 594 466 594> 282 23<42 100 100 106.5 199 257 42 100> 580 25<42 101 42 42> 688 20G<691 691>
VStem: 120 59<328 337 337 337> 594 62<22 81>
LayerCount: 2
Fore
SplineSet
42 605 m 1
 74 607 97 613 114 624 c 0
 128 634 143 653 161 683 c 1
 179 683 l 1
 179 328 l 2
 179 313 186 305 199 305 c 2
 257 305 l 1
 257 282 l 1
 42 282 l 1
 42 305 l 1
 100 305 l 2
 113 305 120 313 120 328 c 2
 120 337 l 1
 119 566 l 2
 119 575 113 580 101 580 c 2
 42 580 l 1
 42 605 l 1
656 377 m 1
 657 113 l 1
 702 113 l 1
 702 81 l 1
 656 81 l 1
 656 11 l 2
 656 6 659 3 663 3 c 2
 703 3 l 1
 702 -21 l 1
 510 -21 l 1
 510 1 l 1
 573 1 l 2
 587 1 594 8 594 22 c 2
 594 81 l 1
 466 81 l 1
 466 129 l 1
 616 377 l 1
 656 377 l 1
595 294 m 1
 480 112 l 1
 594 112 l 1
 595 294 l 1
691 708 m 1
 721 683 l 1
 79 -19 l 1
 50 5 l 1
 691 708 l 1
EndSplineSet
Validated: 1
Ligature2: "'frac' Diagonale Br+APwA-che in Lateinisch Nachschlagetabelle 7 Subtabelle" one slash four
EndChar

StartChar: onehalf
Encoding: 189 189 99
Width: 761
GlyphClass: 2
Flags: MW
HStem: -22 58<519 519 519 689 476 519> 198 61<497 542> 281 23<43 101 101 107 199 258 43 101> 357 21<573 603.5> 579 25<43 102 43 43> 688 20G<691 691>
VStem: 121 59<336 336> 473 18<267 282.5 267 286> 654 58<244 276 236 292.5>
LayerCount: 2
Fore
SplineSet
691 708 m 1
 721 683 l 1
 79 -19 l 1
 50 5 l 1
 691 708 l 1
43 604 m 1
 75 606 98 612 115 624 c 0
 129 633 144 653 162 682 c 1
 180 682 l 1
 180 327 l 2
 180 312 187 304 199 304 c 2
 258 304 l 1
 258 281 l 1
 43 281 l 1
 43 304 l 1
 101 304 l 2
 113 304 119 312 120 327 c 2
 121 336 l 1
 120 565 l 2
 120 575 114 579 102 579 c 2
 43 579 l 1
 43 604 l 1
519 36 m 1
 641 37 l 2
 659 37 669 49 672 73 c 2
 675 98 l 1
 676 112 l 2
 677 119 681 123 687 123 c 0
 694 123 697 120 697 113 c 0
 697 108 696 103 695 97 c 0
 690 76 688 46 688 6 c 0
 688 -2 688 -11 689 -22 c 1
 476 -22 l 1
 485 26 518 76 577 127 c 0
 608 155 628 174 635 184 c 0
 647 203 654 228 654 260 c 0
 654 325 629 357 578 357 c 0
 555 357 534 348 517 331 c 0
 500 314 491 294 491 271 c 0
 491 263 494 259 500 259 c 0
 503 259 506 260 508 262 c 2
 517 269 l 2
 521 273 527 275 535 275 c 0
 544 275 552 271 558 264 c 0
 565 256 568 248 568 238 c 0
 568 211 555 198 529 198 c 0
 512 198 498 207 487 223 c 0
 478 238 473 254 473 271 c 0
 473 301 485 327 508 347 c 0
 531 368 558 378 588 378 c 0
 624 378 654 367 677 345 c 0
 700 323 712 294 712 258 c 0
 712 214 686 174 635 140 c 0
 583 105 544 71 519 36 c 1
EndSplineSet
Validated: 1
Ligature2: "'frac' Diagonale Br+APwA-che in Lateinisch Nachschlagetabelle 7 Subtabelle" one slash two
EndChar

StartChar: threequarters
Encoding: 190 190 100
Width: 763
GlyphClass: 2
Flags: MW
HStem: -22 23<510 573 573 580 510 702 510 573> 80 31<480 594 480 594 466 594> 277 26<137 165.5 131.5 167.5> 353 72<90.5 101 81 103.5> 469 29<109 110 109 121> 476 14<166.5 180 158.5 185.5> 530 65<84 108.5> 653 22<148 172.5> 688 20G<692 692>
VStem: 42 26<344 382> 59 21 216 57<553.5 589 553.5 595.5> 219 63<376.5 415 376.5 416> 594 62<21 80>
LayerCount: 2
Fore
SplineSet
656 376 m 1xf384
 657 112 l 1
 702 112 l 1
 702 80 l 1
 656 80 l 1
 656 10 l 2
 656 5 659 2 663 2 c 2
 702 2 l 1
 702 -22 l 1
 510 -22 l 1
 510 1 l 1
 573 1 l 2
 587 1 594 8 594 21 c 2
 594 80 l 1
 466 80 l 1
 466 128 l 1
 616 376 l 1
 656 376 l 1xf384
595 293 m 1
 480 111 l 1
 594 111 l 1
 595 293 l 1
202 484 m 1
 256 466 282 436 282 394 c 0
 282 359 269 331 241 309 c 0
 215 287 185 277 150 277 c 0
 124 277 99 286 77 305 c 0
 54 325 42 348 42 375 c 0
 42 389 46 400 54 410 c 0
 63 420 74 425 88 425 c 0
 114 425 127 412 127 387 c 0
 127 364 115 353 92 353 c 0
 89 353 85 354 79 354 c 0
 77 355 75 355 74 355 c 0
 70 355 68 354 68 351 c 0
 68 337 77 325 94 315 c 0
 109 307 124 303 139 303 c 0
 192 303 219 331 219 386 c 0
 219 446 202 476 169 476 c 0xf7cc
 164 476 158 475 152 474 c 2
 136 471 l 2
 131 470 125 469 117 469 c 0
 99 469 91 474 92 484 c 0
 92 494 98 499 109 498 c 0xfbcc
 111 498 114 497 121 496 c 2
 131 494 l 2
 145 492 155 490 162 490 c 0
 198 490 216 516 216 567 c 0
 216 624 194 653 151 653 c 0
 137 653 122 648 106 638 c 0
 89 627 80 615 80 603 c 0
 80 598 82 595 86 595 c 0
 88 595 91 596 95 596 c 0
 99 597 102 597 104 597 c 0
 127 597 138 586 138 564 c 0
 138 555 135 546 128 540 c 0
 121 533 113 530 104 530 c 0
 90 530 79 536 70 549 c 0
 63 560 59 573 59 588 c 0
 59 613 70 634 92 651 c 0
 112 667 135 675 161 675 c 0
 190 675 216 666 238 647 c 0
 261 627 273 603 273 575 c 0xf7b4
 273 532 249 502 202 484 c 1
692 708 m 1
 721 683 l 1
 80 -19 l 1xf3a4
 51 5 l 1
 692 708 l 1
EndSplineSet
Validated: 1
Ligature2: "'frac' Diagonale Br+APwA-che in Lateinisch Nachschlagetabelle 7 Subtabelle" three slash four
EndChar

StartChar: Adieresis
Encoding: 196 196 101
Width: 801
GlyphClass: 2
Flags: MW
HStem: -20 72<629 686> 737 28<212.5 230.5> 742 30<738 738> 770 107<352 359.5>
VStem: 56 49<561 654.5> 212 43<321 395.5> 302 107<843 855.5 838.5 857.5> 362 78<459 525.5> 539 107<844 856.5 839 858.5> 550 82<157 157>
LayerCount: 2
Fore
SplineSet
236 135 m 1xcd40
 270 119 300 99 326 74 c 2
 364 38 l 1
 550 157 l 1
 551 587 l 2
 551 624 538 661 513 699 c 0
 497 722 489 736 489 740 c 0
 489 746 493 749 500 749 c 0
 524 748 546 709 565 632 c 1
 586 686 612 724 644 744 c 0
 673 763 704 772 738 772 c 0
 752 772 760 768 760 759 c 0
 761 750 753 745 738 742 c 0xad40
 692 735 661 715 647 683 c 0
 637 662 632 624 632 569 c 2
 632 150 l 2
 632 128 636 108 642 89 c 0
 652 64 665 52 684 52 c 0
 688 52 693 53 697 56 c 2
 742 83 l 2
 744 84 747 85 749 85 c 0
 756 85 759 82 758 75 c 0
 758 69 752 63 742 57 c 0
 706 37 673 14 644 -11 c 0
 638 -17 633 -20 629 -20 c 0
 612 -21 595 1 577 46 c 0
 564 79 555 109 551 133 c 1
 371 16 l 2
 351 3 335 -9 323 -21 c 0
 321 -22 320 -23 320 -23 c 2
 319 -23 318 -23 317 -22 c 0
 257 39 196 78 132 95 c 0
 131 97 130 98 130 99 c 0
 131 100 132 102 133 104 c 0
 196 128 245 160 281 202 c 0
 307 232 327 277 343 335 c 0
 356 386 362 435 362 483 c 0
 362 568 348 632 318 676 c 0
 291 716 254 737 207 737 c 0
 179 737 155 728 135 709 c 0
 115 691 105 668 105 641 c 0
 105 616 114 591 131 566 c 0
 140 553 159 532 186 505 c 0
 232 459 255 416 255 375 c 0
 255 332 231 294 184 261 c 0
 169 251 159 246 154 246 c 0
 149 246 146 249 146 253 c 0
 146 257 148 259 153 262 c 2
 162 266 l 2
 195 283 212 306 212 336 c 0
 212 355 203 373 185 390 c 2
 134 437 l 2
 82 484 56 535 56 587 c 0
 56 639 74 681 109 715 c 0
 144 748 187 765 238 765 c 0
 373 765 440 677 440 500 c 0
 440 399 419 319 377 260 c 0
 357 231 310 189 236 135 c 1xcd40
357 877 m 0x9e
 391 877 409 866 409 845 c 0
 409 832 404 820 396 809 c 2
 377 787 l 2
 369 776 362 770 357 770 c 0
 347 770 336 780 322 801 c 0
 309 822 302 838 302 848 c 0
 302 867 320 877 357 877 c 0x9e
594 878 m 0
 628 878 646 867 646 846 c 0
 646 832 641 820 633 810 c 2
 614 788 l 2
 605 777 598 771 594 771 c 0
 584 771 573 781 559 802 c 0
 545 823 539 839 539 849 c 0x8c80
 539 868 557 878 594 878 c 0
EndSplineSet
Validated: 33
EndChar

StartChar: Aring
Encoding: 197 197 102
Width: 778
GlyphClass: 2
Flags: MW
HStem: -20 72<625 681.5> 737 28<208.5 225.5> 745 28<409 429 409 432.5> 921 26<409 429>
VStem: 52 49<561 654.5> 208 43<321 395.5> 317 29<837 857 837 860.5> 358 78<459 525.5> 492 28<837 857> 545 83<157 157>
LayerCount: 2
Fore
SplineSet
232 135 m 1xdfc0
 266 119 296 99 322 74 c 2
 360 38 l 1
 545 157 l 1
 547 587 l 2
 547 624 534 661 508 699 c 0
 493 722 485 736 485 740 c 0
 485 746 488 749 495 749 c 0
 519 748 541 709 561 632 c 1
 581 686 607 724 639 744 c 0
 668 763 700 772 733 772 c 0
 748 772 755 768 756 759 c 0
 756 750 749 745 733 742 c 0
 687 735 657 715 643 683 c 0
 633 662 628 624 628 569 c 2
 628 150 l 2
 628 128 631 108 638 89 c 0
 647 64 661 52 679 52 c 0
 684 52 689 53 693 56 c 2
 738 83 l 2
 740 84 742 85 745 85 c 0
 751 85 755 82 754 75 c 0
 754 69 748 63 737 57 c 0
 701 37 669 14 640 -11 c 0
 633 -17 628 -20 625 -20 c 0
 608 -21 591 1 573 46 c 0
 559 79 551 109 547 133 c 1
 366 16 l 2
 347 3 331 -9 318 -21 c 0
 317 -22 316 -23 315 -23 c 2
 315 -23 314 -23 313 -22 c 0
 253 39 191 78 128 95 c 0
 127 97 126 98 126 99 c 0
 126 100 127 102 128 104 c 0
 192 128 241 160 276 202 c 0
 302 232 323 277 338 335 c 0
 351 386 358 435 358 483 c 0
 358 568 343 632 314 676 c 0
 287 716 249 737 202 737 c 0
 175 737 151 728 131 709 c 0
 111 691 101 668 101 641 c 0
 101 616 109 591 126 566 c 0
 136 553 154 532 181 505 c 0
 228 459 251 416 251 375 c 0
 251 332 227 294 179 261 c 0
 165 251 155 246 150 246 c 0
 144 246 142 249 142 253 c 0
 142 257 144 259 148 262 c 2
 157 266 l 2
 191 283 208 306 208 336 c 0
 208 355 198 373 180 390 c 2
 129 437 l 2
 78 484 52 535 52 587 c 0
 52 639 69 681 104 715 c 0
 140 748 183 765 234 765 c 0
 368 765 436 677 436 500 c 0
 436 399 415 319 373 260 c 0
 352 231 305 189 232 135 c 1xdfc0
418 947 m 0
 447 947 471 937 490 918 c 0
 510 899 520 875 520 846 c 0
 520 818 510 794 490 774 c 0
 471 755 447 745 418 745 c 0xbfc0
 389 745 365 755 346 774 c 0
 327 794 317 818 317 846 c 0
 317 875 327 899 346 918 c 0
 366 937 390 947 418 947 c 0
419 921 m 0
 399 921 382 914 367 899 c 0
 353 884 346 867 346 847 c 0
 346 827 353 810 367 795 c 0
 382 780 399 773 419 773 c 0
 439 773 456 780 470 795 c 0
 485 810 492 827 492 847 c 0
 492 867 485 885 470 899 c 0
 456 914 439 921 419 921 c 0
EndSplineSet
Validated: 33
EndChar

StartChar: AE
Encoding: 198 198 103
Width: 1170
GlyphClass: 2
Flags: MW
HStem: -24 61<868.5 912> 148 27<853 866 838.5 891> 461 46<1052.5 1107> 644 50<1000.5 1072.5> 722 20G<723.5 753.5 1123.5 1129> 739 28<195 212.5>
VStem: 38 49<562.5 656.5> 195 43<330.5 397> 345 78<460.5 527> 532 90<384.5 457> 744 20<264.5 286.5> 801 62<509.5 619.5> 938 67<279.5 280.5>
LayerCount: 2
Fore
SplineSet
305 -21 m 0xfbf8
 304 -22 303 -22 302 -22 c 0
 301 -22 300 -22 299 -21 c 0
 240 39 179 78 114 95 c 0
 113 97 112 99 112 100 c 0
 113 101 113 103 115 104 c 0
 178 128 227 161 263 203 c 0
 290 234 311 278 326 336 c 0
 339 387 345 436 345 485 c 0
 345 569 331 634 301 677 c 0
 274 718 236 739 189 739 c 0
 162 739 138 730 117 711 c 0
 97 693 87 670 87 643 c 0
 87 618 96 592 113 567 c 0
 123 554 141 534 168 507 c 0
 215 460 238 417 238 377 c 0
 238 333 214 295 166 262 c 0
 151 252 141 247 136 247 c 0
 131 247 128 250 128 254 c 0
 128 258 130 261 135 263 c 2
 144 267 l 2
 157 273 169 283 179 297 c 0
 190 310 195 324 195 337 c 0
 195 356 186 373 167 391 c 2
 116 438 l 2
 64 486 38 536 38 589 c 0
 38 640 56 683 91 717 c 0
 126 750 169 767 221 767 c 0xf7f8
 355 767 423 678 423 500 c 0
 423 400 402 320 360 261 c 0
 339 231 292 189 218 136 c 1
 253 120 283 100 309 75 c 0
 319 64 332 52 347 39 c 1
 560 173 l 1
 542 253 532 326 532 392 c 0
 532 522 552 619 592 680 c 0
 632 742 680 773 737 773 c 0
 766 773 792 764 814 745 c 0
 829 732 846 709 866 678 c 1
 894 710 925 738 959 762 c 1
 993 717 1026 694 1060 694 c 0
 1085 694 1102 705 1111 727 c 0
 1116 737 1121 742 1126 742 c 0
 1132 742 1134 739 1134 734 c 0
 1134 724 1128 712 1115 695 c 0
 1088 661 1055 644 1017 644 c 0
 984 644 949 663 912 701 c 1
 880 673 863 639 863 600 c 0
 863 563 876 530 900 500 c 2
 940 452 l 2
 944 447 952 436 964 419 c 1
 991 447 1011 466 1024 477 c 0
 1050 497 1075 507 1099 507 c 0
 1115 507 1128 501 1138 490 c 0
 1149 478 1154 465 1154 449 c 0
 1154 440 1151 429 1145 414 c 0
 1137 397 1130 389 1122 388 c 0
 1120 388 1118 393 1116 403 c 0
 1108 442 1089 461 1060 461 c 0
 1045 461 1029 454 1013 441 c 0
 1008 437 996 425 975 404 c 1
 995 360 1005 325 1005 299 c 0
 1005 260 993 225 968 195 c 0
 942 164 910 148 872 148 c 0
 834 148 803 160 780 186 c 0
 756 211 744 242 744 280 c 0
 744 293 746 308 750 325 c 0
 756 347 763 359 771 359 c 0
 776 359 778 356 778 352 c 0
 778 349 777 343 773 334 c 0
 767 316 764 298 764 279 c 0
 764 250 771 225 786 207 c 0
 802 185 824 175 853 175 c 0
 879 175 900 183 915 201 c 0
 930 218 938 240 938 267 c 0
 938 294 924 324 897 355 c 2
 852 409 l 2
 818 448 801 489 801 530 c 0
 801 566 819 612 855 668 c 1
 837 693 821 711 808 721 c 0
 788 735 766 742 741 742 c 0
 706 742 678 721 655 678 c 0
 633 638 622 550 622 417 c 0
 622 352 624 304 628 274 c 0
 636 219 652 175 677 142 c 0
 701 109 732 84 771 65 c 0
 809 46 848 37 889 37 c 0
 949 37 1007 57 1062 98 c 0
 1093 121 1113 140 1122 156 c 0
 1125 163 1130 167 1134 167 c 0
 1141 167 1144 164 1144 158 c 0
 1144 148 1133 129 1112 101 c 0
 1047 18 964 -24 860 -24 c 0
 799 -24 743 -11 694 16 c 0
 651 38 611 85 572 154 c 1
 351 16 l 2
 332 3 317 -9 305 -21 c 0xfbf8
EndSplineSet
Validated: 1
EndChar

StartChar: Odieresis
Encoding: 214 214 104
Width: 849
GlyphClass: 2
Flags: MW
HStem: -20 88<445 564.5> 74 82<155.5 234> 188 36<139.5 155.5 130.5 175.5> 636 82<187 290.5> 653 95<458 465 407.5 495> 749 20G<131.5 137> 779 107<287.5 294.5 511.5 518>
VStem: 30 18<321 337.5> 30 34 78 19<-25 7> 85 45<540 638> 220 77<313 315> 237 107<852 864.5 847 866.5> 461 107<852 864.5 847.5 866.5> 751 22<342 404 342 439.5>
LayerCount: 2
Fore
SplineSet
167 689 m 1xf646
 142 669 130 649 130 627 c 0
 130 602 147 572 181 536 c 0
 258 456 297 388 297 332 c 0
 297 294 283 260 255 231 c 0
 227 202 194 188 157 188 c 0
 122 188 92 203 66 234 c 0
 42 263 30 295 30 331 c 0xf736
 30 344 32 358 36 374 c 0
 41 396 48 407 57 407 c 0
 62 407 64 404 64 399 c 0xf686
 64 396 62 391 59 384 c 0
 51 370 48 354 48 336 c 0
 48 306 56 280 73 259 c 0
 92 236 116 224 145 224 c 0
 166 224 184 232 198 247 c 0
 213 262 220 280 220 302 c 0
 220 328 201 362 163 406 c 0
 111 466 85 518 85 562 c 0
 85 591 92 616 105 638 c 0
 112 649 129 669 156 699 c 1
 135 724 125 743 125 758 c 0
 125 765 128 769 135 769 c 0
 139 769 142 767 144 763 c 2
 151 743 l 2
 157 726 173 718 201 718 c 0xf736
 211 718 230 720 257 726 c 2
 327 739 l 2
 360 745 392 748 423 748 c 0
 507 748 579 728 637 689 c 0
 683 658 718 611 742 548 c 0
 763 494 773 436 773 372 c 0
 773 312 763 255 742 200 c 0
 720 141 688 93 647 55 c 0
 592 5 532 -20 468 -20 c 0
 422 -20 364 -4 294 28 c 2
 228 58 l 2
 205 69 184 74 165 74 c 0
 146 74 131 67 118 53 c 0
 105 39 99 21 98 0 c 2
 97 -25 l 2
 96 -33 93 -37 87 -37 c 0
 81 -37 78 -30 78 -15 c 0
 78 29 90 68 116 102 c 0
 143 138 179 156 221 156 c 0
 247 156 277 149 312 137 c 2
 398 102 l 2
 454 79 497 68 529 68 c 0
 600 68 657 102 698 169 c 0
 733 227 751 293 751 370 c 0
 751 509 691 600 571 641 c 0
 547 649 515 653 475 653 c 0xee46
 441 653 394 649 334 641 c 0
 312 638 296 636 285 636 c 0
 242 636 203 654 167 689 c 1xf646
292 886 m 0
 326 886 344 875 344 854 c 0
 344 840 340 828 331 818 c 2
 313 795 l 2
 303 784 297 779 292 779 c 0
 283 779 271 790 257 811 c 0
 243 831 237 847 237 857 c 0xe60e
 237 876 255 886 292 886 c 0
516 886 m 0
 551 886 568 875 568 854 c 0
 568 841 563 829 555 818 c 2
 536 795 l 2
 527 784 520 779 516 779 c 0
 507 779 495 790 481 811 c 0
 468 831 461 847 461 857 c 0
 461 876 479 886 516 886 c 0
EndSplineSet
Validated: 1
EndChar

StartChar: multiply
Encoding: 215 215 105
Width: 732
GlyphClass: 2
Flags: MW
HStem: -6 21G<644 644>
LayerCount: 2
Fore
SplineSet
89 611 m 1
 367 334 l 1
 637 604 l 1
 668 572 l 1
 398 303 l 1
 675 25 l 1
 644 -6 l 1
 368 271 l 1
 98 2 l 1
 66 34 l 1
 336 303 l 1
 58 580 l 1
 89 611 l 1
EndSplineSet
Validated: 1
EndChar

StartChar: Oslash
Encoding: 216 216 106
Width: 803
GlyphClass: 2
Flags: MW
HStem: -21 78<494.5 515.5> -8 21G<61.5 66> 79 66<131.5 208.5> 183 23<123.5 146 123.5 168.5> 671 74<211.5 295> 680 92<411 418.5 382.5 428.5> 765 20G<165.5 168.5>
VStem: 38 20<294 314.5 294 333> 86 51<525 615.5> 203 76<275 345> 726 19<330.5 402>
LayerCount: 2
Fore
SplineSet
369 -7 m 1xb5e0
 353 -68 l 1
 326 -64 l 1
 341 -4 l 1
 313 7 296 14 291 17 c 2
 223 53 l 2
 189 70 163 79 146 79 c 0
 117 79 95 59 81 20 c 2
 74 1 l 2
 71 -5 68 -8 64 -8 c 0
 59 -8 57 -4 57 3 c 0
 57 17 64 35 77 58 c 0
 111 116 151 145 197 145 c 0
 220 145 254 135 299 114 c 0
 313 107 335 98 363 86 c 1
 505 673 l 1
 467 678 438 680 419 680 c 0x75e0
 403 680 383 679 360 676 c 0
 329 673 304 671 286 671 c 0
 253 671 222 684 194 710 c 1
 156 671 137 634 137 597 c 0
 137 569 157 534 197 490 c 0
 252 429 279 372 279 318 c 0
 279 281 267 249 242 223 c 0
 217 196 187 183 150 183 c 0
 75 183 38 225 38 310 c 0
 38 356 46 379 61 379 c 0
 65 379 67 376 67 370 c 0
 67 369 67 367 66 364 c 2
 63 353 l 2
 60 337 58 322 58 307 c 0
 58 281 64 258 77 239 c 0
 91 217 111 206 136 206 c 0
 156 206 173 214 186 231 c 0
 197 246 203 264 203 286 c 0
 203 305 198 324 187 344 c 0
 182 352 170 369 151 394 c 0
 108 453 86 504 86 546 c 0
 86 599 119 656 186 718 c 1
 170 740 162 760 162 778 c 0
 162 783 164 785 167 785 c 0
 170 785 173 782 176 777 c 2
 182 767 l 2
 189 752 202 745 221 745 c 0x3be0
 228 745 238 747 252 750 c 2
 302 760 l 2
 342 768 372 772 393 772 c 0
 444 772 488 765 526 752 c 1
 536 795 l 1
 562 792 l 1
 550 742 l 1
 603 715 642 684 667 649 c 0
 719 577 745 486 745 375 c 0
 745 274 719 181 667 97 c 0
 619 18 555 -21 476 -21 c 0
 449 -21 413 -16 369 -7 c 1xb5e0
389 79 m 1
 438 64 479 57 510 57 c 0xb1e0
 579 57 633 93 674 166 c 0
 709 226 726 294 726 367 c 0
 726 437 710 499 678 553 c 0
 661 581 640 604 614 622 c 0
 596 635 568 650 531 667 c 1
 389 79 l 1
EndSplineSet
Validated: 1
EndChar

StartChar: Udieresis
Encoding: 220 220 107
Width: 690
GlyphClass: 2
Flags: MW
HStem: -21 21G<249 250.5> 660 23<581 581> 688 69<74 123.5> 769 107<178.5 185.5>
VStem: 116 88<108 625> 128 107<842 854.5 837 856.5> 364 107<843 855.5 838 857.5> 451 83<107 162>
LayerCount: 2
Fore
SplineSet
451 140 m 1xf9
 312 34 l 2
 301 26 282 8 255 -19 c 0
 253 -20 251 -21 250 -21 c 0
 248 -21 246 -20 244 -19 c 0
 190 28 142 57 98 69 c 0
 78 74 68 79 68 84 c 0
 68 88 74 92 87 97 c 0
 107 103 116 118 116 145 c 2
 116 625 l 2
 116 637 112 650 104 664 c 0
 96 679 86 687 75 688 c 0
 73 688 71 687 68 686 c 2
 45 670 l 2
 43 669 40 668 37 668 c 0
 30 668 27 672 27 679 c 0
 27 683 32 688 41 694 c 2
 72 715 l 2
 77 719 86 726 98 737 c 0
 112 750 120 757 121 757 c 0
 126 757 137 750 153 734 c 0
 187 700 205 662 205 618 c 2
 204 108 l 1
 235 90 266 70 297 48 c 1
 450 164 l 1
 449 628 l 2
 449 637 445 645 437 651 c 0
 419 665 408 672 402 672 c 0
 400 672 397 671 394 668 c 2
 335 632 l 2
 332 630 329 629 327 629 c 0
 322 629 319 632 319 639 c 0
 319 644 327 652 343 662 c 0
 398 696 436 724 456 746 c 0
 463 753 467 757 470 757 c 0
 472 757 475 755 479 749 c 0
 500 715 534 693 581 683 c 0
 594 680 601 676 601 671 c 0
 602 666 595 662 581 660 c 0
 549 657 534 642 534 615 c 2
 534 162 l 2
 534 139 538 117 547 95 c 0
 558 65 573 51 593 51 c 0
 597 51 601 52 606 56 c 2
 634 76 l 2
 636 77 638 78 640 78 c 0
 645 78 648 76 648 71 c 0
 648 66 633 53 604 33 c 0
 581 16 560 -1 540 -19 c 1
 480 21 451 74 451 140 c 1xf9
183 876 m 0
 218 876 235 865 235 844 c 0xf4
 235 830 231 818 222 808 c 2
 204 786 l 2xf8
 195 775 188 769 183 769 c 0
 174 769 162 779 148 800 c 0
 135 821 128 837 128 847 c 0xf4
 128 866 146 876 183 876 c 0
419 877 m 0
 453 877 471 866 471 845 c 0
 471 831 466 819 458 809 c 2
 439 787 l 2
 430 776 424 770 419 770 c 0
 410 770 398 780 384 801 c 0
 371 822 364 838 364 848 c 0xf2
 364 867 382 877 419 877 c 0
EndSplineSet
Validated: 1
EndChar

StartChar: germandbls
Encoding: 223 223 108
Width: 523
GlyphClass: 2
Flags: MW
HStem: -232 21G<130.667 139> -167 36<253.333 282.333 240 300> 493 20G 632 69<246.667 261 246.667 261.333> 677 66<114 121.333>
VStem: 77 13 121 29<-219 -218> 281 19<692 733> 349 84<339.667 406.333> 366 90<13.3335 70 13.3335 72.3335>
LayerCount: 2
Fore
SplineSet
174 187 m 1xe780
 253.333007812 201 304 227 326 265 c 0
 341.333007812 291.666992188 349 322.333007812 349 357 c 0
 349 376.333007812 343.666992188 394.666992188 333 412 c 0
 321 432 305.666992188 442 287 442 c 0
 275.666992188 442 259.333007812 436.333007812 238 425 c 0
 224.666992188 417.666992188 206.666992188 408.666992188 184 398 c 1
 174 187 l 1xe780
174 166 m 1
 163 -25 l 1
 182.333007812 -95.6669921875 216 -131 264 -131 c 0
 300.666992188 -131 327.666992188 -114.333007812 345 -81 c 0
 359 -55 366 -21.6669921875 366 19 c 0xe740
 366 125.666992188 327 179 249 179 c 0
 231.666992188 179 206.666992188 174.666992188 174 166 c 1
150 -218 m 2
 149.333007812 -227.333007812 144 -232 134 -232 c 0
 127.333007812 -232 123 -227.666992188 121 -219 c 2
 111 -81 l 2
 93.6669921875 147.666992188 85 318.666992188 85 432 c 1
 21 432 l 1
 22 438 l 1
 44 450.666992188 58.6669921875 464.666992188 66 480 c 0
 73.3330078125 494 77 514.333007812 77 541 c 0
 77 550.333007812 76.6669921875 557.333007812 76 562 c 2
 73 603 l 2
 71.6669921875 620.333007812 71 635 71 647 c 0
 71 711 92.3330078125 743 135 743 c 0xef40
 147 743 158.666992188 740 170 734 c 2
 216 711 l 2
 229.333007812 704.333007812 241.333007812 701 252 701 c 0
 270 701 279.333007812 707.333007812 280 720 c 2
 281 733 l 2
 281.666992188 739 284.666992188 742 290 742 c 0
 296.666992188 742 300 735.333007812 300 722 c 0
 300 662 280.666992188 632 242 632 c 0xf740
 219.333007812 632 188 643.333007812 148 666 c 0
 134.666992188 673.333007812 124.666992188 677 118 677 c 0
 110 677 103.333007812 673.166992188 98 665.5 c 0
 92.6669921875 657.833007812 90 650 90 642 c 0
 90 604 101.333007812 567.666992188 124 533 c 2
 160 476 l 2
 164.666992188 468 173.333007812 449.333007812 186 420 c 1
 256.666992188 455.333007812 312 486.333007812 352 513 c 1
 378.666992188 492.333007812 397.333007812 475.333007812 408 462 c 0
 424.666992188 441.333007812 433 418.666992188 433 394 c 0xef80
 433 356 418.333007812 317.666992188 389 279 c 0
 371.666992188 255.666992188 339.333007812 231.333007812 292 206 c 1
 350 202.666992188 392 186.333007812 418 157 c 0
 443.333007812 129.666992188 456 93 456 47 c 0
 456 -20.3330078125 432 -76.3330078125 384 -121 c 0
 350.666992188 -151.666992188 317 -167 283 -167 c 0
 223.666992188 -167 183 -132 161 -62 c 1
 150 -218 l 2
EndSplineSet
Validated: 524289
EndChar

StartChar: adieresis
Encoding: 228 228 109
Width: 500
GlyphClass: 2
Flags: MW
HStem: -21 21G 551 21G
VStem: 58 72<173.001 210.334> 136 88<660.334 688.001> 292 89<659.001 686.667> 312 76<52.3335 90.001 92.001 351.001>
LayerCount: 2
Fore
SplineSet
312 75 m 1xf4
 242 39 188.666992188 7.0009765625 152 -20.9990234375 c 1
 116.666992188 5.0009765625 91.6669921875 34.333984375 77 67.0009765625 c 0
 64.3330078125 97.0009765625 58 135.66796875 58 183.000976562 c 0
 58 237.66796875 64 285.333984375 76 326.000976562 c 0
 84.6669921875 354.66796875 101.333007812 380.000976562 126 402.000976562 c 0
 126.666992188 402.000976562 152.333007812 420.66796875 203 458.000976562 c 0
 217.666992188 468.66796875 235 483.333984375 255 502.000976562 c 1
 278 489.000976562 l 2
 338 453.66796875 386.666992188 432.333984375 424 425.000976562 c 0
 439.333007812 422.333984375 447 417.333984375 447 410.000976562 c 0
 447 404.000976562 441.666992188 399.66796875 431 397.000976562 c 0
 412.333007812 392.333984375 401 388.000976562 397 384.000976562 c 0
 391 378.000976562 388 367.000976562 388 351.000976562 c 2
 388 90.0009765625 l 2
 388 79.333984375 391 69.0009765625 397 59.0009765625 c 0
 404.333007812 47.66796875 413.333007812 42.0009765625 424 42.0009765625 c 0
 426.666992188 42.0009765625 429.333007812 43.0009765625 432 45.0009765625 c 2
 453 57.0009765625 l 2
 457.666992188 60.333984375 461.333007812 62.0009765625 464 62.0009765625 c 0
 469.333007812 62.0009765625 472 59.66796875 472 55.0009765625 c 0
 472 49.66796875 466.333007812 44.0009765625 455 38.0009765625 c 0
 447.666992188 34.0009765625 435.333007812 26.0009765625 418 14.0009765625 c 0
 401 2.0009765625 401 2.0009765625 366 -21.9990234375 c 1
 330 -2.666015625 312 29.6669921875 312 75 c 1xf4
312 382.000976562 m 1
 278.666992188 397.333984375 244.333007812 417.000976562 209 441.000976562 c 1
 173 408.333984375 150 372.333984375 140 333.000976562 c 0
 133.333007812 308.333984375 130 264.66796875 130 202.000976562 c 0
 130 144.000976562 137.666992188 105.66796875 153 87.0009765625 c 0
 174.333007812 62.333984375 194.666992188 50.0009765625 214 50.0009765625 c 0
 222.666992188 50.0009765625 238.666992188 55.66796875 262 67.0009765625 c 2
 312 92.0009765625 l 1
 312 382.000976562 l 1
170 551.000976562 m 1
 147.333007812 597.66796875 136 638.333984375 136 673.000976562 c 0
 136 703.000976562 151 718.000976562 181 718.000976562 c 0
 209.666992188 718.000976562 224 704.333984375 224 677.000976562 c 0
 224 643.66796875 206 601.66796875 170 551.000976562 c 1
326 550.000976562 m 1
 303.333007812 596.000976562 292 636.66796875 292 672.000976562 c 0
 292 701.333984375 307 716.000976562 337 716.000976562 c 0
 366.333007812 716.000976562 381 702.66796875 381 676.000976562 c 0xf8
 381 642.000976562 362.666992188 600.000976562 326 550.000976562 c 1
EndSplineSet
Validated: 524289
EndChar

StartChar: aring
Encoding: 229 229 110
Width: 501
GlyphClass: 2
Flags: MW
HStem: -21 21G 544 28 719 27
VStem: 58 72<173.001 210.334> 170 30<636.001 656.334 636.001 660.334> 312 76<52.3335 90.001 92.001 351.001> 354 31<635.334 656.334>
LayerCount: 2
Fore
SplineSet
312 75 m 1xfc
 242 39 188.666992188 7.0009765625 152 -20.9990234375 c 1
 116.666992188 5.0009765625 91.6669921875 34.333984375 77 67.0009765625 c 0
 64.3330078125 97.0009765625 58 135.66796875 58 183.000976562 c 0
 58 237.66796875 64 285.333984375 76 326.000976562 c 0
 84.6669921875 354.66796875 101.333007812 380.000976562 126 402.000976562 c 0
 126.666992188 402.000976562 152.333007812 420.66796875 203 458.000976562 c 0
 217.666992188 468.66796875 235 483.333984375 255 502.000976562 c 1
 278 489.000976562 l 2
 338 453.66796875 386.666992188 432.333984375 424 425.000976562 c 0
 439.333007812 422.333984375 447 417.333984375 447 410.000976562 c 0
 447 404.000976562 441.666992188 399.66796875 431 397.000976562 c 0
 412.333007812 392.333984375 401 388.000976562 397 384.000976562 c 0
 391 378.000976562 388 367.000976562 388 351.000976562 c 2
 388 90.0009765625 l 2
 388 79.333984375 391 69.0009765625 397 59.0009765625 c 0
 404.333007812 47.66796875 413.333007812 42.0009765625 424 42.0009765625 c 0
 426.666992188 42.0009765625 429.333007812 43.0009765625 432 45.0009765625 c 2
 453 57.0009765625 l 2
 457.666992188 60.333984375 461.333007812 62.0009765625 464 62.0009765625 c 0
 469.333007812 62.0009765625 472 59.66796875 472 55.0009765625 c 0
 472 49.66796875 466.333007812 44.0009765625 455 38.0009765625 c 0
 447.666992188 34.0009765625 435.333007812 26.0009765625 418 14.0009765625 c 0
 401 2.0009765625 401 2.0009765625 366 -21.9990234375 c 1
 330 -2.666015625 312 29.6669921875 312 75 c 1xfc
312 382.000976562 m 1
 278.666992188 397.333984375 244.333007812 417.000976562 209 441.000976562 c 1
 173 408.333984375 150 372.333984375 140 333.000976562 c 0
 133.333007812 308.333984375 130 264.66796875 130 202.000976562 c 0
 130 144.000976562 137.666992188 105.66796875 153 87.0009765625 c 0
 174.333007812 62.333984375 194.666992188 50.0009765625 214 50.0009765625 c 0
 222.666992188 50.0009765625 238.666992188 55.66796875 262 67.0009765625 c 2
 312 92.0009765625 l 1
 312 382.000976562 l 1
170 646.000976562 m 0
 170 674.66796875 181 698.66796875 203 718.000976562 c 0
 223.666992188 736.66796875 248.333007812 746.000976562 277 746.000976562 c 0
 307 746.000976562 332.5 736.333984375 353.5 717.000976562 c 0
 374.5 697.66796875 385 673.66796875 385 645.000976562 c 0xfa
 385 615.66796875 374 591.333984375 352 572.000976562 c 0
 331.333007812 553.333984375 306 544.000976562 276 544.000976562 c 0
 246.666992188 544.000976562 221.666992188 553.66796875 201 573.000976562 c 0
 180.333007812 592.333984375 170 616.66796875 170 646.000976562 c 0
200 646.000976562 m 0
 200 626.000976562 207.5 608.66796875 222.5 594.000976562 c 0
 237.5 579.333984375 255.333007812 572.000976562 276 572.000976562 c 0
 297.333007812 572.000976562 315.666992188 579.000976562 331 593.000976562 c 0
 346.333007812 607.000976562 354 624.66796875 354 646.000976562 c 0
 354 666.66796875 346.5 684.000976562 331.5 698.000976562 c 0
 316.5 712.000976562 298.333007812 719.000976562 277 719.000976562 c 0
 257 719.000976562 239.166992188 712.000976562 223.5 698.000976562 c 0
 207.833007812 684.000976562 200 666.66796875 200 646.000976562 c 0
EndSplineSet
Validated: 524289
EndChar

StartChar: ae
Encoding: 230 230 111
Width: 654
GlyphClass: 2
Flags: MW
HStem: -21 21G
VStem: 58 71<173.667 209> 311 78
LayerCount: 2
Fore
SplineSet
311 382 m 1
 279 396.666992188 244.666992188 416.333007812 208 441 c 1
 174.666992188 413 152.333007812 377 141 333 c 0
 133 304.333007812 129 261 129 203 c 0
 129 144.333007812 137 105.666992188 153 87 c 0
 173 63.6669921875 192.666992188 52 212 52 c 0
 224 52 239.666992188 58.3330078125 259 71 c 2
 312 106 l 1
 311 382 l 1
562 503 m 1
 624 303.999023438 l 1
 390 226.999023438 l 1
 390 183.666015625 395.666992188 146.666015625 407 115.999023438 c 0
 423 70.666015625 448.666992188 47.9990234375 484 47.9990234375 c 0
 507.333007812 47.9990234375 537.333007812 56.666015625 574 73.9990234375 c 2
 604 87.9990234375 l 2
 608.666992188 89.9990234375 612.666992188 90.9990234375 616 90.9990234375 c 0
 624.666992188 90.9990234375 629 86.666015625 629 77.9990234375 c 0
 629 71.33203125 622.666992188 65.9990234375 610 61.9990234375 c 2
 530 25.9990234375 l 2
 503 13.9990234375 503 13.9990234375 427 -21.0009765625 c 1
 398.333007812 -3.0009765625 378 11.9990234375 366 23.9990234375 c 0
 351.333007812 38.666015625 336.333007812 59.3330078125 321 86 c 1
 238.333007812 38 182 2.3330078125 152 -21 c 1
 116 5 91 34.3330078125 77 67 c 0
 64.3330078125 95.6669921875 58 134 58 182 c 0
 58 236 64.3330078125 283.333007812 77 324 c 0
 85.6669921875 353.333007812 102.333007812 379 127 401 c 0
 129.666992188 403.666992188 155 422.666992188 203 458 c 0
 216.333007812 468 233.666992188 482.666992188 255 502 c 1
 278 489 l 2
 308.666992188 470.333007812 340.666992188 454.333007812 374 441 c 1
 399.333007812 460.333007812 429 474.666992188 463 484 c 0
 480.333007812 488.666992188 513.333007812 495 562 503 c 1
541 296.999023438 m 1
 490 472.999023438 l 1
 452.666992188 462.33203125 428 448.999023438 416 432.999023438 c 0
 396.666992188 405.666015625 387.666992188 356.999023438 389 286.999023438 c 2
 389 247.999023438 l 1
 541 296.999023438 l 1
EndSplineSet
Validated: 524321
EndChar

StartChar: edieresis
Encoding: 235 235 112
Width: 412
GlyphClass: 2
Flags: MW
HStem: -21 21G 590 107<136.333 150.333 135.333 151 308.667 323.333>
VStem: 58 77<248 287 248 294.667> 89 107<637.667 650> 262 107<637.667 650>
LayerCount: 2
Fore
SplineSet
316 697 m 0xc8
 330.666992188 697 343.166992188 692 353.5 682 c 0
 363.833007812 672 369 659.666992188 369 645 c 0
 369 630.333007812 363.833007812 617.5 353.5 606.5 c 0
 343.166992188 595.5 330.666992188 590 316 590 c 0
 301.333007812 590 288.666992188 595 278 605 c 0
 267.333007812 615 262 627.333007812 262 642 c 0
 262 658 267 671.166992188 277 681.5 c 0
 287 691.833007812 300 697 316 697 c 0xc8
143 697 m 0
 157.666992188 697 170.166992188 692 180.5 682 c 0
 190.833007812 672 196 659.666992188 196 645 c 0
 196 630.333007812 190.833007812 617.5 180.5 606.5 c 0
 170.166992188 595.5 158 590 144 590 c 0
 128.666992188 590 115.666992188 594.833007812 105 604.5 c 0
 94.3330078125 614.166992188 89 626.666992188 89 642 c 0xd8
 89 658 94.1669921875 671.166992188 104.5 681.5 c 0
 114.833007812 691.833007812 127.666992188 697 143 697 c 0
305 504 m 1
 370 304 l 1
 136 227 l 1
 142 173.666992188 149 136.333007812 157 115 c 0
 173 70.3330078125 199 48 235 48 c 0
 251 48 266.666992188 51.3330078125 282 58 c 2
 350 87 l 2
 354 89 358 90 362 90 c 0
 370.666992188 90 375 86 375 78 c 0
 375 73.3330078125 368.333007812 68 355 62 c 2
 276 26 l 1
 208 -6 l 2
 198 -10.6669921875 186.333007812 -15.6669921875 173 -21 c 1
 135.666992188 1.6669921875 110 26.6669921875 96 54 c 0
 70.6669921875 102.666992188 58 169.333007812 58 254 c 0xe8
 58 335.333007812 75 394.333007812 109 431 c 0
 129.666992188 452.333007812 160.333007812 469.333007812 201 482 c 0
 221 488 255.666992188 495.333007812 305 504 c 1
287 297 m 1
 236 473 l 1
 198 462.333007812 173.333007812 449 162 433 c 0
 142.666992188 406.333007812 133.666992188 357.666992188 135 287 c 2
 135 248 l 1
 287 297 l 1
EndSplineSet
Validated: 524321
EndChar

StartChar: idieresis
Encoding: 239 239 113
Width: 304
GlyphClass: 2
Flags: MW
HStem: -21 21G 590 107<59.3345 73.6665 58.3335 74.001 232.333 246.667>
VStem: 12 107 108 77 185 107<637.667 650>
LayerCount: 2
Fore
SplineSet
239 697 m 0xc8
 254.333007812 697 267 692 277 682 c 0
 287 672 292 659.666992188 292 645 c 0
 292 630.333007812 287 617.5 277 606.5 c 0
 267 595.5 254.666992188 590 240 590 c 0
 224.666992188 590 211.666992188 595 201 605 c 0
 190.333007812 615 185 627.333007812 185 642 c 0
 185 658 190.166992188 671.166992188 200.5 681.5 c 0
 210.833007812 691.833007812 223.666992188 697 239 697 c 0xc8
66 697 m 0
 81.3330078125 697 94.0009765625 692 104.000976562 682 c 0
 114.000976562 672 119.000976562 659.666992188 119.000976562 645 c 0
 119.000976562 630.333007812 113.833984375 617.5 103.500976562 606.5 c 0
 93.16796875 595.5 81.0009765625 590 67.0009765625 590 c 0
 51.66796875 590 38.66796875 595 28.0009765625 605 c 0
 17.333984375 615 12.0009765625 627.333007812 12.0009765625 642 c 0xe8
 12.0009765625 658 17.16796875 671.166992188 27.5009765625 681.5 c 0
 37.833984375 691.833007812 50.6669921875 697 66 697 c 0
172.000976562 -21 m 1
 148.000976562 -4.3330078125 131.333984375 12.33203125 122.000976562 28.9990234375 c 0
 112.66796875 45.666015625 108.000976562 68.3330078125 108.000976562 97 c 2
 108.000976562 368 l 2
 108.000976562 401.333007812 98.0009765625 418 78.0009765625 418 c 0
 74.0009765625 418 68.0009765625 415.666992188 60.0009765625 411 c 0
 46.0009765625 403 37.66796875 399 35.0009765625 399 c 0
 29.0009765625 399 26.0009765625 402.333007812 26.0009765625 409 c 0
 26.0009765625 414.333007812 29.66796875 419 37.0009765625 423 c 0
 83.0009765625 448.333007812 118.333984375 475 143.000976562 503 c 1
 167.66796875 463 195.000976562 438.666992188 225.000976562 430 c 0
 233.66796875 427.333007812 238.000976562 424 238.000976562 420 c 0
 238.000976562 414.666992188 234.333984375 411.666992188 227.000976562 411 c 2
 203.000976562 409 l 2
 190.333984375 407.666992188 184.000976562 396.333007812 184.000976562 375 c 2
 185.000976562 121 l 2xd8
 185.000976562 100.333007812 187.000976562 86 191.000976562 78 c 0
 199.66796875 61.3330078125 209.333984375 53 220.000976562 53 c 0
 223.333984375 53 228.000976562 55.3330078125 234.000976562 60 c 2
 260.000976562 78 l 2
 263.333984375 80 266.000976562 81 268.000976562 81 c 0
 273.333984375 81 276.000976562 78 276.000976562 72 c 0
 276.000976562 68.6669921875 269.000976562 61.333984375 255.000976562 50.0009765625 c 0
 225.000976562 27.333984375 197.333984375 3.6669921875 172.000976562 -21 c 1
EndSplineSet
Validated: 8912897
EndChar

StartChar: odieresis
Encoding: 246 246 114
Width: 495
GlyphClass: 2
Flags: MW
HStem: -22 21G<256 256> 446 270 485 20G 549 21G
VStem: 92 79<105 443> 132 89<658.333 685.999> 289 88<658.333 685.999> 359 79<250.333 256.333>
LayerCount: 2
Fore
SplineSet
256 -22 m 1xa9
 208 2 l 2
 148.666992188 31.3330078125 100.666992188 48.3330078125 64 53 c 0
 47.3330078125 55.6669921875 39 60.6669921875 39 68 c 0
 39 72 40.6669921875 74.6669921875 44 76 c 2
 68 87 l 2
 84 95 92 110.333007812 92 133 c 2
 92 443 l 1
 193.333007812 451.666992188 270.333007812 472.333007812 323 505 c 1
 399.666992188 455.666992188 438 380 438 278 c 0
 438 222.666992188 428.333007812 177.333007812 409 142 c 0
 392.333007812 110.666992188 361 75.3330078125 315 36 c 0
 294.333007812 18 274.666992188 -1.3330078125 256 -22 c 1xa9
171 105 m 1
 199.666992188 93 216.666992188 85.666015625 222 82.9990234375 c 2
 283 52.9990234375 l 2
 285 51.666015625 289.333007812 49.3330078125 296 46 c 1
 338 93.3330078125 359 155.333007812 359 232 c 0
 359 280.666992188 351.666992188 324.666992188 337 364 c 0
 317 418.666992188 286.666992188 446 246 446 c 0xc9
 234 446 216 442.666992188 192 436 c 0
 188.666992188 435.333007812 181.333007812 433.333007812 170 430 c 1
 171 105 l 1
166 548.999023438 m 1x94
 143.333007812 595.666015625 132 636.33203125 132 670.999023438 c 0
 132 700.999023438 147 715.999023438 177 715.999023438 c 0xc4
 206.333007812 715.999023438 221 702.33203125 221 674.999023438 c 0
 221 641.666015625 202.666992188 599.666015625 166 548.999023438 c 1x94
323 548.999023438 m 1x92
 300.333007812 595.666015625 289 636.33203125 289 670.999023438 c 0
 289 700.999023438 304 715.999023438 334 715.999023438 c 0xc2
 362.666992188 715.999023438 377 702.33203125 377 674.999023438 c 0
 377 641.666015625 359 599.666015625 323 548.999023438 c 1x92
EndSplineSet
Validated: 524289
EndChar

StartChar: oslash
Encoding: 248 248 115
Width: 491
GlyphClass: 2
Flags: MW
HStem: -22 21G 485 20G
VStem: 89 78<121.666 132.999> 355 79<250.333 259.333>
LayerCount: 2
Fore
SplineSet
306 416 m 1
 282 436 260.333007812 446 241 446 c 0
 229.666992188 446 212.333007812 442.666992188 189 436 c 0
 185 435.333007812 177.666992188 433.333007812 167 430 c 1
 167 105 l 1
 188 97 l 1
 306 416 l 1
214 84 m 1
 238 73.9990234375 l 1
 280 52.9990234375 l 2
 282 51.666015625 286 49.3330078125 292 46 c 1
 334 93.3330078125 355 155.333007812 355 232 c 0
 355 286.666992188 345.333007812 337.333007812 326 384 c 1
 214 84 l 1
88 442.999023438 m 1
 189.333007812 451.666015625 266.333007812 472.33203125 319 504.999023438 c 1
 335 494.999023438 l 1
 363 570.999023438 l 1
 392 561.999023438 l 1
 357 472.999023438 l 1
 408.333007812 428.33203125 434 363.33203125 434 277.999023438 c 0
 434 222.666015625 424.333007812 176.999023438 405 140.999023438 c 0
 388.333007812 110.999023438 357.333007812 75.9990234375 312 35.9990234375 c 0
 290.666992188 17.9990234375 271 -1.333984375 253 -22.0009765625 c 1
 188 9.9990234375 l 1
 162 -60.0009765625 l 1
 134 -48.0009765625 l 1
 160 22.9990234375 l 1
 128.666992188 38.33203125 95.6669921875 48.33203125 61 52.9990234375 c 0
 43.6669921875 55.666015625 35 60.666015625 35 67.9990234375 c 0
 35 71.9990234375 37 74.666015625 41 75.9990234375 c 2
 64 86.9990234375 l 2
 80.6669921875 94.9990234375 89 110.33203125 89 132.999023438 c 2
 88 442.999023438 l 1
EndSplineSet
Validated: 524289
EndChar

StartChar: udieresis
Encoding: 252 252 116
Width: 548
GlyphClass: 2
Flags: MW
HStem: -22 59<410.5 463.5> 549 21G
VStem: 107 77<91 99> 154 89<657.5 685.5> 311 88<656.5 684.5> 349 77<111 117 91 381>
LayerCount: 2
Fore
SplineSet
349 111 m 1xe4
 349 381 l 2
 349 401 343 412 332 415 c 2
 306 421 l 2
 300 423 297 426 297 431 c 0
 297 437 304 441 318 443 c 0
 344 446 362 460 372 484 c 0
 378 498 382 506 386 506 c 0
 392 507 396 500 400 487 c 0
 405 465 416 452 430 448 c 2
 460 440 l 2
 468 438 472 434 472 430 c 0
 471 425 466 421 456 419 c 0
 436 417 426 411 426 401 c 2
 427 380 l 1
 426 117 l 2
 426 65 438 38 462 37 c 0
 465 37 470 38 475 40 c 2
 507 55 l 2
 509 56 511 56 513 56 c 0
 518 56 521 53 521 47 c 0
 521 44 519 41 514 39 c 2
 497 30 l 2
 468 16 444 1 424 -16 c 0
 419 -20 415 -22 413 -22 c 0
 408 -22 401 -18 391 -10 c 0
 368 10 354 43 350 90 c 1
 230 17 l 1
 168 -27 l 2
 164 -27 158 -21 150 -11 c 0
 130 15 109 29 85 33 c 0
 68 35 59 39 59 46 c 0
 59 51 61 55 66 57 c 2
 87 64 l 2
 99 69 106 77 107 91 c 2
 106 118 l 1
 104 384 l 2
 104 416 97 432 82 432 c 0
 79 432 75 430 68 427 c 2
 42 411 l 2
 41 410 39 410 36 410 c 0
 31 410 28 414 28 420 c 0
 28 424 31 429 38 433 c 0
 78 458 104 476 116 487 c 0
 123 493 127 497 130 497 c 0
 146 499 160 485 170 456 c 0
 179 433 184 413 184 395 c 2
 184 99 l 2
 184 85 185 77 187 74 c 2
 202 60 l 1
 214 47 l 2
 218 44 222 42 226 42 c 0
 232 42 240 45 251 52 c 2
 349 111 l 1xe4
188 549 m 1
 165 596 154 636 154 670 c 0
 154 701 169 716 201 716 c 0
 229 716 243 702 243 674 c 0xd0
 243 641 224 600 188 549 c 1
345 548 m 1
 322 595 311 635 311 669 c 0
 311 700 326 715 357 715 c 0
 385 715 399 701 399 673 c 0xc8
 399 640 381 599 345 548 c 1
EndSplineSet
Validated: 33
EndChar

StartChar: longs
Encoding: 383 383 117
Width: 301
GlyphClass: 2
Flags: MW
HStem: 643 67<218.5 226.5> 674 71<116 128>
VStem: 83 14 238 22<716.5 720>
LayerCount: 2
Fore
SplineSet
92 430 m 1x70
 30 430 l 1
 30 436 l 1
 65 456 83 489 83 537 c 0
 83 541 83 549 82 560 c 2
 80 601 l 2
 78 622 78 636 78 641 c 0
 78 710 97 745 135 745 c 0x70
 147 745 158 742 168 736 c 2
 201 716 l 2
 208 712 215 710 222 710 c 0
 232 710 238 713 238 720 c 2
 239 732 l 2
 240 738 243 741 248 741 c 0
 256 741 260 732 260 713 c 0
 260 667 243 643 210 643 c 0xb0
 199 643 180 650 155 664 c 0
 143 671 132 674 124 674 c 0
 106 674 97 662 97 637 c 0
 97 606 109 570 133 531 c 2
 168 474 l 2
 187 444 196 414 196 383 c 0
 196 304 191 203 181 83 c 2
 168 -81 l 2
 166 -102 163 -147 157 -216 c 0
 155 -225 149 -229 140 -229 c 0
 134 -229 130 -225 127 -216 c 0
 104 78 92 294 92 430 c 1x70
EndSplineSet
Validated: 1
Substitution2: "Einzelne Substitution Nachschlagetabelle 4 Subtabelle" s
EndChar

StartChar: tilde
Encoding: 732 732 118
Width: 28
GlyphClass: 2
Flags: MW
HStem: 617 62<335 393> 675 62<215.5 271.5>
VStem: 146 315<618 737>
LayerCount: 2
Fore
SplineSet
174 617 m 1xa0
 146 618 l 1
 159 656 170 682 180 695 c 0
 201 723 228 737 260 737 c 0x60
 283 737 306 728 328 710 c 0
 353 689 371 679 382 679 c 0xa0
 404 679 421 698 434 736 c 1
 461 737 l 1x60
 450 699 438 673 427 659 c 0
 405 631 378 617 347 617 c 0xa0
 323 617 303 625 285 639 c 2
 254 665 l 2
 246 672 237 675 227 675 c 0x60
 204 675 187 656 174 617 c 1xa0
EndSplineSet
Validated: 1
EndChar

StartChar: uni00B2
Encoding: 178 178 119
Width: 314
GlyphClass: 2
Flags: MW
HStem: 281 58<83 83 83 254 40 83> 501 61<61.5 98.5> 661 21<137 168>
VStem: 37 18<570 585.5 570 590> 218 58<561 579 561 596> 240 21<416 416>
LayerCount: 2
Fore
SplineSet
83 339 m 1xf8
 206 340 l 2
 223 340 233 352 236 376 c 2
 239 400 l 1
 240 416 l 2
 242 422 246 426 251 426 c 0
 258 426 261 422 261 416 c 0xf4
 261 412 260 407 259 400 c 0
 254 381 252 350 252 309 c 0
 252 301 253 292 254 281 c 1
 40 281 l 1
 46 311 58 339 77 365 c 0
 90 382 112 404 142 431 c 0
 173 458 192 477 199 488 c 0
 212 507 218 532 218 563 c 0
 218 629 193 661 143 661 c 0
 119 661 99 652 81 635 c 0
 64 618 55 597 55 574 c 0
 55 566 58 562 65 562 c 0
 67 562 69 563 72 565 c 2
 81 572 l 2
 85 576 91 578 99 578 c 0
 109 578 116 574 123 567 c 0
 129 559 132 550 132 541 c 0
 132 529 129 520 121 512 c 0
 114 505 104 501 93 501 c 0
 76 501 62 509 51 526 c 0
 42 541 37 557 37 575 c 0
 37 605 49 631 73 652 c 0
 96 672 122 682 152 682 c 0
 188 682 218 671 241 648 c 0
 264 626 276 597 276 561 c 1
 289.331054688 505.737304688 248.717773438 478.083007812 198 443 c 0
 148 409 110 375 83 339 c 1xf8
EndSplineSet
Validated: 524321
EndChar

StartChar: endash
Encoding: 8211 8211 120
Width: 473
GlyphClass: 2
Flags: MW
HStem: 211 37<30 426>
LayerCount: 2
Fore
SplineSet
30 248 m 1
 426 248 l 1
 427 213 l 1
 30 211 l 1
 30 248 l 1
EndSplineSet
Validated: 1
EndChar

StartChar: emdash
Encoding: 8212 8212 121
Width: 1144
GlyphClass: 2
Flags: MW
HStem: 212 37<43 1085 43 44>
LayerCount: 2
Fore
SplineSet
43 249 m 1
 1084 248 l 1
 1085 212 l 1
 44 212 l 1
 43 249 l 1
EndSplineSet
Validated: 1
EndChar

StartChar: quoteleft
Encoding: 8216 8216 122
Width: 241
GlyphClass: 2
Flags: MW
HStem: 720 20G<185.5 192.5>
VStem: 69 129
LayerCount: 2
Fore
SplineSet
190 740 m 0
 195 740 198 735 198 724 c 0
 198 716 196 700 192 675 c 2
 157 459 l 2
 150 420 134 400 107 400 c 0
 82 400 69 413 69 439 c 0
 69 454 75 477 86 506 c 2
 118 587 l 2
 157 689 181 740 190 740 c 0
EndSplineSet
Validated: 1
EndChar

StartChar: quoteright
Encoding: 8217 8217 123
Width: 226
GlyphClass: 2
Flags: MW
HStem: 431 309
VStem: 107 56<549.5 648.5>
LayerCount: 2
Fore
SplineSet
42 668 m 0
 57 682 68 700 74 720 c 0
 76 723 78 730 81 740 c 0
 82 741 83 742 84 742 c 0
 85 742 86 741 88 740 c 0
 138 709 163 671 163 626 c 0
 163 596 156 564 141 531 c 0
 126 497 107 471 84 452 c 0
 68 438 57 431 50 431 c 0
 44 431 41 434 41 439 c 0
 55 453 72 474 93 503 c 0
 102 522 107 541 107 558 c 0
 107 600 85 635 41 662 c 0
 40 664 40 665 40 666 c 0
 40 667 41 667 42 668 c 0
EndSplineSet
Validated: 1
EndChar

StartChar: quotesinglbase
Encoding: 8218 8218 124
Width: 191
GlyphClass: 2
Flags: MW
HStem: -241 21G<28.5 34>
VStem: 64 88<40 73>
LayerCount: 2
Fore
SplineSet
114 99 m 0
 139 99 152 86 152 60 c 0
 152 46 146 23 134 -7 c 2
 103 -90 l 2
 88 -129 75 -160 65 -184 c 2
 49 -219 l 2
 43 -234 37 -241 31 -241 c 0
 26 -241 23 -236 23 -225 c 0
 23 -216 25 -200 29 -176 c 2
 46 -70 l 1
 64 40 l 2
 70 79 87 99 114 99 c 0
EndSplineSet
Validated: 1
EndChar

StartChar: quotedblleft
Encoding: 8220 8220 125
Width: 393
GlyphClass: 2
Flags: MW
HStem: 721 20G<146 153.5>
VStem: 45 312
LayerCount: 2
Fore
SplineSet
151 741 m 0
 156 741 159 735 159 724 c 0
 159 710 158 695 156 678 c 2
 144 571 l 2
 141 537 138 504 136 470 c 1
 127 423 110 399 83 399 c 0
 71 399 62 403 55 412 c 0
 48 420 44 430 45 442 c 0
 46 458 50 479 60 504 c 0
 67 524 76 552 88 589 c 0
 120 691 141 741 151 741 c 0
349 740 m 0
 354 740 357 735 357 724 c 0
 357 715 355 699 351 675 c 2
 316 459 l 2
 309 420 293 400 267 400 c 0
 241 400 228 413 228 439 c 0
 228 454 234 476 246 506 c 2
 277 587 l 2
 317 689 341 740 349 740 c 0
EndSplineSet
Validated: 33
EndChar

StartChar: quotedblbase
Encoding: 8222 8222 126
Width: 394
GlyphClass: 2
Flags: MW
HStem: -244 21G<223.5 244>
VStem: 61 88<40 73>
LayerCount: 2
Fore
SplineSet
293 98 m 0
 306 98 315 94 322 85 c 0
 329 77 333 67 332 55 c 0
 331 39 326 19 317 -7 c 0
 309 -31 299 -59 289 -93 c 0
 274 -140 264 -172 258 -187 c 2
 244 -223 l 2
 238 -237 232 -244 226 -244 c 0
 221 -244 218 -238 218 -227 c 0
 218 -214 219 -199 221 -181 c 0
 223 -162 227 -126 233 -74 c 0
 235 -49 238 -23 240 2 c 0
 245 42 250 68 257 78 c 0
 265 91 278 98 293 98 c 0
111 99 m 0
 136 99 149 86 149 60 c 0
 149 45 143 22 131 -7 c 2
 100 -88 l 2
 81 -136 69 -168 62 -184 c 2
 46 -219 l 2
 40 -234 34 -241 28 -241 c 0
 23 -241 20 -236 20 -225 c 0
 20 -216 22 -200 26 -176 c 2
 43 -70 l 1
 61 40 l 2
 67 79 84 99 111 99 c 0
EndSplineSet
Validated: 33
EndChar

StartChar: dagger
Encoding: 8224 8224 127
Width: 544
GlyphClass: 2
Flags: MW
HStem: 383 97<66.5 90 444.5 466.5> 422 27<231 241.5 229.5 242.5 292 302> 721 20G<258 276>
VStem: 207 120<666 689 666 689> 254 26<397.5 412.5 460.5 471>
LayerCount: 2
Fore
SplineSet
209 301 m 1x68
 239 351 254 387 254 408 c 0
 254 417 248 422 237 422 c 0x68
 225 422 199 415 159 402 c 0
 121 389 96 383 84 383 c 0
 48 383 30 399 30 432 c 0
 30 464 48 480 85 480 c 0xa8
 101 480 123 476 149 469 c 2
 194 456 l 2
 210 451 224 449 235 449 c 0
 248 449 254 455 254 466 c 0x68
 254 476 253 485 250 494 c 2
 226 574 l 2
 213 615 207 651 207 680 c 0
 207 698 212 713 223 724 c 0
 234 736 249 741 267 741 c 0
 285 741 299 736 310 724 c 0
 321 713 327 698 327 680 c 0x70
 327 652 320 616 308 574 c 2
 284 494 l 2
 281 485 280 476 280 466 c 0
 280 455 286 449 298 449 c 0x68
 309 449 323 451 339 456 c 2
 384 469 l 2
 411 476 432 480 448 480 c 0
 485 480 503 464 503 432 c 0
 503 399 486 383 451 383 c 0xa8
 438 383 412 389 374 402 c 0
 334 415 308 422 296 422 c 0
 285 422 280 417 280 408 c 0
 280 387 294 351 324 301 c 1
 308 183 298 97 293 43 c 2
 274 -175 l 2
 274 -183 271 -187 267 -187 c 0
 261 -187 257 -172 255 -142 c 2
 239 43 l 2
 236 82 226 168 209 301 c 1x68
EndSplineSet
Validated: 1
EndChar

StartChar: bullet
Encoding: 8226 8226 128
Width: 410
GlyphClass: 2
Flags: MW
HStem: 207 250<191.5 225>
VStem: 84 250<315 349.5>
LayerCount: 2
Fore
SplineSet
209 457 m 0
 244 457 273 445 298 421 c 0
 322 396 334 367 334 332 c 0
 334 297 322 267 297 243 c 0
 273 219 243 207 207 207 c 0
 173 207 144 219 120 244 c 0
 96 268 84 298 84 332 c 0
 84 367 96 396 120 421 c 0
 145 445 174 457 209 457 c 0
EndSplineSet
Validated: 1
EndChar

StartChar: ellipsis
Encoding: 8230 8230 129
Width: 1199
GlyphClass: 2
Flags: MW
HStem: -35 107<593.5 607.5 592 608 992.5 1006.5>
VStem: 147 107<13.5 26> 546 107<12.5 25> 945 107<12.5 25>
CounterMasks: 1 70
LayerCount: 2
Fore
SplineSet
600 72 m 0
 615 72 628 67 638 57 c 0
 648 47 653 35 653 20 c 0
 653 5 648 -8 638 -19 c 0
 628 -30 615 -35 601 -35 c 0
 586 -35 573 -30 562 -20 c 0
 551 -10 546 2 546 17 c 0
 546 33 551 46 561 56 c 0
 572 67 584 72 600 72 c 0
201 73 m 0
 216 73 229 68 239 58 c 0
 249 48 254 35 254 21 c 0
 254 6 249 -7 239 -18 c 0
 228 -29 216 -34 202 -34 c 0
 187 -34 174 -29 163 -19 c 0
 152 -9 147 3 147 18 c 0
 147 34 152 47 162 57 c 0
 173 68 186 73 201 73 c 0
999 72 m 0
 1014 72 1027 67 1037 57 c 0
 1047 47 1052 35 1052 20 c 0
 1052 5 1047 -8 1037 -19 c 0
 1027 -30 1014 -35 1000 -35 c 0
 985 -35 972 -30 961 -20 c 0
 950 -10 945 2 945 17 c 0
 945 33 950 46 960 56 c 0
 970 67 983 72 999 72 c 0
EndSplineSet
Validated: 1
Ligature2: "'liga' Standard-Ligaturen in Lateinisch Nachschlagetabelle 5 Subtabelle" period period period
EndChar

StartChar: perthousand
Encoding: 8240 8240 130
Width: 951
GlyphClass: 2
Flags: MW
HStem: -21 20<407 447.5 407 448.5> 300 20<407 447.5> 384 20<162 203.5 162 204> 704 20<162 203.5>
VStem: 40 82<505 576> 244 82<532.5 576 532.5 603 532.5 636.5> 284 82<127.5 171> 488 82<127.5 171 127.5 199 127.5 232.5> 625 82<129.5 173> 829 82<129.5 173 129.5 201 129.5 234.5>
LayerCount: 2
Fore
SplineSet
527 736 m 1xf9c0
 556 718 l 1
 85 -24 l 1
 56 -6 l 1
 527 736 l 1xf9c0
183 724 m 0
 225 724 260 706 288 669 c 0
 313 636 326 598 326 554 c 0xfdc0
 326 511 313 472 288 438 c 0
 260 402 225 384 183 384 c 0
 141 384 106 402 78 438 c 0
 53 472 40 511 40 554 c 0
 40 598 53 636 78 669 c 0
 106 706 141 724 183 724 c 0
183 704 m 0
 141 704 121 670 122 603 c 2
 123 554 l 1
 122 505 l 2
 121 438 141 404 183 404 c 0
 224 404 244 438 244 505 c 2
 244 603 l 2
 244 670 224 704 183 704 c 0
427 320 m 0
 470 320 505 302 532 265 c 0
 557 232 570 193 570 149 c 0
 570 106 557 67 532 34 c 0
 505 -3 470 -21 427 -21 c 0
 385 -21 350 -3 322 34 c 0
 297 67 284 106 284 149 c 0xfbc0
 284 193 297 232 322 265 c 0
 350 302 385 320 427 320 c 0
427 300 m 0
 387 300 366 266 366 199 c 2
 366 101 l 2
 366 33 387 -1 427 -1 c 0
 468 -1 488 33 488 101 c 2
 488 199 l 2
 488 266 468 300 427 300 c 0
768 322 m 0
 811 322 846 304 873 267 c 0
 898 234 911 195 911 151 c 0
 911 108 898 69 873 36 c 0
 845 -1 810 -19 768 -19 c 0
 726 -19 691 -1 663 36 c 0
 638 69 625 108 625 151 c 0
 625 195 638 234 663 267 c 0
 690 304 725 322 768 322 c 0
768 302 m 0
 727 302 707 268 707 201 c 2
 707 103 l 2
 707 35 727 1 768 1 c 0
 809 1 829 35 829 103 c 2
 829 201 l 2
 829 268 809 302 768 302 c 0
EndSplineSet
Validated: 33
Ligature2: "'liga' Standard-Ligaturen in Lateinisch Nachschlagetabelle 5 Subtabelle" percent zero
EndChar

StartChar: guilsinglleft
Encoding: 8249 8249 131
Width: 337
GlyphClass: 2
Flags: MW
VStem: 64 193<111 297>
LayerCount: 2
Fore
SplineSet
99 297 m 1
 257 111 l 1
 221 111 l 1
 64 297 l 1
 221 483 l 1
 257 483 l 1
 99 297 l 1
EndSplineSet
Validated: 1
EndChar

StartChar: guilsinglright
Encoding: 8250 8250 132
Width: 339
GlyphClass: 2
Flags: MW
VStem: 64 193<111 297 297 483>
LayerCount: 2
Fore
SplineSet
223 297 m 1
 64 483 l 1
 100 483 l 1
 257 297 l 1
 100 111 l 1
 64 111 l 1
 223 297 l 1
EndSplineSet
Validated: 1
EndChar

StartChar: Euro
Encoding: 8364 8364 133
Width: 620
GlyphClass: 2
Flags: MW
HStem: -16 23<354.5 392.5> 258 51<33 56 33 65 4 56> 370 51<58 58> 671 20<326 374 326 379.5>
VStem: 55 127<309 329> 575 17<389 389> 579 23<260 260>
LayerCount: 2
Fore
SplineSet
58 370 m 1xfa
 5 371 l 1
 34 421 l 1
 69 421 l 1
 81 452 94 483 108 513 c 0
 133 566 168 609 213 642 c 0
 257 674 303 691 349 691 c 0
 399 691 451 661 508 602 c 0
 528 581 541 571 547 571 c 0
 557 571 564 592 569 635 c 1
 590 635 l 1
 592 389 l 1
 575 389 l 1xfc
 566 438 551 483 529 524 c 0
 477 622 415 671 344 671 c 0
 293 671 255 650 228 607 c 0
 212 582 202 558 196 533 c 0
 191 509 187 472 184 421 c 1
 409 421 l 1
 381 371 l 1
 184 370 l 2
 184 366 183 345 182 309 c 1
 354 308 l 1
 326 258 l 1
 187 258 l 1
 191 189 201 138 217 102 c 0
 230 72 251 49 278 32 c 0
 306 15 337 7 372 7 c 0
 442 7 497 39 535 104 c 0
 558 142 573 194 579 260 c 1
 602 260 l 1
 596 201 585 156 572 126 c 0
 553 83 525 49 489 23 c 0
 452 -3 413 -16 372 -16 c 0
 321 -16 273 -3 228 24 c 0
 183 51 149 80 127 112 c 0
 105 144 84 192 65 258 c 1
 4 258 l 1
 33 309 l 1
 56 309 l 1
 56 314 55 319 55 325 c 0
 55 333 56 348 58 370 c 1xfa
EndSplineSet
Validated: 1
EndChar

StartChar: uni20B0
Encoding: 8368 8368 134
Width: 542
GlyphClass: 2
Flags: MW
HStem: -24 16<95.5 122 95.5 141> 722 20<337.5 360>
VStem: 28 45<19.5 91.5> 249 41<592.5 658> 283 13<218 238.5> 434 22<558.5 591> 451 60<123 171.5>
LayerCount: 2
Fore
SplineSet
410 453 m 1xf4
 426 501 434 542 434 575 c 0
 434 607 427 638 414 667 c 0
 397 704 374 722 346 722 c 0
 329 722 315 714 304 698 c 0
 295 683 290 667 290 649 c 0
 290 623 305 592 334 556 c 0
 341 548 356 528 380 494 c 2
 410 453 l 1xf4
425 436 m 1
 455 392 477 351 490 314 c 0
 504 274 511 229 511 178 c 0
 511 68 464 -47 371 -166 c 0
 334 -212 285 -261 222 -313 c 1
 212 -302 l 1
 261 -259 299 -221 324 -188 c 0
 409 -82 451 32 451 154 c 0
 451 189 445 220 435 249 c 0
 427 270 412 299 389 335 c 1
 275 96 180 -24 102 -24 c 0
 78 -24 60 -15 46 2 c 0
 34 18 28 39 28 63 c 0
 28 120 48 172 87 219 c 0
 129 268 177 293 233 293 c 0
 275 293 296 269 296 222 c 0xea
 296 214 294 203 292 188 c 1
 324 246 352 303 374 357 c 1
 330 419 302 459 292 477 c 0
 263 527 249 572 249 613 c 0
 249 644 257 672 274 698 c 0
 293 727 317 742 346 742 c 0
 386 742 415 724 434 688 c 0
 449 661 456 625 456 582 c 0
 456 534 446 485 425 436 c 1
245 276 m 0
 219 279 186 250 145 188 c 0
 97 117 73 65 73 33 c 0
 73 6 84 -8 107 -8 c 0
 137 -8 172 19 212 72 c 0
 259 134 283 184 283 222 c 0
 283 255 270 273 245 276 c 0
EndSplineSet
Validated: 33
EndChar

StartChar: uni2114
Encoding: 8468 8468 135
Width: 626
GlyphClass: 2
Flags: MW
HStem: -3 17<174.5 194.5> 233 13 248 12<209 342 214 338> 484 59<452 541.5> 532 58<163 286>
VStem: 27 15<366 411 364 427.5> 75 77<37.5 91> 311 65<39.5 121 39.5 121> 513 12<122 161.5> 600 9
LayerCount: 2
Fore
SplineSet
424 233 m 1xe7c0
 392 128 376 68 376 52 c 0
 376 27 389 15 414 15 c 0
 444 15 468 28 487 55 c 0
 504 78 513 106 513 136 c 0
 513 187 483 220 424 233 c 1xe7c0
209 248 m 1
 160 91 l 2
 154 75 152 61 152 49 c 0
 152 26 163 14 186 14 c 0
 233 14 284 92 338 248 c 1
 209 248 l 1
600 595 m 1
 609 586 l 1
 600 554 581 529 554 510 c 0
 527 493 497 484 463 484 c 0xf7c0
 441 484 397 492 330 507 c 0
 258 524 209 532 183 532 c 0
 143 532 110 519 83 491 c 0
 56 464 42 431 42 391 c 0
 42 337 71 298 130 276 c 1
 175 428 l 1
 267 427 l 1
 214 260 l 1
 342 260 l 1
 396 427 l 1
 484 427 l 1
 430 246 l 1
 493 227 525 192 525 141 c 0
 525 103 514 70 493 43 c 0
 469 13 439 -2 403 -2 c 0
 367 -2 341 11 324 37 c 0
 315 49 311 69 311 97 c 2
 311 121 l 1
 267 38 220 -3 169 -3 c 0
 144 -3 123 5 104 20 c 0
 84 36 75 57 75 81 c 0
 75 101 81 131 94 173 c 2
 122 263 l 1
 59 289 27 334 27 398 c 0
 27 457 52 505 103 541 c 0
 148 574 201 590 262 590 c 0xefc0
 310 590 366 581 430 564 c 2
 488 548 l 2
 501 545 514 543 526 543 c 0xf7c0
 557 543 582 560 600 595 c 1
EndSplineSet
Validated: 1
EndChar

StartChar: uni211B
Encoding: 8475 8475 136
Width: 1041
GlyphClass: 2
Flags: MW
HStem: -21 19<180 221> 325 21<703 719.5 690.5 722> 406 25<692.5 695> 719 28<720 755.5> 729 26
VStem: 0 43<76 159> 314 20<375.5 388.5 373 409.5> 712 62<44.5 87.5> 791 61<264 309> 968 75<535 578.5 517.5 579>
LayerCount: 2
Fore
SplineSet
833 340 m 1xefc0
 846 317 852 296 852 277 c 0
 852 251 841 215 818 168 c 0
 789 106 774 67 774 51 c 0
 774 38 778 28 787 18 c 0
 795 9 805 4 817 4 c 0
 851 4 887 26 928 69 c 0
 960 103 985 139 1004 178 c 0
 1006 181 1008 183 1011 183 c 0
 1017 183 1020 180 1020 175 c 0
 1020 173 1019 171 1017 167 c 2
 1000 136 l 2
 943 31 876 -21 801 -21 c 0
 774 -21 752 -12 736 6 c 0
 720 24 712 47 712 75 c 0
 712 100 718 128 731 159 c 0
 734 165 746 191 770 237 c 0
 784 266 791 289 791 306 c 0
 791 312 790 320 788 333 c 1
 754 328 l 2
 739 326 727 325 717 325 c 0
 689 325 660 336 629 356 c 1
 600 296 575 251 555 220 c 0
 527 177 494 138 456 103 c 0
 412 62 372 33 337 15 c 0
 293 -9 246 -21 196 -21 c 0
 142 -21 97 -7 61 21 c 0
 20 51 0 92 0 145 c 0
 0 173 8 197 23 219 c 0
 41 242 63 254 90 254 c 0
 103 254 115 249 125 240 c 0
 134 232 139 221 139 208 c 0
 139 190 123 171 91 153 c 0
 59 134 43 113 43 91 c 0
 43 61 62 37 101 20 c 0
 131 5 163 -2 197 -2 c 0
 253 -2 307 21 359 66 c 0
 404 105 440 153 467 210 c 2
 557 401 l 2
 594 479 632 540 671 583 c 0
 715 631 773 672 845 708 c 1
 800 715 766 719 745 719 c 0
 674 719 607 704 545 673 c 0
 480 641 429 597 393 539 c 0
 378 517 365 491 354 461 c 0
 341 427 334 399 334 378 c 0
 334 368 331 363 324 363 c 0
 317 363 314 369 314 382 c 0
 314 437 330 492 363 548 c 0
 402 614 459 664 535 699 c 0
 604 731 679 747 761 747 c 0xf7c0
 801 747 846 740 897 727 c 1
 964 746 1008 755 1029 755 c 0
 1043 755 1050 751 1050 743 c 0
 1050 736 1037 731 1012 729 c 0
 995 727 970 721 936 711 c 1
 1007 664 1043 609 1043 548 c 0
 1043 487 1019 438 972 399 c 0
 944 377 898 357 833 340 c 1xefc0
813 368 m 1
 868 390 906 413 928 437 c 0
 954 467 968 508 968 562 c 0
 968 596 962 624 949 644 c 0
 937 663 916 681 884 696 c 1
 816 666 766 631 733 591 c 0
 703 553 678 497 658 422 c 1
 673 428 687 431 698 431 c 0
 737 431 776 410 813 368 c 1
783 359 m 1
 766 377 752 389 739 396 c 0
 725 402 706 406 684 406 c 0
 658 406 645 398 646 381 c 0
 647 358 669 346 712 346 c 0
 727 346 750 351 783 359 c 1
EndSplineSet
Validated: 33
EndChar

StartChar: uni2133
Encoding: 8499 8499 137
Width: 1085
GlyphClass: 2
Flags: MW
HStem: -20 18<134.5 168 134.5 182.5> -20 38<789 867.5> 110 99 720 20G<1036.5 1061>
VStem: 14 41<64.5 135> 718 69<84 105 65.5 132>
LayerCount: 2
Fore
SplineSet
481 54 m 1xbc
 538 108 587 171 630 245 c 0
 742 434 840 574 926 665 c 0
 974 715 1017 740 1056 740 c 0
 1066 740 1071 736 1070 727 c 0
 1070 721 1055 696 1024 653 c 0
 986 599 949 533 914 456 c 0
 897 418 869 348 829 245 c 0
 801 173 787 121 787 89 c 0
 787 42 801 18 830 18 c 0
 905 18 970 89 1025 229 c 0
 1027 234 1029 236 1033 236 c 0
 1037 236 1039 234 1039 230 c 0
 1039 228 1038 225 1037 223 c 0
 1036 220 1032 211 1025 196 c 0
 1002 139 977 95 952 64 c 0
 933 42 910 22 885 7 c 0
 855 -11 828 -20 802 -20 c 0x7c
 776 -20 755 -6 739 21 c 0
 725 44 718 70 718 98 c 0
 718 166 759 272 839 416 c 0
 900 523 963 621 1030 708 c 1
 1002 697 982 687 969 677 c 0
 958 668 942 652 922 628 c 0
 844 536 770 430 698 311 c 2
 615 174 l 2
 589 131 562 93 533 61 c 0
 489 11 452 -14 421 -14 c 0
 414 -14 410 -12 410 -6 c 0
 410 -3 411 0 414 4 c 2
 438 39 l 2
 453 60 477 119 512 217 c 2
 586 425 l 2
 619 519 673 610 747 699 c 1
 701 665 l 1
 650 613 608 562 576 513 c 0
 550 474 519 416 480 340 c 0
 431 241 388 166 352 117 c 0
 283 26 216 -20 149 -20 c 0
 108 -20 75 -6 50 21 c 0
 26 47 14 81 14 124 c 0
 14 146 19 166 30 182 c 0
 42 200 59 209 80 209 c 0
 95 209 108 205 118 196 c 0
 129 187 134 175 134 160 c 0
 134 135 121 118 95 110 c 0
 80 106 70 102 67 100 c 0
 59 95 55 87 55 76 c 0
 55 53 65 34 84 19 c 0
 103 5 123 -2 146 -2 c 0
 190 -2 235 21 281 68 c 0
 317 106 353 156 388 218 c 2
 473 382 l 2
 553 541 635 648 717 706 c 0
 744 724 765 734 781 734 c 0
 793 734 799 729 799 720 c 0
 799 709 788 692 767 667 c 0
 743 639 719 596 697 540 c 2
 648 404 l 2
 593 255 537 138 481 54 c 1xbc
EndSplineSet
Validated: 1
EndChar

